<?xml version="1.0" encoding="UTF-8"?>
<svg width="146px" height="151px" viewBox="0 0 146 151" version="1.1" xmlns="http://www.w3.org/2000/svg" xmlns:xlink="http://www.w3.org/1999/xlink">
    <!-- Generator: Sketch 42 (36781) - http://www.bohemiancoding.com/sketch -->
    <title>Albania</title>
    <desc>Created with Sketch.</desc>
    <defs>
        <path d="M13.48,59.39 C13.798,30.88 28.635,21.957 36.715,21.957 C47.999,21.957 52.659,30.571 53.421,34.385 C54.182,38.197 58.453,41.245 59.825,34.994 C61.198,28.743 74.474,9.682 90.788,9.682 C105.73,9.682 110.905,25.09 110.457,38.197 C109.235,73.875 63.271,102.351 57.221,120.332 C51.834,109.441 13.1,93.699 13.48,59.39 Z M96.125,0.84 C82.707,0.84 66.838,10.75 57.233,27.219 C54.641,21.271 45.407,14.79 34.43,14.79 C25.585,14.79 0.757,25.845 0.757,61.525 C0.757,107.573 47.345,117.031 56.763,131.342 C57.41,132.327 59.495,133.07 60.29,130.718 C67.805,108.539 126.077,83.482 126.077,38.349 C126.077,13.038 109.543,0.84 96.125,0.84 L96.125,0.84 Z" id="path-1"></path>
        <filter x="-50%" y="-50%" width="200%" height="200%" filterUnits="objectBoundingBox" id="filter-2">
            <feOffset dx="0" dy="0" in="SourceAlpha" result="shadowOffsetOuter1"></feOffset>
            <feGaussianBlur stdDeviation="5" in="shadowOffsetOuter1" result="shadowBlurOuter1"></feGaussianBlur>
            <feColorMatrix values="0 0 0 0 0   0 0 0 0 0   0 0 0 0 0  0 0 0 0.266191123 0" type="matrix" in="shadowBlurOuter1"></feColorMatrix>
        </filter>
    </defs>
    <g id="Page-1" stroke="none" stroke-width="1" fill="none" fill-rule="evenodd">
        <g id="Albania" transform="translate(9.636719, 9.062500)">
            <path d="M49.029,47.702 L49.026,47.702 C48.877,47.702 48.729,47.69 48.592,47.665 C48.58,47.662 48.569,47.66 48.557,47.658 C48.355,47.616 48.264,47.509 48.264,47.386 C48.263,47.244 48.381,47.081 48.584,46.972 C48.588,46.97 48.593,46.968 48.597,46.965 C48.601,46.963 48.606,46.961 48.61,46.959 C48.621,46.953 48.632,46.948 48.643,46.943 C48.644,46.942 48.646,46.942 48.647,46.941 C48.818,46.863 49.01,46.826 49.209,46.826 L49.212,46.826 L49.218,46.826 C49.44,46.827 49.671,46.872 49.889,46.955 C49.9,46.959 49.911,46.963 49.921,46.967 C50.086,47.033 50.154,47.135 50.154,47.238 C50.153,47.372 50.036,47.51 49.866,47.574 C49.864,47.575 49.861,47.576 49.859,47.576 C49.854,47.578 49.848,47.58 49.843,47.582 C49.842,47.582 49.842,47.583 49.841,47.583 C49.834,47.586 49.825,47.588 49.817,47.591 C49.81,47.594 49.803,47.596 49.795,47.598 C49.599,47.66 49.321,47.701 49.04,47.702 L49.029,47.702" id="Fill-24" fill="#D0383E"></path>
            <path d="M64.664,46.056 L64.662,46.056 C64.581,46.056 64.507,46.051 64.444,46.042 C64.443,46.042 64.442,46.042 64.441,46.041 L64.437,46.041 C64.433,46.04 64.429,46.039 64.425,46.039 C64.254,46.01 64.136,45.896 64.137,45.76 C64.137,45.658 64.205,45.543 64.368,45.443 C64.394,45.428 64.42,45.413 64.446,45.398 C64.449,45.396 64.453,45.394 64.457,45.392 C64.76,45.223 65.084,45.121 65.374,45.119 L65.385,45.119 L65.388,45.119 C65.5,45.119 65.607,45.134 65.705,45.166 C65.908,45.231 66.026,45.368 66.027,45.508 C66.027,45.633 65.936,45.761 65.732,45.846 C65.725,45.849 65.718,45.852 65.712,45.855 C65.706,45.857 65.701,45.859 65.695,45.861 C65.691,45.863 65.686,45.865 65.681,45.867 C65.358,45.992 64.972,46.054 64.679,46.056 L64.664,46.056" id="Fill-25" fill="#D0383E"></path>
            <path d="M57.145,95.892 C56.054,94.777 55.128,93.781 55.128,92.662 C55.128,91.541 56.082,91.468 56.272,90.083 C56.329,89.673 56.215,89.431 56.083,89.431 C56.006,89.431 55.924,89.512 55.864,89.688 C55.701,90.169 54.883,91.022 54.118,91.512 C53.781,91.728 53.328,91.85 52.891,91.85 C52.338,91.85 51.812,91.654 51.583,91.206 C51.339,90.724 52.21,90.401 53.083,90.118 C53.956,89.835 54.801,88.845 54.855,87.418 C54.87,87.021 54.797,86.858 54.667,86.858 C54.527,86.858 54.321,87.046 54.091,87.336 C53.183,88.476 52.042,89.176 51.076,89.176 C50.679,89.176 50.312,89.058 50.003,88.804 C48.939,87.934 50.248,87.385 51.393,87.182 C52.182,87.043 53.246,86.578 53.437,85.627 C53.536,85.13 53.494,84.892 53.296,84.892 C53.116,84.892 52.807,85.089 52.359,85.468 C51.845,85.904 51.106,86.126 50.452,86.126 C49.912,86.126 49.431,85.975 49.184,85.667 C48.599,84.938 49.022,84.675 50.085,84.507 C53.191,84.014 55.305,79.503 55.426,76.623 C55.458,75.88 55.181,75.438 54.789,75.438 C54.552,75.438 54.273,75.6 53.996,75.954 C53.26,76.891 52.361,78.379 51.638,79.944 C51.184,80.929 50.847,81.504 50.739,82.171 C50.607,82.219 50.466,82.241 50.319,82.241 C49.645,82.241 48.832,81.785 48.093,81.302 C47.139,81.813 44.44,83.108 43.378,83.603 C43.704,83.705 44.44,83.983 44.96,84.146 C45.19,83.991 45.454,83.913 45.708,83.913 C46.143,83.913 46.548,84.141 46.703,84.591 C47.386,84.736 47.576,85.564 47.223,86.228 C47.004,85.842 46.677,85.495 46.294,85.315 C46.032,85.536 45.706,85.667 45.402,85.667 C45.013,85.667 44.661,85.451 44.523,84.929 C44.086,84.73 43.406,84.529 42.67,84.277 C42.461,84.206 42.291,84.177 42.146,84.177 C41.771,84.177 41.569,84.374 41.333,84.554 C41.006,84.807 40.188,85.414 39.561,85.89 C39.288,86.916 38.674,87.34 37.822,87.34 C37.741,87.34 37.657,87.336 37.571,87.329 C37.189,87.725 36.917,88.381 36.809,88.884 C36.345,88.551 36.317,87.707 36.699,87.066 C36.6,86.01 37.309,85.318 38.644,85.318 C38.78,85.318 38.923,85.325 39.071,85.34 C39.479,85.051 40.298,84.474 40.98,83.992 C40.515,84.041 38.499,84.282 37.462,84.418 C37.109,84.724 36.654,84.894 36.244,84.894 C35.862,84.894 35.519,84.746 35.335,84.423 C35.231,84.379 35.117,84.36 34.995,84.36 C34.575,84.36 34.059,84.578 33.51,84.698 C33.733,83.926 34.366,83.43 35.189,83.43 C35.268,83.43 35.349,83.435 35.431,83.444 C35.723,83.142 36.058,82.973 36.419,82.973 C36.766,82.973 37.136,83.129 37.517,83.471 C38.334,83.465 39.479,83.426 41.032,83.302 C40.542,83.026 39.848,82.609 39.03,82.204 C38.792,82.309 38.549,82.358 38.321,82.358 C37.846,82.358 37.437,82.144 37.271,81.774 C37.034,81.579 36.78,81.508 36.505,81.508 C36.167,81.508 35.797,81.616 35.39,81.727 C35.449,80.869 35.928,80.514 36.662,80.514 C36.951,80.514 37.281,80.569 37.639,80.67 C37.878,80.512 38.159,80.436 38.436,80.436 C39.014,80.436 39.574,80.771 39.684,81.396 C40.175,82.042 41.156,82.348 42.26,82.968 C43.651,82.248 45.408,81.489 47.085,80.452 C46.716,80.122 46.35,79.709 45.941,79.344 C48.667,77.69 50.739,76.051 51.665,73.002 C51.811,72.524 51.765,72.333 51.649,72.333 C51.52,72.333 51.304,72.573 51.174,72.918 C50.726,74.115 50.003,74.954 48.857,75.594 C48.699,75.682 48.554,75.721 48.427,75.721 C47.904,75.721 47.693,75.064 48.176,74.573 C48.776,73.963 49.321,72.978 49.349,71.855 C49.358,71.463 49.143,71.312 48.905,71.312 C48.66,71.312 48.39,71.471 48.312,71.691 C47.104,75.097 45.64,77.575 44.349,77.575 C44.242,77.575 44.136,77.558 44.031,77.523 C42.67,77.065 43.312,76.206 44.031,75.775 C45.423,74.946 46.213,72.785 46.294,71.712 C46.335,71.173 46.191,70.929 45.982,70.929 C45.774,70.929 45.503,71.169 45.287,71.6 C44.851,72.467 43.651,74.149 41.688,76.542 C40.326,78.201 38.596,79.085 37.164,79.085 C36.532,79.085 35.958,78.913 35.499,78.56 C34.302,77.639 35.234,76.845 36.389,76.845 C36.509,76.845 36.631,76.853 36.754,76.871 C36.897,76.892 37.04,76.902 37.184,76.902 C39.554,76.902 41.94,74.126 43.405,70.186 C43.547,69.802 43.443,69.63 43.278,69.63 C43.165,69.63 43.025,69.71 42.914,69.857 C40.413,73.194 38.206,74.493 36.544,74.493 C35.888,74.493 35.316,74.29 34.844,73.93 C34.301,73.515 33.684,72.143 35.774,72.143 C35.93,72.143 36.102,72.15 36.29,72.167 C36.432,72.179 36.572,72.185 36.709,72.185 C39.376,72.185 41.051,69.878 42.995,66.816 C43.493,66.031 43.47,65.693 43.213,65.693 C43,65.693 42.629,65.922 42.259,66.319 C41.441,67.198 40.216,68.256 38.851,69.218 C38.207,69.674 37.252,69.955 36.387,69.955 C35.422,69.955 34.569,69.606 34.382,68.763 C34.126,67.606 34.693,67.245 35.531,67.245 C35.854,67.245 36.217,67.299 36.589,67.381 C36.863,67.442 37.128,67.471 37.386,67.471 C39.314,67.471 40.82,65.863 42.288,64.021 C42.858,63.303 42.808,62.854 42.456,62.854 C42.351,62.854 42.22,62.894 42.069,62.979 C41.415,63.348 39.861,64.25 38.851,64.903 C38.286,65.269 37.344,65.623 36.438,65.623 C35.727,65.623 35.039,65.406 34.571,64.807 C33.767,63.776 34.523,62.925 35.519,62.925 C35.839,62.925 36.183,63.013 36.509,63.211 C36.798,63.388 37.178,63.469 37.61,63.469 C39.168,63.469 41.392,62.41 42.396,60.977 C43.091,59.986 42.985,59.673 42.616,59.673 C42.304,59.673 41.804,59.897 41.441,60.123 C40.314,60.827 39.031,61.252 37.74,61.252 C36.738,61.252 35.731,60.995 34.79,60.415 C33.812,59.811 33.963,59.274 34.3,58.663 C34.408,58.465 34.666,58.331 35.024,58.331 C35.295,58.331 35.625,58.409 35.989,58.594 C37.011,59.114 37.958,59.371 38.833,59.371 C40.413,59.371 41.755,58.532 42.86,56.885 C43.262,56.287 43.135,56.049 42.801,56.049 C42.567,56.049 42.231,56.166 41.905,56.358 C40.55,57.157 39.18,57.524 37.964,57.524 C36.186,57.524 34.735,56.739 34.136,55.375 C33.799,54.608 34.245,53.684 34.923,53.684 C35.198,53.684 35.511,53.836 35.826,54.213 C36.653,55.203 37.773,55.547 39.025,55.547 C39.911,55.547 40.863,55.375 41.824,55.137 C42.936,54.863 42.946,53.45 41.769,53.422 C39.233,53.362 35.227,52.118 34.027,50.195 C33.305,49.04 34.156,47.569 35.085,47.569 C35.439,47.569 35.805,47.783 36.099,48.31 C37.162,50.22 39.397,51.296 41.85,51.802 C42.183,51.871 42.433,51.904 42.617,51.904 C42.91,51.904 43.033,51.818 43.05,51.648 C43.086,51.294 43.322,50.687 43.567,50.687 C43.595,50.687 43.622,50.694 43.649,50.711 C44.332,51.022 46.785,51.61 47.985,51.92 C49.184,52.231 49.729,53.265 49.675,54.282 C49.623,55.25 49.373,56.93 50.875,56.93 C50.951,56.93 51.033,56.925 51.119,56.916 C53.954,56.617 52.77,52.153 51.093,50.942 C49.973,50.133 48.773,49.748 47.782,49.748 C47.626,49.748 47.475,49.758 47.331,49.776 C47.17,49.798 47.004,49.808 46.837,49.808 C45.909,49.808 44.981,49.468 44.876,48.661 C44.685,48.64 44.368,48.596 44.012,48.596 C43.886,48.596 43.755,48.602 43.622,48.616 C43.601,48.618 43.578,48.619 43.554,48.619 C43.16,48.619 42.5,48.32 42.164,48.059 C41.811,47.781 41.387,47.321 41.742,46.984 C41.829,46.9 41.93,46.864 42.034,46.864 C42.352,46.864 42.709,47.191 42.874,47.492 C43.091,47.893 43.561,48.144 43.799,48.147 C44.153,48.149 44.761,48.181 45.087,48.228 C45.132,48.235 45.18,48.238 45.23,48.238 C45.552,48.238 45.965,48.114 46.082,47.96 C46.35,47.611 46.056,47.451 45.694,47.36 C45.583,47.331 45.47,47.317 45.361,47.317 C45.067,47.317 44.808,47.421 44.713,47.626 C44.623,47.822 44.46,48.008 44.168,48.066 C43.841,46.27 45.612,46.166 47.085,46.092 C47.469,45.438 48.122,45.211 48.867,45.211 C49.812,45.211 50.904,45.577 51.773,45.898 C51.884,45.911 52.007,45.917 52.137,45.917 C52.873,45.917 53.858,45.719 54.391,45.43 C54.578,45.329 54.707,45.288 54.79,45.288 C54.985,45.288 54.926,45.518 54.773,45.746 C54.555,46.069 53.764,46.698 53.437,46.815 C53.11,46.932 53.218,47.084 53.329,47.209 C53.674,47.604 54.446,47.939 54.801,47.955 C55.154,47.973 55.264,48.125 55.072,48.281 C54.883,48.439 54.609,48.631 54.337,48.742 C54.065,48.852 54.091,48.959 54.255,49.159 C54.559,49.533 55.307,49.86 55.674,49.86 C55.715,49.86 55.752,49.855 55.782,49.847 C55.841,49.83 55.889,49.822 55.928,49.822 C56.087,49.822 56.088,49.95 56,50.069 C55.89,50.217 55.481,50.451 55.264,50.474 C55.046,50.497 55.026,50.54 55.21,50.753 C55.38,50.954 55.739,51.355 56.088,51.355 C56.141,51.355 56.193,51.346 56.245,51.325 C56.436,51.25 56.575,51.217 56.668,51.217 C56.833,51.217 56.85,51.322 56.746,51.478 C56.361,52.049 56.381,52.276 57.145,52.325 C57.908,52.117 57.929,51.883 57.543,51.393 C57.416,51.23 57.469,51.105 57.753,51.105 C57.832,51.105 57.929,51.115 58.045,51.136 C58.067,51.14 58.09,51.142 58.112,51.142 C58.487,51.142 58.894,50.602 59.082,50.344 C59.235,50.132 59.246,50.072 59.114,50.072 C59.09,50.072 59.06,50.074 59.026,50.077 C59.011,50.079 58.994,50.08 58.977,50.08 C58.751,50.08 58.391,49.943 58.29,49.828 C58.189,49.711 58.206,49.556 58.454,49.556 C58.471,49.556 58.489,49.557 58.508,49.559 L58.527,49.559 C58.845,49.559 59.704,49.026 60.034,48.55 C60.197,48.314 60.227,48.201 59.953,48.149 C59.681,48.096 59.408,47.961 59.216,47.844 C59.026,47.728 59.136,47.553 59.49,47.461 C59.844,47.369 60.617,46.872 60.963,46.403 C61.07,46.256 61.18,46.08 60.852,46.032 C60.526,45.985 59.735,45.522 59.517,45.246 C59.347,45.029 59.293,44.784 59.573,44.784 C59.653,44.784 59.76,44.804 59.898,44.85 C60.166,44.938 60.547,44.98 60.953,44.979 C61.5,44.979 62.093,44.904 62.516,44.765 C63.577,44.149 64.97,43.396 66.024,43.396 C66.513,43.396 66.929,43.558 67.206,43.97 C67.715,43.888 68.26,43.802 68.742,43.802 C69.652,43.802 70.337,44.109 70.122,45.328 L70.112,45.328 C69.826,45.328 69.667,45.178 69.576,45.004 C69.507,44.869 69.351,44.806 69.156,44.806 C68.987,44.806 68.788,44.854 68.596,44.945 C68.233,45.111 67.939,45.334 68.207,45.627 C68.286,45.713 68.497,45.758 68.724,45.758 C68.889,45.758 69.063,45.734 69.201,45.685 C69.529,45.568 70.137,45.408 70.49,45.331 C70.728,45.278 71.198,44.928 71.416,44.482 C71.596,44.114 72.006,43.667 72.343,43.667 C72.416,43.667 72.486,43.688 72.549,43.735 C72.902,43.997 72.48,44.548 72.127,44.898 C71.771,45.25 71.049,45.722 70.667,45.763 C70.162,45.816 69.672,45.99 69.413,46.072 C69.29,47.05 68.022,47.621 66.959,47.706 C65.895,47.791 64.491,48.457 63.197,49.664 C61.573,51.182 60.408,55.659 62.92,55.658 C63,55.658 63.083,55.654 63.17,55.645 C64.943,55.458 64.67,53.712 64.615,52.706 C64.56,51.701 65.106,50.551 66.307,49.987 C67.505,49.424 69.958,48.318 70.639,47.863 C70.677,47.833 70.715,47.819 70.753,47.819 C70.988,47.819 71.207,48.343 71.239,48.674 C71.252,48.798 71.323,48.864 71.479,48.864 C71.664,48.864 71.969,48.772 72.438,48.576 C74.894,47.551 77.129,46.005 78.191,43.87 C78.538,43.176 78.983,42.896 79.393,42.896 C80.241,42.896 80.935,44.1 80.263,45.319 C79.062,47.494 75.056,49.583 72.52,50.178 C71.342,50.455 71.354,51.865 72.465,51.905 C72.689,51.913 72.912,51.918 73.134,51.918 C75.212,51.918 77.188,51.513 78.463,49.716 C78.837,49.189 79.209,48.98 79.517,48.98 C80.108,48.98 80.464,49.748 80.154,50.521 C79.405,52.383 77.33,53.62 74.945,53.62 C74.115,53.62 73.246,53.469 72.383,53.143 C72.144,53.052 71.899,53.003 71.693,53.003 C71.221,53.003 70.953,53.263 71.43,53.871 C72.328,55.019 73.381,55.601 74.591,55.601 C75.696,55.601 76.932,55.115 78.3,54.131 C78.787,53.78 79.211,53.636 79.52,53.636 C79.746,53.636 79.909,53.713 79.99,53.843 C80.326,54.384 80.477,54.889 79.5,55.699 C78.153,56.814 76.674,57.292 75.265,57.292 C74.419,57.292 73.599,57.12 72.848,56.81 C72.556,56.69 72.175,56.59 71.875,56.59 C71.362,56.59 71.085,56.883 71.894,57.866 C72.712,58.862 74.342,59.438 75.761,59.437 C76.564,59.437 77.299,59.253 77.782,58.857 C78.228,58.491 78.709,58.325 79.114,58.325 C79.923,58.325 80.425,58.988 79.718,60.047 C79.064,61.021 77.98,61.341 77.007,61.341 C76.395,61.341 75.827,61.214 75.437,61.044 C74.431,60.605 72.874,60.031 72.22,59.798 C72.117,59.762 72.022,59.745 71.939,59.745 C71.496,59.745 71.378,60.234 72.003,60.886 C73.284,62.226 74.594,63.378 76.19,63.378 C76.666,63.378 77.167,63.276 77.699,63.046 C78.253,62.806 78.787,62.634 79.199,62.634 C79.78,62.634 80.115,62.978 79.908,63.96 C79.661,65.124 78.258,65.672 76.967,65.672 C76.399,65.672 75.853,65.566 75.436,65.36 C74.074,64.686 72.848,63.885 72.03,63.179 C71.703,62.897 71.374,62.746 71.156,62.746 C70.828,62.746 70.748,63.086 71.294,63.83 C73.011,66.173 74.517,67.971 76.683,67.971 C77.096,67.971 77.533,67.905 77.999,67.766 C78.501,67.617 78.886,67.554 79.177,67.554 C80.452,67.554 79.919,68.763 79.444,69.226 C78.805,69.85 77.981,70.223 77.009,70.223 C75.454,70.223 73.522,69.267 71.376,66.855 C71.283,66.751 71.169,66.699 71.068,66.699 C70.872,66.699 70.726,66.895 70.886,67.289 C72.215,70.585 74.303,72.76 76.449,72.76 C76.811,72.76 77.175,72.698 77.536,72.569 C77.834,72.463 78.131,72.412 78.395,72.412 C79.287,72.412 79.812,72.993 78.791,73.994 C78.141,74.631 77.261,74.953 76.312,74.953 C75.071,74.953 73.714,74.402 72.602,73.28 C70.639,71.302 69.439,69.871 69.005,69.099 C68.808,68.751 68.568,68.568 68.37,68.568 C68.128,68.568 67.95,68.842 67.994,69.423 C68.076,70.48 68.867,72.473 70.257,73.008 C70.977,73.287 71.621,74.013 70.257,74.756 C70.081,74.852 69.901,74.898 69.718,74.898 C68.484,74.898 67.118,72.8 65.977,69.827 C65.913,69.659 65.717,69.56 65.513,69.56 C65.23,69.56 64.931,69.75 64.943,70.209 C64.969,71.327 65.515,72.197 66.113,72.681 C66.639,73.104 66.344,73.897 65.717,73.897 C65.628,73.897 65.532,73.881 65.432,73.846 C64.287,73.448 63.564,72.761 63.114,71.658 C62.993,71.36 62.796,71.171 62.666,71.171 C62.533,71.171 62.469,71.368 62.624,71.846 C63.553,74.699 65.624,75.901 68.349,76.98 C67.941,77.432 67.572,77.921 67.205,78.33 C68.88,79.013 70.639,79.402 72.03,79.83 C73.134,78.975 74.116,78.462 74.605,77.713 C74.736,76.949 75.49,76.456 76.164,76.456 C76.335,76.456 76.502,76.488 76.651,76.555 C77.175,76.297 77.636,76.15 78.002,76.15 C78.522,76.15 78.852,76.446 78.9,77.136 C78.686,77.124 78.482,77.11 78.287,77.11 C77.813,77.11 77.395,77.193 77.018,77.582 C76.813,78.082 76.238,78.423 75.624,78.423 C75.503,78.423 75.381,78.41 75.26,78.382 C74.441,78.96 73.747,79.525 73.256,79.903 C74.811,79.7 75.956,79.497 76.772,79.329 C77.242,78.81 77.697,78.575 78.11,78.575 C78.38,78.575 78.632,78.676 78.858,78.862 C79.083,78.789 79.297,78.754 79.495,78.754 C80.123,78.754 80.594,79.107 80.779,79.711 C80.391,79.707 80.019,79.652 79.685,79.652 C79.411,79.652 79.163,79.69 78.954,79.823 C78.718,80.289 78.217,80.52 77.708,80.52 C77.398,80.52 77.086,80.435 76.828,80.266 C75.792,80.346 73.773,80.533 73.312,80.582 C73.992,80.919 74.811,81.324 75.219,81.527 C75.625,81.402 75.984,81.342 76.293,81.342 C77.205,81.342 77.672,81.866 77.591,82.753 C77.973,83.314 77.945,84.162 77.481,84.593 C77.373,84.113 77.1,83.515 76.717,83.198 C76.467,83.274 76.236,83.313 76.024,83.313 C75.403,83.313 74.952,82.971 74.729,82.18 C74.101,81.837 73.282,81.403 72.956,81.218 C72.765,81.112 72.597,80.991 72.341,80.991 C72.159,80.991 71.932,81.052 71.621,81.224 C70.886,81.63 70.202,81.975 69.767,82.266 C69.601,82.929 69.125,83.215 68.648,83.215 C68.419,83.215 68.189,83.149 67.994,83.027 C67.612,83.287 67.287,83.703 67.068,84.135 C66.714,83.546 66.905,82.677 67.586,82.387 C67.772,81.806 68.321,81.472 68.85,81.472 C69.017,81.472 69.181,81.505 69.332,81.574 C69.849,81.302 70.584,80.869 70.912,80.698 C69.849,80.427 67.15,79.702 66.195,79.393 C65.357,80.118 64.424,80.83 63.706,80.83 C63.654,80.83 63.603,80.826 63.553,80.818 C63.442,80.175 63.105,79.672 62.65,78.783 C61.929,77.37 61.028,76.071 60.293,75.289 C60.06,75.042 59.826,74.93 59.617,74.93 C59.165,74.93 58.828,75.452 58.863,76.26 C58.982,79.058 61.014,83.022 64.023,83.022 C64.083,83.022 64.144,83.02 64.205,83.017 C64.321,83.011 64.43,83.008 64.53,83.008 C65.348,83.008 65.627,83.228 65.105,83.987 C64.762,84.488 63.965,84.783 63.186,84.783 C62.728,84.783 62.277,84.681 61.929,84.459 C61.531,84.207 61.244,84.074 61.058,84.074 C60.805,84.074 60.742,84.321 60.852,84.846 C61.034,85.71 62.005,85.97 62.777,85.97 C62.818,85.97 62.858,85.969 62.897,85.967 C62.964,85.965 63.03,85.964 63.097,85.964 C64.184,85.964 65.29,86.266 64.287,87.298 C63.86,87.738 63.322,87.943 62.748,87.943 C61.895,87.943 60.963,87.491 60.197,86.69 C59.987,86.471 59.798,86.331 59.661,86.331 C59.508,86.331 59.419,86.504 59.435,86.935 C59.488,88.35 60.334,89.162 61.208,89.261 C62.078,89.36 62.951,89.499 62.707,90.032 C62.407,90.682 61.599,91.007 60.888,91.007 C60.626,91.007 60.376,90.962 60.171,90.874 C59.407,90.545 58.589,89.865 58.427,89.418 C58.373,89.27 58.3,89.204 58.23,89.204 C58.088,89.204 57.957,89.478 58.017,89.898 C58.209,91.245 59.162,91.116 59.162,92.235 C59.162,93.356 58.234,94.547 57.145,95.892 M49.029,47.702 L49.029,47.702 L49.04,47.702 C49.321,47.701 49.599,47.66 49.795,47.598 C49.803,47.596 49.81,47.594 49.817,47.591 C49.825,47.588 49.834,47.586 49.841,47.583 C49.842,47.583 49.842,47.582 49.843,47.582 C49.848,47.58 49.854,47.578 49.859,47.576 C49.861,47.576 49.864,47.575 49.866,47.574 C50.036,47.51 50.153,47.372 50.154,47.238 C50.154,47.135 50.086,47.033 49.921,46.967 C49.911,46.963 49.9,46.959 49.889,46.955 C49.671,46.872 49.44,46.827 49.218,46.826 L49.212,46.826 L49.209,46.826 C49.01,46.826 48.818,46.863 48.647,46.941 C48.646,46.942 48.644,46.942 48.643,46.943 C48.632,46.948 48.621,46.953 48.61,46.959 C48.606,46.961 48.601,46.963 48.597,46.965 C48.593,46.968 48.588,46.97 48.584,46.972 C48.381,47.081 48.263,47.244 48.264,47.386 C48.264,47.509 48.355,47.616 48.557,47.658 C48.569,47.66 48.58,47.662 48.592,47.665 C48.729,47.69 48.877,47.702 49.026,47.702 L49.029,47.702 M64.664,46.056 L64.664,46.056 L64.679,46.056 C64.972,46.054 65.358,45.992 65.681,45.867 C65.686,45.865 65.691,45.863 65.695,45.861 C65.701,45.859 65.706,45.857 65.712,45.855 C65.718,45.852 65.725,45.849 65.732,45.846 C65.936,45.761 66.027,45.633 66.027,45.508 C66.026,45.368 65.908,45.231 65.705,45.166 C65.607,45.134 65.5,45.119 65.388,45.119 L65.385,45.119 L65.374,45.119 C65.084,45.121 64.76,45.223 64.457,45.392 C64.453,45.394 64.449,45.396 64.446,45.398 C64.42,45.413 64.394,45.428 64.368,45.443 C64.205,45.543 64.137,45.658 64.137,45.76 C64.136,45.896 64.254,46.01 64.425,46.039 C64.429,46.039 64.433,46.04 64.437,46.041 L64.441,46.041 C64.442,46.042 64.443,46.042 64.444,46.042 C64.507,46.051 64.581,46.056 64.662,46.056 L64.664,46.056" id="Fill-26" fill="#160000"></path>
            <path d="M78.954,79.823 C78.574,80.573 77.51,80.713 76.828,80.266 C75.792,80.346 73.773,80.533 73.312,80.582 C73.992,80.919 74.811,81.324 75.219,81.527 C76.828,81.029 77.699,81.567 77.591,82.753 C77.973,83.314 77.945,84.162 77.481,84.593 C77.373,84.113 77.1,83.515 76.717,83.198 C75.736,83.495 75.028,83.241 74.729,82.18 C74.101,81.837 73.282,81.403 72.956,81.218 C72.629,81.036 72.368,80.812 71.621,81.224 C70.886,81.63 70.202,81.975 69.768,82.266 C69.521,83.248 68.596,83.402 67.994,83.027 C67.612,83.287 67.287,83.703 67.068,84.135 C66.714,83.546 66.905,82.677 67.586,82.387 C67.831,81.623 68.703,81.287 69.332,81.574 C69.849,81.302 70.584,80.869 70.912,80.698 C69.849,80.427 67.15,79.702 66.195,79.393 C65.296,80.171 64.287,80.933 63.553,80.818 C63.442,80.175 63.105,79.671 62.65,78.783 C61.929,77.37 61.028,76.071 60.293,75.289 C59.558,74.507 58.812,75.078 58.863,76.26 C58.984,79.114 61.097,83.181 64.205,83.017 C65.268,82.962 65.691,83.134 65.105,83.987 C64.56,84.783 62.869,85.057 61.929,84.459 C60.989,83.862 60.662,83.937 60.852,84.846 C61.044,85.755 62.109,85.995 62.897,85.967 C64.041,85.93 65.352,86.202 64.287,87.298 C63.226,88.393 61.479,88.03 60.197,86.69 C59.753,86.226 59.404,86.118 59.435,86.935 C59.488,88.35 60.334,89.162 61.208,89.261 C62.078,89.36 62.951,89.499 62.707,90.032 C62.297,90.922 60.934,91.202 60.171,90.874 C59.407,90.545 58.589,89.865 58.427,89.418 C58.263,88.971 57.928,89.272 58.018,89.898 C58.209,91.245 59.162,91.116 59.162,92.235 C59.162,93.356 58.234,94.547 57.145,95.892 C56.054,94.777 55.128,93.781 55.128,92.662 C55.128,91.541 56.082,91.468 56.272,90.083 C56.361,89.436 56.027,89.208 55.864,89.688 C55.701,90.169 54.883,91.022 54.118,91.512 C53.355,92 51.993,92.009 51.583,91.206 C51.339,90.724 52.21,90.4 53.083,90.118 C53.956,89.835 54.801,88.845 54.855,87.418 C54.887,86.594 54.536,86.776 54.091,87.336 C52.811,88.944 51.066,89.676 50.003,88.804 C48.939,87.934 50.248,87.385 51.393,87.182 C52.182,87.043 53.246,86.578 53.437,85.627 C53.627,84.679 53.3,84.673 52.359,85.468 C51.42,86.265 49.729,86.347 49.184,85.667 C48.599,84.938 49.022,84.675 50.084,84.507 C53.191,84.014 55.305,79.504 55.426,76.623 C55.477,75.43 54.732,75.015 53.996,75.954 C53.26,76.891 52.361,78.379 51.638,79.944 C51.184,80.929 50.847,81.504 50.739,82.171 C50.003,82.438 48.993,81.89 48.093,81.302 C47.139,81.813 44.44,83.108 43.378,83.603 C43.704,83.705 44.44,83.983 44.96,84.146 C45.586,83.725 46.458,83.878 46.703,84.591 C47.386,84.736 47.576,85.564 47.223,86.228 C47.004,85.842 46.677,85.495 46.294,85.316 C45.695,85.817 44.768,85.859 44.523,84.929 C44.086,84.73 43.406,84.529 42.67,84.277 C41.921,84.023 41.66,84.304 41.333,84.554 C41.006,84.807 40.188,85.414 39.561,85.89 C39.262,87.014 38.553,87.416 37.571,87.329 C37.189,87.725 36.917,88.381 36.809,88.884 C36.345,88.551 36.317,87.707 36.699,87.066 C36.59,85.902 37.462,85.181 39.071,85.34 C39.479,85.051 40.298,84.474 40.979,83.992 C40.515,84.041 38.499,84.282 37.462,84.418 C36.78,85.008 35.717,85.094 35.335,84.423 C34.872,84.226 34.219,84.543 33.51,84.698 C33.755,83.853 34.491,83.338 35.431,83.444 C36.004,82.852 36.741,82.773 37.517,83.471 C38.334,83.465 39.479,83.426 41.032,83.302 C40.542,83.026 39.848,82.609 39.03,82.204 C38.294,82.526 37.517,82.321 37.271,81.774 C36.741,81.338 36.126,81.525 35.39,81.727 C35.472,80.53 36.372,80.312 37.639,80.671 C38.376,80.182 39.521,80.471 39.684,81.396 C40.175,82.042 41.156,82.348 42.26,82.968 C43.651,82.248 45.408,81.489 47.085,80.452 C46.716,80.122 46.35,79.709 45.941,79.344 C48.667,77.69 50.739,76.051 51.665,73.003 C51.974,71.989 51.42,72.264 51.174,72.918 C50.726,74.115 50.003,74.954 48.857,75.594 C48.046,76.048 47.576,75.183 48.176,74.573 C48.776,73.963 49.321,72.978 49.349,71.855 C49.367,71.059 48.466,71.258 48.313,71.691 C47.004,75.38 45.395,77.981 44.031,77.523 C42.67,77.066 43.312,76.206 44.031,75.775 C45.423,74.946 46.213,72.785 46.294,71.712 C46.376,70.638 45.722,70.734 45.287,71.6 C44.851,72.467 43.651,74.149 41.688,76.542 C39.725,78.933 36.999,79.713 35.499,78.56 C34.177,77.543 35.45,76.681 36.754,76.871 C39.262,77.234 41.851,74.365 43.405,70.186 C43.645,69.541 43.187,69.493 42.914,69.857 C39.424,74.512 36.509,75.203 34.844,73.93 C34.261,73.484 33.591,71.932 36.29,72.167 C39.205,72.421 40.951,70.036 42.995,66.816 C43.904,65.384 43.078,65.44 42.259,66.319 C41.441,67.198 40.216,68.256 38.851,69.218 C37.489,70.183 34.736,70.362 34.382,68.763 C34.027,67.16 35.253,67.086 36.589,67.381 C38.911,67.897 40.624,66.109 42.288,64.021 C43.028,63.089 42.723,62.61 42.069,62.979 C41.415,63.348 39.861,64.25 38.851,64.903 C37.843,65.556 35.636,66.171 34.571,64.807 C33.508,63.444 35.171,62.396 36.509,63.211 C37.843,64.027 41.114,62.807 42.396,60.977 C43.678,59.149 42.232,59.629 41.441,60.123 C39.439,61.373 36.944,61.744 34.79,60.415 C33.812,59.811 33.963,59.274 34.3,58.663 C34.49,58.315 35.145,58.165 35.989,58.594 C38.855,60.052 41.143,59.443 42.86,56.885 C43.543,55.867 42.696,55.892 41.905,56.358 C38.567,58.325 35.145,57.672 34.136,55.375 C33.662,54.297 34.736,52.908 35.826,54.213 C37.239,55.904 39.505,55.71 41.824,55.137 C42.936,54.863 42.946,53.45 41.769,53.422 C39.233,53.362 35.227,52.118 34.027,50.195 C33.03,48.6 35.035,46.402 36.099,48.31 C37.162,50.22 39.397,51.296 41.85,51.802 C42.716,51.98 43.022,51.924 43.05,51.648 C43.09,51.255 43.377,50.549 43.649,50.711 C44.332,51.022 46.785,51.61 47.985,51.92 C49.184,52.231 49.729,53.265 49.675,54.282 C49.621,55.299 49.348,57.103 51.119,56.916 C53.955,56.617 52.77,52.153 51.093,50.942 C49.797,50.007 48.394,49.637 47.331,49.776 C46.267,49.915 45,49.612 44.876,48.661 C44.618,48.633 44.127,48.562 43.623,48.616 C43.241,48.656 42.52,48.336 42.164,48.059 C41.811,47.781 41.387,47.321 41.742,46.984 C42.095,46.646 42.654,47.091 42.874,47.492 C43.091,47.893 43.561,48.144 43.799,48.147 C44.153,48.149 44.761,48.181 45.087,48.228 C45.415,48.275 45.946,48.138 46.083,47.96 C46.35,47.611 46.056,47.451 45.694,47.359 C45.28,47.254 44.842,47.346 44.713,47.626 C44.623,47.822 44.46,48.008 44.168,48.066 C43.841,46.27 45.612,46.166 47.085,46.092 C47.956,44.607 50.219,45.324 51.773,45.898 C52.51,45.984 53.764,45.77 54.391,45.43 C55.019,45.091 54.991,45.422 54.773,45.746 C54.555,46.069 53.764,46.698 53.437,46.815 C53.11,46.932 53.218,47.084 53.329,47.209 C53.674,47.604 54.446,47.939 54.801,47.955 C55.154,47.973 55.264,48.125 55.072,48.281 C54.883,48.439 54.609,48.631 54.337,48.742 C54.065,48.852 54.091,48.959 54.255,49.159 C54.593,49.575 55.481,49.933 55.782,49.847 C56.082,49.76 56.109,49.921 56,50.069 C55.89,50.217 55.481,50.451 55.264,50.474 C55.046,50.497 55.026,50.54 55.209,50.753 C55.406,50.984 55.852,51.481 56.245,51.325 C56.776,51.116 56.909,51.234 56.746,51.478 C56.361,52.049 56.381,52.276 57.145,52.325 C57.908,52.117 57.929,51.883 57.543,51.393 C57.38,51.185 57.513,51.038 58.045,51.136 C58.438,51.208 58.883,50.617 59.082,50.344 C59.263,50.093 59.245,50.054 59.026,50.077 C58.808,50.101 58.398,49.952 58.29,49.828 C58.183,49.703 58.209,49.535 58.508,49.559 C58.808,49.582 59.697,49.037 60.034,48.55 C60.197,48.314 60.227,48.201 59.953,48.149 C59.681,48.096 59.408,47.961 59.216,47.844 C59.026,47.728 59.136,47.553 59.49,47.461 C59.844,47.369 60.617,46.872 60.963,46.403 C61.07,46.256 61.18,46.08 60.853,46.032 C60.526,45.985 59.735,45.523 59.517,45.246 C59.299,44.967 59.271,44.642 59.898,44.85 C60.526,45.057 61.779,45.007 62.516,44.765 C64.069,43.863 66.332,42.668 67.206,43.97 C68.677,43.733 70.45,43.464 70.122,45.328 C69.829,45.332 69.668,45.18 69.576,45.004 C69.447,44.751 69.009,44.751 68.596,44.944 C68.233,45.111 67.939,45.334 68.207,45.627 C68.343,45.775 68.874,45.801 69.201,45.685 C69.529,45.568 70.137,45.408 70.49,45.331 C70.729,45.278 71.198,44.928 71.416,44.482 C71.635,44.035 72.193,43.471 72.549,43.735 C72.902,43.997 72.48,44.547 72.127,44.898 C71.771,45.25 71.049,45.722 70.667,45.763 C70.162,45.816 69.672,45.99 69.413,46.072 C69.29,47.05 68.021,47.621 66.959,47.706 C65.896,47.791 64.491,48.457 63.197,49.664 C61.521,51.23 60.335,55.944 63.17,55.645 C64.943,55.458 64.67,53.712 64.615,52.706 C64.561,51.701 65.106,50.551 66.307,49.987 C67.505,49.424 69.958,48.318 70.639,47.863 C70.912,47.644 71.201,48.289 71.239,48.674 C71.268,48.945 71.572,48.937 72.438,48.576 C74.894,47.551 77.129,46.005 78.191,43.87 C79.255,41.737 81.259,43.513 80.263,45.318 C79.063,47.494 75.056,49.583 72.521,50.178 C71.342,50.455 71.354,51.865 72.465,51.905 C74.782,51.989 77.052,51.705 78.463,49.716 C79.554,48.18 80.626,49.344 80.154,50.521 C79.144,53.031 75.723,54.406 72.383,53.143 C71.594,52.843 70.746,52.998 71.43,53.871 C73.148,56.067 75.434,56.193 78.3,54.131 C79.144,53.524 79.799,53.536 79.99,53.843 C80.326,54.384 80.477,54.889 79.5,55.699 C77.346,57.483 74.852,57.636 72.848,56.81 C72.057,56.484 70.612,56.308 71.894,57.866 C73.175,59.425 76.445,59.954 77.782,58.857 C79.117,57.76 80.779,58.458 79.718,60.046 C78.653,61.633 76.445,61.484 75.438,61.044 C74.431,60.605 72.874,60.031 72.22,59.798 C71.566,59.567 71.261,60.112 72.003,60.886 C73.665,62.625 75.379,64.049 77.699,63.046 C79.036,62.466 80.262,62.283 79.908,63.96 C79.553,65.636 76.8,66.036 75.437,65.359 C74.074,64.686 72.848,63.885 72.03,63.179 C71.212,62.473 70.385,62.59 71.294,63.83 C73.338,66.619 75.084,68.636 77.999,67.766 C80.699,66.963 80.027,68.657 79.444,69.226 C77.782,70.849 74.863,70.774 71.376,66.855 C71.103,66.549 70.645,66.693 70.886,67.289 C72.438,71.14 75.028,73.461 77.536,72.569 C78.841,72.104 80.114,72.697 78.791,73.994 C77.291,75.463 74.564,75.259 72.602,73.28 C70.639,71.302 69.439,69.871 69.005,69.099 C68.567,68.325 67.913,68.367 67.994,69.423 C68.076,70.48 68.867,72.473 70.257,73.008 C70.978,73.287 71.621,74.013 70.257,74.756 C68.894,75.501 67.287,73.24 65.978,69.827 C65.824,69.426 64.923,69.418 64.943,70.209 C64.969,71.327 65.515,72.197 66.113,72.681 C66.714,73.164 66.244,74.129 65.432,73.846 C64.287,73.448 63.564,72.761 63.114,71.658 C62.869,71.057 62.316,70.899 62.624,71.846 C63.553,74.699 65.624,75.901 68.349,76.98 C67.941,77.432 67.572,77.921 67.205,78.33 C68.88,79.013 70.639,79.402 72.03,79.83 C73.134,78.975 74.116,78.462 74.605,77.713 C74.77,76.754 75.914,76.223 76.651,76.555 C77.917,75.93 78.818,75.959 78.9,77.136 C78.162,77.092 77.55,77.034 77.018,77.582 C76.772,78.181 75.997,78.551 75.26,78.382 C74.441,78.96 73.747,79.525 73.256,79.903 C74.811,79.7 75.956,79.497 76.772,79.329 C77.55,78.469 78.286,78.391 78.858,78.862 C79.799,78.557 80.536,78.918 80.779,79.711 C80.072,79.704 79.417,79.527 78.954,79.823 Z M92.871,5.682 C75.377,5.682 61.142,26.121 59.669,32.824 C58.198,39.526 54.618,36.258 53.802,32.171 C52.985,28.081 46.988,18.845 34.888,18.845 C26.225,18.845 10.314,28.413 9.974,58.984 C9.566,95.774 51.101,112.653 56.876,124.332 C63.365,105.051 112.652,74.516 113.962,36.258 C114.442,22.205 108.894,5.682 92.871,5.682 L92.871,5.682 Z" id="Fill-27" fill="#D0383E"></path>
            <g id="Fill-28">
                <use fill="black" fill-opacity="1" filter="url(#filter-2)" xlink:href="#path-1"></use>
                <use fill="#FFFFFF" fill-rule="evenodd" xlink:href="#path-1"></use>
            </g>
        </g>
    </g>
</svg>