<?xml version="1.0" encoding="UTF-8"?>
<svg width="147px" height="153px" viewBox="0 0 147 153" version="1.1" xmlns="http://www.w3.org/2000/svg" xmlns:xlink="http://www.w3.org/1999/xlink">
    <!-- Generator: Sketch 42 (36781) - http://www.bohemiancoding.com/sketch -->
    <title>Australia</title>
    <desc>Created with Sketch.</desc>
    <defs>
        <path d="M13.1441904,59.2223784 C13.4657718,30.42112 28.4533767,21.4060822 36.6172399,21.4060822 C48.0160445,21.4060822 52.7238045,30.1091023 53.4936871,33.9621015 C54.2623742,37.8127097 58.5768247,40.8910445 59.9623742,34.576573 C61.3491191,28.2621015 74.7610948,9.00547399 91.2418414,9.00547399 C106.337039,9.00547399 111.564828,24.5716862 111.111745,37.8127097 C109.876825,73.8549287 63.4435822,102.621518 57.3311451,120.786682 C51.8905621,109.783578 12.7604446,93.8814388 13.1441904,59.2223784 Z M96.6334102,0.0741191275 C83.0779782,0.0741191275 67.0467282,10.0849832 57.3442953,26.7223364 C54.7262164,20.7139052 45.3967701,14.1663171 34.3087878,14.1663171 C25.372651,14.1663171 0.291694631,25.334396 0.291694631,61.3790059 C0.291694631,107.897127 47.3549497,117.451321 56.8696938,131.908138 C57.5224203,132.903964 59.6288381,133.653523 60.4321938,131.278125 C68.0246225,108.873826 126.890751,83.5597525 126.890751,37.9657299 C126.890751,12.3958263 110.187647,0.0741191275 96.6334102,0.0741191275 L96.6334102,0.0741191275 Z" id="path-1"></path>
        <filter x="-50%" y="-50%" width="200%" height="200%" filterUnits="objectBoundingBox" id="filter-2">
            <feOffset dx="0" dy="0" in="SourceAlpha" result="shadowOffsetOuter1"></feOffset>
            <feGaussianBlur stdDeviation="5" in="shadowOffsetOuter1" result="shadowBlurOuter1"></feGaussianBlur>
            <feColorMatrix values="0 0 0 0 0   0 0 0 0 0   0 0 0 0 0  0 0 0 0.266191123 0" type="matrix" in="shadowBlurOuter1"></feColorMatrix>
        </filter>
    </defs>
    <g id="Page-1" stroke="none" stroke-width="1" fill="none" fill-rule="evenodd">
        <g id="Australia" transform="translate(9.695312, 10.246094)">
            <path d="M65.076594,30.1377936 L65.0789849,36.5586619 L65.0443163,38.7009438 L51.2175126,40.8097525 C51.717219,41.1169883 64.8422819,45.7303062 65.0837668,45.7841023 L65.0718121,46.984354 L65.0813758,49.1756502 C65.0216023,49.4410445 65.1232173,49.3059564 64.9032508,49.4099622 L58.0830956,50.3818792 C57.5774119,50.3974203 51.1816485,47.9957215 50.429698,47.7219589 C49.7052433,47.4589555 38.810927,43.4565227 38.3255663,43.4278314 C38.3124161,44.8970638 38.4965185,52.3795092 38.2598154,53.1756921 L36.220344,53.4614094 L29.7229656,54.3747483 L27.6834941,54.6628565 C27.4467911,53.93362 27.6308935,46.3997693 27.6177433,44.9341233 C26.9602349,45.1576762 23.2793834,47.658599 22.3564807,48.2479656 L11.8196099,54.9987836 C10.9074664,55.5821728 10.0670512,56.1201342 9.15610319,56.7059144 C7.75501258,57.6049077 8.1817953,57.3921141 6.67430789,57.6192534 C6.5511745,57.6383809 6.33120805,57.6778314 6.21763842,57.6850042 L5.88768876,57.6622903 C5.87214765,57.633599 5.83628356,57.6527265 5.81117869,57.6443582 C5.6605495,57.8714975 1.07950923,58.4022861 0.861933725,58.4273909 L14.2033767,88.667995 L56.9832634,124.312122 L112.53794,74.8376049 L112.377747,10.5022022 L88.7528733,6.10287332 L65.0622483,17.296057 L65.0825713,20.7449874 C65.0251888,21.0199455 63.6575713,21.7886326 63.3527265,21.9846896 C62.7705327,22.3588716 61.5284396,23.1466862 60.046057,24.0899119 C59.2403104,24.601573 58.4202181,26.9662122 57.5415478,27.5268876 C57.1661703,27.767177 56.7346057,26.1999161 56.3628146,26.4378146 C53.6239933,28.1891779 51.1326342,29.8030621 50.9832005,29.9776007 L65.0813758,27.9955117 L65.076594,30.1377936" id="Fill-1" fill="#002776"></path>
            <polyline id="Fill-2" fill="#E00034" points="6.12080537 38.4295721 5.7753146 44.8994547 29.5651636 41.5533347 29.7612206 41.5258389 29.7229656 54.3747483 36.220344 53.4614094 36.1964346 40.6208683 65.0789849 36.5586619 65.076594 30.1377936 36.1820889 34.2011955 36.1820889 21.357068 29.7612206 22.2608431 29.7612206 35.1049706 29.9285864 35.0810612 6.12080537 38.4295721"></polyline>
            <path d="M36.220344,53.4614094 L38.2598154,53.1756921 C38.4965185,52.3795092 38.3124161,44.8970638 38.3255663,43.4278314 C38.810927,43.4565227 49.7052433,47.4589555 50.429698,47.7219589 C51.1816485,47.9957215 57.5774119,50.3974203 58.0830956,50.3818792 L64.9032508,49.4099622 C64.6055789,49.1338087 60.048448,47.5916527 59.6635067,47.4529782 L45.1899539,42.2526846 C44.8157718,42.1175965 44.1032718,41.9251258 43.8653733,41.6860319 C45.0895344,41.4875839 46.3244547,41.3393456 47.5510067,41.1600252 C48.8755872,40.9675545 49.3382341,41.3536913 50.3567743,41.7183096 L60.1667995,45.24375 C60.9725461,45.5318582 61.7735109,45.8199664 62.5900168,46.114052 C63.3419673,46.3854237 64.3461619,46.8193792 65.0718121,46.984354 L65.0837668,45.7841023 C64.8422819,45.7303062 51.717219,41.1169883 51.2175126,40.8097525 L65.0443163,38.7009438 L65.0789849,36.5586619 L36.1964346,40.6208683 L36.220344,53.4614094" id="Fill-3" fill="#FEFEFE"></path>
            <path d="M9.12502097,31.7134228 L9.12502097,32.9065017 C10.0694421,33.1001678 14.784375,34.8850042 14.9601091,35.0451971 L9.42388842,35.823448 L9.42388842,37.9645344 L29.9285864,35.0810612 L29.7612206,35.1049706 L29.7612206,22.2608431 L27.6201342,22.5621015 L27.589052,32.3326762 L17.5231963,28.6948616 L10.3420092,29.7050336 C10.6600042,29.9369547 14.8859899,31.3834732 15.6403314,31.6536493 C17.3104027,32.2525797 21.8173238,33.7516988 22.1353188,34.0302433 C20.8920302,34.2298867 19.6379824,34.3817114 18.3923029,34.5622273 C17.4442953,34.6997064 17.5865562,34.7224203 16.8346057,34.4474622 L11.5936661,32.5634018 C10.9361577,32.3290898 9.78970218,31.825797 9.12502097,31.7134228" id="Fill-4" fill="#FEFEFE"></path>
            <path d="M4.63364094,47.24138 L14.725797,45.9419044 C14.7066695,45.9586409 14.6863465,45.9777685 14.6660235,45.9933096 C14.0360109,46.5133389 1.0173448,54.7381711 0.861933725,54.8158767 L0.861933725,58.4154362 C1.77407718,57.9456166 2.99943372,57.0645554 3.91994547,56.4751888 L19.178922,46.6986367 C19.8173029,46.2897861 21.7204908,44.9675965 22.2285654,44.7667576 C22.7426174,44.5623322 26.1317743,44.157068 26.8741611,44.0805579 C26.856229,44.1008809 26.8287332,44.1044673 26.817974,44.1391359 C26.8084102,44.1726091 26.7749371,44.1845638 26.7617869,44.1965185 L21.6774539,47.4816695 C19.8950084,48.6269295 18.1878775,49.714807 16.4090185,50.8564807 C12.8680369,53.1302643 9.39280621,55.4327391 5.81117869,57.6443582 C5.83628356,57.6527265 5.87214765,57.633599 5.88768876,57.6622903 L6.21763842,57.6850042 C6.33120805,57.6778314 6.5511745,57.6383809 6.67430789,57.6192534 C8.1817953,57.3921141 7.75501258,57.6049077 9.15610319,56.7059144 C10.0670512,56.1201342 10.9074664,55.5821728 11.8196099,54.9987836 L22.3564807,48.2479656 C23.2793834,47.658599 26.9602349,45.1576762 27.6177433,44.9341233 C27.6308935,46.3997693 27.4467911,53.93362 27.6834941,54.6628565 L29.7229656,54.3747483 L29.7612206,41.5258389 L29.5651636,41.5533347 L4.63364094,45.10388 L4.63364094,47.24138" id="Fill-5" fill="#FEFEFE"></path>
            <path d="M65.076594,30.1377936 L65.0813758,27.9955117 L50.9832005,29.9776007 C51.2868498,29.6213507 51.0178691,29.9082634 53.0477768,28.6040059 C53.3514262,28.4079488 54.7190436,27.6404572 54.7764262,27.3643037 L54.7572987,23.9153733 L54.6831795,23.9249371 C54.3257341,24.2847735 53.5235738,24.6948196 52.7871644,25.1670302 C50.7261745,26.4892198 48.7309354,27.7659815 46.6711409,29.0845847 C42.9436661,31.4731334 44.0195889,31.1228607 39.0033977,31.6536493 C39.6262374,31.0308096 52.3974413,23.2805789 52.9832215,22.6720847 L50.5994547,23.0068163 L38.3243708,30.8072567 L38.3243708,21.0558096 L36.1820889,21.357068 L36.1820889,34.2011955 L65.076594,30.1377936" id="Fill-6" fill="#FEFEFE"></path>
            <path d="M31.0846057,67.0395554 L25.5447987,65.7269295 C25.690646,66.1477349 26.8323196,67.5918624 27.1598784,68.0389681 C27.5197148,68.5303062 28.5777055,69.8273909 28.7665898,70.339052 C28.1975461,70.6725881 23.9871015,73.7425545 23.670302,74.1035864 L29.6117869,73.7879824 L28.8084312,79.7988045 C29.609396,79.1377097 30.2370176,78.1335151 30.8694211,77.4042785 L32.378104,75.6122693 C32.5669883,75.3887164 32.7582634,75.2380872 32.9268247,75.0013842 C33.5305369,75.2213507 36.3052223,78.1753565 37.1217282,78.632026 L36.319568,72.8423658 L42.2730076,71.4902894 C41.9597945,71.2189178 37.7433725,69.3276846 37.1767198,69.1555369 C37.4480914,68.3426174 40.1498532,64.382026 40.4080747,63.6635487 L34.8610948,66.5123532 C34.6076552,66.0568792 33.3057886,62.0006502 32.993771,61.1088297 C32.7833683,61.4399748 32.2119337,63.473469 32.0350042,64.0580537 C31.7911284,64.8649958 31.4026007,66.3724832 31.0846057,67.0395554" id="Fill-7" fill="#FEFEFE"></path>
            <polyline id="Fill-8" fill="#002776" points="27.6201342 22.5621015 15.2135487 27.8604237 27.589052 32.3326762 27.6201342 22.5621015"></polyline>
            <polyline id="Fill-9" fill="#002776" points="51.9324035 22.0839136 38.3243708 21.0558096 38.3243708 30.8072567 51.9324035 22.0839136"></polyline>
            <path d="M54.7572987,23.9153733 L49.9598784,24.5896183 C49.3740982,25.1981124 39.6262374,31.0308096 39.0033977,31.6536493 C44.0195889,31.1228607 42.9436661,31.4731334 46.6711409,29.0845847 C48.7309354,27.7659815 50.7261745,26.4892198 52.7871644,25.1670302 C53.5235738,24.6948196 54.3998532,24.2740143 54.7572987,23.9153733" id="Fill-10" fill="#E00034"></path>
            <path d="M0.861933725,58.4154362 L0.861933725,58.4273909 C1.07950923,58.4022861 5.6605495,57.8714975 5.81117869,57.6443582 C9.39280621,55.4327391 12.8680369,53.1302643 16.4090185,50.8564807 C18.1878775,49.714807 19.8950084,48.6269295 21.6774539,47.4816695 L26.7617869,44.1965185 C26.7749371,44.1845638 26.8084102,44.1726091 26.817974,44.1391359 C26.8287332,44.1044673 26.856229,44.1008809 26.8741611,44.0805579 C26.1317743,44.157068 22.7426174,44.5623322 22.2285654,44.7667576 C21.7204908,44.9675965 19.8173029,46.2897861 19.178922,46.6986367 L3.91994547,56.4751888 C2.99943372,57.0645554 1.77407718,57.9456166 0.861933725,58.4154362" id="Fill-11" fill="#E00034"></path>
            <path d="M1.70234899,54.6485109 C1.85895554,54.5696099 14.0360109,46.5133389 14.6660235,45.9933096 C14.6863465,45.9777685 14.7066695,45.9586409 14.725797,45.9419044 L3.7645344,47.3537542 L1.70234899,54.6485109" id="Fill-12" fill="#002776"></path>
            <path d="M10.8118289,32.2884438 C11.4777055,32.400818 12.6229656,32.9041107 13.280474,33.1384228 L16.8346057,34.4474622 C17.5865562,34.7224203 17.4442953,34.6997064 18.3923029,34.5622273 C19.6379824,34.3817114 20.8920302,34.2298867 22.1353188,34.0302433 C21.8173238,33.7516988 17.8722735,32.4044044 16.2022022,31.805474 C15.4478607,31.5341023 11.221875,30.0875839 10.9026846,29.8556628 L10.8118289,29.8688129 L10.8118289,32.2884438" id="Fill-13" fill="#E00034"></path>
            <path d="M64.9032508,49.4099622 C65.1232173,49.3059564 65.0216023,49.4410445 65.0813758,49.1756502 L65.0718121,46.984354 C64.3461619,46.8193792 63.3419673,46.3854237 62.5900168,46.114052 C61.7735109,45.8199664 60.9725461,45.5318582 60.1667995,45.24375 L50.3567743,41.7183096 C49.3382341,41.3536913 48.8755872,40.9675545 47.5510067,41.1600252 C46.3244547,41.3393456 45.0895344,41.4875839 43.8653733,41.6860319 C44.1032718,41.9251258 44.8157718,42.1175965 45.1899539,42.2526846 L59.6635067,47.4529782 C60.048448,47.5916527 64.6055789,49.1338087 64.9032508,49.4099622" id="Fill-14" fill="#E00034"></path>
            <path d="M110.231879,32.8467282 L107.619778,32.2525797 C107.928209,32.9830117 108.731565,33.6632341 109.084228,34.4008389 C108.647882,34.8838087 107.006502,35.8198616 106.742303,36.2263213 L109.501447,36.0816695 L109.15237,38.9029782 C109.461997,38.5993289 109.87802,38.1414639 110.15776,37.7911913 C110.472169,37.4002727 110.749518,36.8838297 111.193037,36.6459312 C111.497882,36.9495805 112.652706,38.1785235 113.085466,38.3291527 L112.725629,35.6465185 L115.494337,34.9925965 C115.289912,34.7044883 113.56724,34.1545721 113.16078,33.8270134 L114.650336,31.2973993 L112.014325,32.6100252 L111.152391,30.0971477 C110.971875,30.3434144 110.994589,30.3828649 110.898951,30.7092282 L110.231879,32.8467282" id="Fill-15" fill="#FEFEFE"></path>
            <path d="M79.9111787,41.3931418 L77.2919044,40.7954069 L78.7778733,42.9197567 L78.4933515,43.1899329 C77.9816904,43.6071518 76.7850252,44.3495386 76.4072567,44.7643666 L79.1711829,44.6244966 L78.8233012,47.4565646 C79.2739933,47.0811871 80.4288171,45.4924077 80.8388633,45.1983221 C81.3481334,45.5330537 82.235172,46.7022232 82.7540059,46.8612206 L82.3989513,44.1726091 L85.1700503,43.541401 C84.8819421,43.1767827 83.1987206,42.7284815 82.8341023,42.3614723 C83.2166527,41.5485529 84.0044673,40.6459732 84.2830117,39.8473993 L81.7318792,41.1349203 C81.4903943,40.8169253 80.9691695,39.1384857 80.8711409,38.6698616 C80.6607383,38.9005872 80.6487836,38.9926384 80.553146,39.3321518 L79.9111787,41.3931418" id="Fill-16" fill="#FEFEFE"></path>
            <path d="M93.9376258,62.5194841 C93.2944631,62.4513423 91.7845847,61.9157718 91.2836829,61.969568 C91.4450713,62.1213926 92.6405411,63.7998322 92.7804111,64.0771812 C92.5377307,64.3557257 91.4522441,65.0897441 91.0314388,65.3957844 C90.4982592,65.7831166 90.5855285,65.6826971 90.4994547,65.90625 L93.2119757,65.7520344 L92.8473574,68.5769295 L94.7529362,66.3425965 C95.0063758,66.40237 96.4612626,67.7580327 96.7613255,68.0305998 L96.4182257,65.313297 L99.1379195,64.6844799 C99.0649958,64.5159186 99.1283557,64.5661284 98.6645134,64.3557257 C98.2413171,64.1644505 97.1056208,63.7185403 96.8581586,63.5033557 C96.9956376,63.1901426 98.1958893,61.1697987 98.3536913,60.9761326 C97.8551804,61.0610109 96.3429111,62.0221686 95.711703,62.2660445 C95.5096686,61.7663381 95.0135487,60.0089975 94.7720638,59.7806628 L93.9376258,62.5194841" id="Fill-17" fill="#FEFEFE"></path>
            <path d="M95.6387794,21.7228817 L93.0135277,21.1442743 C93.3924916,21.8794883 94.2317114,22.6661074 94.4971057,23.3642617 L92.1707215,25.0199874 C92.4552433,25.1801804 93.1737206,25.0654153 93.533557,25.0450923 C93.9818582,25.0211829 94.4600461,24.9829279 94.9035654,24.9912961 L94.5389471,27.7875 C95.2574245,27.3009438 95.7045302,26.1066695 96.5592911,25.5746854 L98.4768247,27.235193 C98.4230285,26.6123532 98.0835151,24.9865143 98.167198,24.5095218 L100.873742,23.7671351 L98.5425755,22.7736997 C98.7936242,22.026531 99.6340394,20.998427 100.023763,20.1831166 L97.3805789,21.51487 L96.5317953,18.9685193 L95.6387794,21.7228817" id="Fill-18" fill="#FEFEFE"></path>
            <path d="M101.1487,46.192953 C101.525273,46.5934354 102.044107,46.8038381 102.448175,47.1899748 L102.062039,48.9712248 C102.476867,48.7799497 103.374664,47.9419253 103.601804,47.9048658 C103.828943,47.8678062 104.772169,48.4559773 105.147546,48.5456376 L104.755432,46.8707844 C105.06745,46.5468121 105.876783,45.8378985 106.075231,45.4816485 L104.364513,45.5928272 C104.010654,45.1923448 103.984354,44.4081166 103.549203,44.0913171 C102.785298,46.5097525 102.889304,45.6705327 101.1487,46.192953" id="Fill-19" fill="#FEFEFE"></path>
            <g id="Fill-20">
                <use fill="black" fill-opacity="1" filter="url(#filter-2)" xlink:href="#path-1"></use>
                <use fill="#FFFFFF" fill-rule="evenodd" xlink:href="#path-1"></use>
            </g>
        </g>
    </g>
</svg>