<?xml version="1.0" encoding="UTF-8"?>
<svg width="146px" height="151px" viewBox="0 0 146 151" version="1.1" xmlns="http://www.w3.org/2000/svg" xmlns:xlink="http://www.w3.org/1999/xlink">
    <!-- Generator: Sketch 42 (36781) - http://www.bohemiancoding.com/sketch -->
    <title>Finland</title>
    <desc>Created with Sketch.</desc>
    <defs>
        <path d="M0.477233514,50.9219866 C0.500628656,84.8620544 38.8619214,100.497449 44.221,111.332 C50.271,93.351 96.235,64.875 97.457,29.197 C97.905,16.09 92.73,0.682 77.788,0.682 C61.474,0.682 48.198,19.743 46.825,25.994 C45.453,32.245 41.182,29.197 40.421,25.385 C39.659,21.571 34.999,12.957 23.715,12.957 C15.635,12.957 0.798,21.881 0.48,50.39 C0.47826098,50.5470106 0.477341131,50.7036324 0.477233506,50.8598666 L0.477233514,50.9219875 L0.477233514,50.9219866 Z" id="path-1"></path>
        <path d="M13.48,59.39 C13.798,30.88 28.635,21.957 36.715,21.957 C47.999,21.957 52.659,30.571 53.421,34.385 C54.182,38.197 58.453,41.245 59.825,34.994 C61.198,28.743 74.474,9.682 90.788,9.682 C105.73,9.682 110.905,25.09 110.457,38.197 C109.235,73.875 63.271,102.351 57.221,120.332 C51.834,109.441 13.1,93.699 13.48,59.39 Z M96.125,0.84 C82.707,0.84 66.838,10.75 57.233,27.219 C54.641,21.271 45.407,14.79 34.43,14.79 C25.585,14.79 0.757,25.845 0.757,61.525 C0.757,107.573 47.345,117.031 56.763,131.342 C57.41,132.327 59.495,133.07 60.29,130.718 C67.805,108.539 126.077,83.482 126.077,38.349 C126.077,13.038 109.543,0.84 96.125,0.84 L96.125,0.84 Z" id="path-3"></path>
        <filter x="-50%" y="-50%" width="200%" height="200%" filterUnits="objectBoundingBox" id="filter-4">
            <feOffset dx="0" dy="0" in="SourceAlpha" result="shadowOffsetOuter1"></feOffset>
            <feGaussianBlur stdDeviation="5" in="shadowOffsetOuter1" result="shadowBlurOuter1"></feGaussianBlur>
            <feColorMatrix values="0 0 0 0 0   0 0 0 0 0   0 0 0 0 0  0 0 0 0.266191123 0" type="matrix" in="shadowBlurOuter1"></feColorMatrix>
        </filter>
    </defs>
    <g id="Page-1" stroke="none" stroke-width="1" fill="none" fill-rule="evenodd">
        <g id="Finland" transform="translate(9.718750, 9.429688)">
            <g id="Group-7" transform="translate(13.000000, 9.000000)">
                <mask id="mask-2" fill="white">
                    <use xlink:href="#path-1"></use>
                </mask>
                <g id="Clip-2"></g>
                <path d="M44.221,111.332 C42.195,107.237 35.454,102.455 27.852,96.26 L27.852,70.852 L6.536,73.1 C2.794,66.572 0.384,59.076 0.48,50.39 L0.48,50.364 L27.852,47.477 L27.852,13.378 C36.164,15.153 39.76,22.076 40.421,25.385 C40.866,27.614 42.511,29.582 44.075,29.582 C45.186,29.582 46.255,28.59 46.825,25.994 C47.243,24.09 48.767,20.996 51.144,17.615 L51.144,45.019 L95.653,40.324 C93.139,49.099 88.26,57.371 82.455,65.091 L51.144,68.394 L51.144,100.293 C47.827,104.318 45.34,108.005 44.221,111.332" id="Fill-1" fill="#1B498D" mask="url(#mask-2)"></path>
                <path d="M51.144,45.019 L51.144,17.615 C56.569,9.898 66.443,0.682 77.788,0.682 C92.73,0.682 97.905,16.09 97.457,29.197 C97.327,32.988 96.692,36.699 95.653,40.324 L51.144,45.019" id="Fill-3" fill="#FFFFFF" mask="url(#mask-2)"></path>
                <path d="M27.852,96.26 C20.354,90.149 12.018,82.663 6.536,73.1 L27.852,70.852 L27.852,96.26" id="Fill-4" fill="#FFFFFF" mask="url(#mask-2)"></path>
                <path d="M51.144,100.293 L51.144,68.394 L82.455,65.091 C72.269,78.636 59.235,90.473 51.144,100.293" id="Fill-5" fill="#FFFFFF" mask="url(#mask-2)"></path>
                <path d="M0.48,50.364 C0.807,21.875 15.638,12.957 23.715,12.957 C25.208,12.957 26.585,13.108 27.852,13.378 L27.852,47.477 L0.48,50.364" id="Fill-6" fill="#FFFFFF" mask="url(#mask-2)"></path>
            </g>
            <g id="Fill-31">
                <use fill="black" fill-opacity="1" filter="url(#filter-4)" xlink:href="#path-3"></use>
                <use fill="#FFFFFF" fill-rule="evenodd" xlink:href="#path-3"></use>
            </g>
        </g>
    </g>
</svg>