<?xml version="1.0" encoding="UTF-8"?>
<svg width="146px" height="151px" viewBox="0 0 146 151" version="1.1" xmlns="http://www.w3.org/2000/svg" xmlns:xlink="http://www.w3.org/1999/xlink">
    <!-- Generator: Sketch 42 (36781) - http://www.bohemiancoding.com/sketch -->
    <title>Israel</title>
    <desc>Created with Sketch.</desc>
    <defs>
        <path d="M0.48,50.39 C0.798,21.881 15.635,12.957 23.715,12.957 C34.999,12.957 39.659,21.571 40.421,25.385 C41.182,29.197 45.453,32.245 46.825,25.994 C48.198,19.743 61.474,0.682 77.788,0.682 C92.73,0.682 97.905,16.09 97.457,29.197 C96.235,64.875 50.271,93.351 44.221,111.332 C38.834,100.441 0.1,84.699 0.48,50.39 Z" id="path-1"></path>
        <path d="M13.48,59.39 C13.798,30.88 28.635,21.957 36.715,21.957 C47.999,21.957 52.659,30.571 53.421,34.385 C54.182,38.197 58.453,41.245 59.825,34.994 C61.198,28.743 74.474,9.682 90.788,9.682 C105.73,9.682 110.905,25.09 110.457,38.197 C109.235,73.875 63.271,102.351 57.221,120.332 C51.834,109.441 13.1,93.699 13.48,59.39 Z M96.125,0.84 C82.707,0.84 66.838,10.75 57.233,27.219 C54.641,21.271 45.407,14.79 34.43,14.79 C25.585,14.79 0.757,25.845 0.757,61.525 C0.757,107.573 47.345,117.031 56.763,131.342 C57.41,132.327 59.495,133.07 60.29,130.718 C67.805,108.539 126.077,83.482 126.077,38.349 C126.077,13.038 109.543,0.84 96.125,0.84 L96.125,0.84 Z" id="path-3"></path>
        <filter x="-50%" y="-50%" width="200%" height="200%" filterUnits="objectBoundingBox" id="filter-4">
            <feOffset dx="0" dy="0" in="SourceAlpha" result="shadowOffsetOuter1"></feOffset>
            <feGaussianBlur stdDeviation="5" in="shadowOffsetOuter1" result="shadowBlurOuter1"></feGaussianBlur>
            <feColorMatrix values="0 0 0 0 0   0 0 0 0 0   0 0 0 0 0  0 0 0 0.266191123 0" type="matrix" in="shadowBlurOuter1"></feColorMatrix>
        </filter>
    </defs>
    <g id="Page-1" stroke="none" stroke-width="1" fill="none" fill-rule="evenodd">
        <g id="Israel" transform="translate(9.835938, 9.246094)">
            <g id="Group-7" transform="translate(13.000000, 9.000000)">
                <mask id="mask-2" fill="white">
                    <use xlink:href="#path-1"></use>
                </mask>
                <g id="Clip-2"></g>
                <polyline id="Fill-1" fill="#FFFFFF" mask="url(#mask-2)" points="-19.448 7.46 109.983 -9.385 109.983 107.173 -19.448 124.018 -19.448 7.46"></polyline>
                <polyline id="Fill-3" fill="#2D72AC" mask="url(#mask-2)" points="-19.448 25.599 109.983 11.659 109.983 26.731 -19.448 40.671 -19.448 25.599"></polyline>
                <polyline id="Fill-4" fill="#2D72AC" mask="url(#mask-2)" points="-19.448 88.902 109.983 74.962 109.983 90.033 -19.448 103.975 -19.448 88.902"></polyline>
                <polyline id="Fill-5" fill="#FFFFFF" mask="url(#mask-2)" points="30.42 68.199 45.268 40.248 60.115 65.002 30.42 68.199"></polyline>
                <path d="M55.166,59.589 L57.717,63.841 L52.616,64.39 L55.166,59.589 Z M45.268,72.547 L42.716,68.295 L47.817,67.745 L45.268,72.547 Z M32.819,66.522 L35.37,61.721 L37.92,65.973 L32.819,66.522 Z M32.819,51.792 L37.92,51.243 L35.37,56.044 L32.819,51.792 Z M45.268,43.087 L47.817,47.338 L42.716,47.888 L45.268,43.087 Z M53.565,56.922 L49.417,64.734 L41.118,65.628 L36.969,58.71 L41.118,50.898 L49.417,50.004 L53.565,56.922 Z M57.717,49.11 L55.166,53.912 L52.616,49.66 L57.717,49.11 Z M56.766,56.578 L62.513,45.755 L51.016,46.994 L45.268,37.409 L39.519,48.232 L28.022,49.471 L33.769,59.055 L28.022,69.878 L39.519,68.639 L45.268,78.224 L51.016,67.401 L62.513,66.162 L56.766,56.578 L56.766,56.578 Z" id="Fill-6" fill="#2D72AC" mask="url(#mask-2)"></path>
            </g>
            <g id="Fill-31">
                <use fill="black" fill-opacity="1" filter="url(#filter-4)" xlink:href="#path-3"></use>
                <use fill="#FFFFFF" fill-rule="evenodd" xlink:href="#path-3"></use>
            </g>
        </g>
    </g>
</svg>