<?xml version="1.0" encoding="UTF-8"?>
<svg width="147px" height="152px" viewBox="0 0 147 152" version="1.1" xmlns="http://www.w3.org/2000/svg" xmlns:xlink="http://www.w3.org/1999/xlink">
    <!-- Generator: Sketch 42 (36781) - http://www.bohemiancoding.com/sketch -->
    <title>Croatia</title>
    <desc>Created with Sketch.</desc>
    <defs>
        <path d="M13.5248053,59.0955487 C13.8461239,30.3569558 28.8021504,21.3612124 36.9469292,21.3612124 C48.3213717,21.3612124 53.0187434,30.0450531 53.7873186,33.8902832 C54.5547168,37.7319823 58.8601504,40.8039292 60.243115,34.5034956 C61.6272566,28.201885 75.009646,8.98750442 91.4545664,8.98750442 C106.517699,8.98750442 111.734124,24.5202566 111.282159,37.7319823 C110.04985,73.6973009 63.7164159,102.401761 57.6172478,120.527425 C52.1877876,109.548451 13.1422832,93.6814336 13.5248053,59.0955487 Z M96.8345929,0.0741504425 C83.3086106,0.0741504425 67.3121239,10.0644513 57.6301947,26.6659115 C55.0172743,20.6703186 45.7096283,14.1368407 34.6435575,14.1368407 C25.7278496,14.1368407 0.700309735,25.2805929 0.700309735,61.2482655 C0.700309735,107.666442 47.6622566,117.200071 57.1558673,131.626451 C57.8079204,132.618655 59.9100265,133.368398 60.7115575,130.996761 C68.2866726,108.640991 127.027947,83.3804071 127.027947,37.8849912 C127.027947,12.370177 110.360575,0.0741504425 96.8345929,0.0741504425 L96.8345929,0.0741504425 Z" id="path-1"></path>
        <filter x="-50%" y="-50%" width="200%" height="200%" filterUnits="objectBoundingBox" id="filter-2">
            <feOffset dx="0" dy="0" in="SourceAlpha" result="shadowOffsetOuter1"></feOffset>
            <feGaussianBlur stdDeviation="5" in="shadowOffsetOuter1" result="shadowBlurOuter1"></feGaussianBlur>
            <feColorMatrix values="0 0 0 0 0   0 0 0 0 0   0 0 0 0 0  0 0 0 0.266191123 0" type="matrix" in="shadowBlurOuter1"></feColorMatrix>
        </filter>
    </defs>
    <g id="Page-1" stroke="none" stroke-width="1" fill="none" fill-rule="evenodd">
        <g id="Croatia" transform="translate(9.894531, 9.839844)">
            <polygon id="Fill-1" fill="#DC3D33" points="107.726469 6.0520885 84.3337699 5.2799823 69.9650619 15.5139204 58.2928407 29.3341504 43.2862035 18.6305929 18.5693894 25.2511681 6.65235398 46.2169115 14.3757699 91.6781947 58.0727434 124.781071 110.595973 70.492354 118.760761 23.7069558"></polygon>
            <polygon id="Stroke-2" stroke="#1A1918" stroke-width="0.567" points="107.726469 6.0520885 84.3337699 5.2799823 69.9650619 15.5139204 58.2928407 29.3341504 43.2862035 18.6305929 18.5693894 25.2511681 6.65235398 46.2169115 14.3757699 91.6781947 58.0727434 124.781071 110.595973 70.492354 118.760761 23.7069558"></polygon>
            <polyline id="Fill-3" fill="#1A5193" points="11.8228761 67.9218053 12.5161239 91.5581416 56.2119204 124.661018 111.737655 63.0325841 112.605097 58.0621504 11.8228761 67.9218053"></polyline>
            <polyline id="Fill-4" fill="#FFFFFF" points="8.66500885 60.0677434 14.3757699 90.3434867 98.9602389 82.5188496 112.602743 58.9884425 113.599655 53.2765044 8.66500885 60.0677434"></polyline>
            <g id="Fill-21">
                <use fill="black" fill-opacity="1" filter="url(#filter-2)" xlink:href="#path-1"></use>
                <use fill="#FFFFFF" fill-rule="evenodd" xlink:href="#path-1"></use>
            </g>
            <path d="M38.5605841,49.2947434 L38.5605841,49.3759558 L42.0762566,57.0923097 C42.1245133,57.2041239 42.2834071,57.4713009 42.2716372,57.587823 L41.8184956,57.6160708 L41.8184956,76.1289646 C41.8184956,78.0439292 42.1150973,79.7717522 42.689469,81.3430354 C43.088469,82.4352832 43.5745664,83.4451416 44.1854248,84.3737876 L44.6515133,85.0493805 C45.1023009,85.6696549 45.4036106,85.9627257 45.8379204,86.4664779 L46.4016991,87.0384956 C46.4676106,87.111469 46.5217522,87.118531 46.6041416,87.1926814 C46.7394956,87.3139115 46.8454248,87.4186637 46.9913717,87.5504867 C47.4080265,87.9224159 48.2695841,88.5038496 48.7203717,88.7898584 C50.2551681,89.7655841 52.2419292,90.4847257 54.0945133,90.7730885 C54.525292,90.840177 54.9560708,90.8931416 55.3986195,90.9225664 C55.5351504,90.9319823 56.7521593,90.9649381 56.7580442,90.967292 L58.2716549,90.8696018 C58.2798938,90.8648938 59.4721858,90.6789292 59.6334336,90.6436195 C62.6500619,89.9821504 64.8274956,88.8887257 67.1967788,86.9266814 C67.3686195,86.7842655 67.4721947,86.6971681 67.6204956,86.5523982 C68.0583363,86.1239735 68.3902478,85.8462035 68.8222035,85.3648142 C68.9010619,85.2788938 68.9104779,85.2365221 68.9881593,85.1494248 C69.0552478,85.0740973 69.1093894,85.0187788 69.1858938,84.9340354 C69.7296637,84.327885 70.4158496,83.3086106 70.8336814,82.6224248 C72.4190885,80.0236283 73.1876637,77.1105752 73.1876637,74.0551062 L73.1876637,57.1029027 C73.1876637,56.7674602 73.2288584,55.8388142 73.1711858,55.5751681 L72.7098053,55.6057699 L75.5016283,49.074646 C75.6652301,48.7144867 75.8170619,48.3472655 75.9630088,47.9965221 C76.0453982,47.7987876 76.3631858,47.0149115 76.4455752,46.9101593 L76.4455752,46.8289469 C76.347885,46.7383186 76.1772212,46.4252389 76.078354,46.278115 L74.9943451,44.5961947 C74.8201504,44.3372566 73.687885,42.5376372 73.547823,42.3775664 C73.3736283,42.424646 73.1323451,42.5505841 72.9569735,42.6270885 L70.0545133,43.888823 C69.8473628,43.9806283 69.0493628,44.3466726 68.8822301,44.3866903 C68.7727699,44.2277965 68.628,44.0794956 68.4761681,43.9253097 C68.3773009,43.8240885 68.3537611,43.7887788 68.2725487,43.7110973 L67.0661327,42.4069912 C66.8731062,42.158646 66.3034425,41.6125221 66.0527434,41.3288673 L65.6690442,40.8792566 C65.4972035,40.9345752 63.6799292,42.1221593 63.4833717,42.2469204 L61.3412478,43.6028142 L59.9135575,42.5341062 C59.5392743,42.2269115 57.6513805,40.8863186 57.5489823,40.7380177 L57.457177,40.7439027 C57.4006814,40.833354 56.0718584,41.9832743 55.8093894,42.2245575 L53.9097257,43.9017699 C53.8461681,43.9582655 53.736708,44.0547788 53.6649115,44.1030354 C53.5071947,44.0583097 53.2706195,43.9029469 53.1105487,43.8311504 C52.938708,43.754646 52.7598053,43.6534248 52.5820796,43.5604425 L50.4258319,42.4670177 C50.2398673,42.3799204 50.0892124,42.296354 49.8985398,42.1974867 C49.7643628,42.1280442 49.4854159,41.9703274 49.337115,41.9420796 L46.1239292,45.8685221 C45.9638584,45.8508673 45.6766726,45.748469 45.5118938,45.6978584 L41.4583363,44.4667257 C41.1782124,44.822177 38.700646,49.1464425 38.5605841,49.2947434" id="Fill-27" fill="#DC3D33"></path>
            <path d="M57.4877788,90.6683363 C64.6791947,90.1998938 70.0568673,85.0223097 71.9459381,79.6246283 C72.5379646,77.9309381 72.8686991,76.2807965 72.886354,74.352885 C72.9028319,72.3096283 72.886354,70.2616637 72.886354,68.2184071 L72.886354,55.9094336 L42.1292212,57.9126726 L42.1292212,70.1898673 C42.1292212,72.2331239 42.1139204,74.2822655 42.1292212,76.3243451 C42.1927788,84.8798938 49.1382035,91.2109292 57.4877788,90.6683363" id="Fill-28" fill="#FFFFFF"></path>
            <path d="M42.7012389,64.9534336 L48.6203274,64.5720885 L48.6203274,71.0749646 L42.7094779,71.4598407 C42.6729912,71.7529115 42.7012389,74.2316549 42.7012389,74.746 C42.7012389,75.1861947 42.6612212,77.7461504 42.830708,77.9262301 C42.9036814,77.9909646 44.0524248,77.8744425 44.2325044,77.8626726 L48.6203274,77.5778407 L48.6203274,84.0783628 L45.2553097,84.2972832 C45.354177,84.5609292 46.4452478,85.8108938 46.7877522,86.1345664 C46.9666549,86.3040531 47.083177,86.3793805 47.2220619,86.5347434 C47.3644779,86.6924602 47.5221947,86.7783805 47.6716726,86.9184425 C47.7599469,87.0008319 48.5167522,87.5999204 48.6156195,87.6211062 L48.6203274,84.0795398 L54.5441239,83.6934867 L54.5382389,89.9268319 C55.3892035,90.0916106 56.5744336,90.0951416 57.4877788,90.0339381 C58.1621947,89.9880354 59.9029646,89.7903009 60.4549735,89.5337168 L60.4573274,83.3086106 L66.3811239,82.9237345 L66.3752389,86.4570619 C66.629469,86.3629027 67.8982655,85.0858673 68.2066372,84.7280619 C68.491469,84.3973274 69.6049027,83.0696814 69.7390796,82.7130531 L66.3752389,82.9249115 L66.3752389,76.4220354 L72.1695664,76.0442212 C72.349646,75.4792655 72.2872655,72.1601504 72.2872655,71.1867788 C72.2872655,70.8172035 72.3343451,69.829708 72.2731416,69.5366372 L66.3764159,69.9191593 L66.3752389,63.4162832 L72.2696106,63.0325841 C72.3072743,62.904292 72.3190442,56.7192035 72.2719646,56.5320619 L66.3858319,56.9134071 L66.3752389,63.4162832 L60.4467345,63.8023363 L60.4573274,57.3100531 L54.5488319,57.6843363 L54.5382389,64.1872124 L48.6179735,64.5720885 L48.6203274,58.0809823 L42.7118319,58.4552655 L42.7012389,64.9534336" id="Fill-29" fill="#DC3D33"></path>
            <path d="M53.7013982,44.283115 C53.5778142,44.2560442 52.8151239,43.8452743 52.6326903,43.754646 C52.2301593,43.5533805 49.5336726,42.1492301 49.3688938,42.1245133 C49.3135752,42.2151416 49.2547257,42.296354 49.1805752,42.3763894 L46.1439381,46.0309469 L41.5230708,44.6315044 L38.7489027,49.2712035 C38.6947611,49.3994956 39.3315133,50.676531 39.4233186,50.8872124 C39.897646,51.9747522 40.4166991,53.0363982 40.8945575,54.128646 C41.1334867,54.6759469 41.3794779,55.2126549 41.629,55.7505398 C41.757292,56.0271327 41.8691062,56.2837168 41.9973982,56.5603097 C42.1139204,56.8086549 42.2410354,57.1641062 42.3834513,57.3877345 L43.9794513,56.6238673 C51.9841681,52.9128142 61.182354,52.0665575 69.3377257,54.3510973 C70.1522035,54.5794336 71.0314159,54.8442566 71.814115,55.1349735 C72.0542212,55.2244248 72.4014336,55.3774336 72.6368319,55.4268673 L74.0986549,51.9853451 C74.5882832,50.8377788 75.0790885,49.7066903 75.5722478,48.5532389 C75.6581681,48.3519735 76.2960973,46.943115 76.2654956,46.8466018 C76.2325398,46.7465575 75.8912124,46.2663451 75.808823,46.1345221 L74.4305664,43.9959292 C74.2940354,43.7770088 73.5949027,42.6694602 73.4866195,42.56 L68.8657522,44.560885 C68.7221593,44.4431858 68.5820973,44.2466283 68.4620442,44.1265752 C67.8594248,43.5251327 67.0743717,42.6176726 66.4435044,41.9609115 C66.3081504,41.8208496 66.1904513,41.6690177 66.0421504,41.5254248 L65.6384425,41.0640442 C65.4819027,41.1099469 62.3287434,43.1437876 61.8650088,43.4462743 C61.709646,43.5474956 61.4613009,43.7228673 61.3047611,43.7876018 L57.5183805,40.9263363 C57.3630177,40.9934248 56.7427434,41.5925133 56.5544248,41.7490531 C56.388469,41.8879381 56.2436991,42.024469 56.0812743,42.1692389 C55.9141416,42.3175398 55.7846726,42.432885 55.6081239,42.5906018 C55.3174071,42.8471858 53.9250265,44.0477168 53.7013982,44.283115" id="Fill-30" fill="#FFFFFF"></path>
            <path d="M53.7190531,44.6797611 L53.8850088,46.688885 L54.0909823,49.0393363 L54.2522301,51.0837699 L54.4170088,53.2094159 C56.389646,52.8657345 58.6212212,52.7833451 60.6020973,52.805708 L61.3200619,44.1665929 C61.2023628,44.1336372 60.5055841,43.5886903 60.3596372,43.4780531 C60.0336106,43.2320619 59.7299469,43.0119646 59.4109823,42.7624425 C59.1002566,42.5199823 58.7789381,42.2822301 58.4599735,42.0480088 C58.1398319,41.8126106 57.8220442,41.5772124 57.5230885,41.3300442 C57.4065664,41.3794779 56.7274425,42.0126991 56.5638407,42.158646 L53.7190531,44.6797611" id="Fill-31" fill="#1585BB"></path>
            <path d="M48.416708,54.5900265 C48.3425575,54.5641327 48.3790442,54.6700619 48.3072478,54.3699292 C48.2248584,54.0333097 47.8941239,52.6962478 47.8293894,52.5691327 L47.3032743,50.4929204 L46.7689204,48.4331858 L46.2592832,46.4016991 L46.2639912,46.3769823 C46.1098053,46.4581947 42.2139646,45.1199558 41.6419469,45.0163805 C41.3900708,45.4224425 39.0855221,49.2511947 39.096115,49.3583009 C39.105531,49.4465752 39.7046195,50.7212566 39.7881858,50.9001593 C40.2601593,51.9194336 40.703885,52.928115 41.1735044,53.9544513 C41.4065487,54.4629115 41.633708,54.9619558 41.8620442,55.4704159 C41.9750354,55.721115 42.4517168,56.8580885 42.5682389,56.9875575 C43.0143186,56.793354 43.492177,56.5344159 43.9547345,56.3237345 C45.1493805,55.7799646 46.4040531,55.2691504 47.6516637,54.8489646 C47.8529292,54.7818761 48.2448673,54.6747699 48.416708,54.5900265" id="Fill-32" fill="#1585BB"></path>
            <path d="M61.3200619,44.1665929 L60.6020973,52.805708 C61.6555044,52.8233628 62.6712478,52.8904513 63.6999381,52.9928496 C64.1872124,53.0411062 64.6686018,53.1023097 65.1476372,53.1717522 C65.6149027,53.2400177 66.1457257,53.3659558 66.5929823,53.4047965 L66.6647788,53.4000885 L67.1944248,51.2767965 C67.2156106,51.1755752 67.2391504,51.0873009 67.2626903,50.9884336 C67.2721062,50.9472389 67.2791681,50.9107522 67.293292,50.8636726 C67.3168319,50.7812832 67.3121239,50.7848142 67.3497876,50.7236106 L67.8664867,48.6085575 L68.0006637,48.0400708 L68.766885,44.9328142 C68.6150531,44.822177 65.6596283,41.5513186 65.5336903,41.4818761 L61.3200619,44.1665929" id="Fill-33" fill="#1A5193"></path>
            <path d="M42.4646637,57.5701681 L72.5615044,55.6151858 C72.5014779,55.5716372 72.5626814,55.6081239 72.4638142,55.5539823 C72.1307257,55.3703717 69.5919558,54.5959115 69.2800531,54.5052832 C68.1407257,54.1745487 66.9519646,53.9332655 65.7290708,53.727292 C60.4361416,52.8327788 54.6465221,53.1835221 49.3029823,54.790115 C46.5758938,55.6093009 45.083469,56.256646 42.6718142,57.4371681 C42.6423894,57.451292 42.5894248,57.4736549 42.562354,57.4901327 L42.4646637,57.5701681" id="Fill-34" fill="#DC3D33"></path>
            <polyline id="Fill-35" fill="#FFFFFF" points="48.6203274 77.5778407 54.535885 77.1917876 54.5382389 70.6912655 48.6097345 71.0773186 48.6203274 77.5778407"></polyline>
            <polyline id="Fill-36" fill="#FFFFFF" points="54.5394159 70.6900885 60.4573274 70.3052124 60.4573274 63.8023363 54.5394159 64.1872124 54.5394159 70.6900885"></polyline>
            <polyline id="Fill-37" fill="#FFFFFF" points="54.5394159 83.6934867 60.4573274 83.3074336 60.4573274 76.8069115 54.5394159 77.1917876 54.5394159 83.6934867"></polyline>
            <polyline id="Fill-38" fill="#FFFFFF" points="60.4573274 76.8069115 66.369354 76.4220354 66.3752389 69.9203363 60.4620354 70.3052124 60.4573274 76.8069115"></polyline>
            <path d="M68.766885,44.9328142 L68.0006637,48.0400708 C68.5562035,48.1118673 69.1964867,48.281354 69.7390796,48.406115 C70.3205133,48.540292 70.8819381,48.6897699 71.4386549,48.8463097 L73.8479558,49.610177 C74.0739381,49.6902124 74.4505752,49.8573451 74.6671416,49.8961858 C74.7283451,49.6690265 75.3403805,48.3131327 75.4898584,47.9529735 C75.5734248,47.751708 75.8688496,47.1490885 75.9041593,46.9843097 C75.940646,46.819531 73.5654779,43.2579558 73.3642124,42.9519381 L68.766885,44.9328142" id="Fill-39" fill="#1585BB"></path>
            <path d="M46.2592832,46.4016991 L46.7689204,48.4331858 L48.4461327,47.9506195 C50.1162832,47.482177 52.1924956,47.0255044 53.8826549,46.7983451 L53.8850088,46.688885 L53.7190531,44.6797611 L53.7061062,44.6797611 C52.4326018,44.8410088 51.067292,45.1329027 49.8314513,45.4177345 C49.2217699,45.5589735 48.6132655,45.7190442 48.0200619,45.881469 C47.4515752,46.0380088 46.8089381,46.2745841 46.2592832,46.4016991" id="Fill-40" fill="#DC3D33"></path>
            <path d="M46.7689204,48.4331858 L47.3032743,50.4929204 L48.8886814,50.0256549 C50.4929204,49.5736903 52.3949381,49.1723363 54.0356637,48.9345841 L54.0662655,48.9781327 C54.0674425,48.9804867 54.0909823,49.0393363 54.0909823,49.0393363 L53.8850088,46.688885 L53.8826549,46.7983451 C52.1924956,47.0255044 50.1162832,47.482177 48.4461327,47.9506195 L46.7689204,48.4331858" id="Fill-41" fill="#1A5193"></path>
            <path d="M47.3032743,50.4929204 L47.8293894,52.5691327 C48.2943009,52.4702655 48.8945664,52.2536991 49.3783097,52.1171681 C49.8855929,51.9723982 50.405823,51.8405752 50.9319381,51.7193451 C52.0406637,51.4615841 53.1176106,51.2673805 54.2522301,51.0837699 L54.0909823,49.0393363 C54.0909823,49.0393363 54.0674425,48.9804867 54.0662655,48.9781327 L54.0356637,48.9345841 C52.3949381,49.1723363 50.4929204,49.5736903 48.8886814,50.0256549 L47.3032743,50.4929204" id="Fill-42" fill="#DC3D33"></path>
            <path d="M67.3497876,50.7236106 C67.8676637,50.7836372 68.4761681,50.9507699 68.9787434,51.0649381 C70.2004602,51.342708 71.6399204,51.7781947 72.8122035,52.1913186 C73.0523097,52.2760619 73.3124248,52.3878761 73.547823,52.4502566 L74.4164425,50.4611416 C74.1739823,50.271646 71.7187788,49.5360265 71.2609292,49.4042035 C70.7253982,49.2488407 70.1710354,49.1040708 69.6107876,48.9734248 C69.0929115,48.8521947 68.3984867,48.6674071 67.8664867,48.6085575 L67.3497876,50.7236106" id="Fill-43" fill="#DC3D33"></path>
            <path d="M66.5929823,53.4047965 L68.1195398,53.7390619 C68.6209381,53.8567611 69.1270442,53.9779912 69.6107876,54.1215841 C70.3169823,54.3299115 71.0667257,54.5500088 71.7517345,54.799531 C71.9624159,54.8760354 72.2472478,54.9984425 72.4379204,55.0408142 L73.3006549,53.0599381 C73.1182212,52.8880973 70.8089646,52.1983805 70.353469,52.0665575 C69.5048584,51.8205664 68.2843186,51.5227876 67.3721504,51.3591858 C67.3391947,51.3533009 67.302708,51.3497699 67.2768142,51.339177 C67.2038407,51.3109292 67.2238496,51.334469 67.1944248,51.2767965 L66.6647788,53.4000885 L66.5929823,53.4047965" id="Fill-44" fill="#1585BB"></path>
            <path d="M47.8293894,52.5691327 C47.8941239,52.6962478 48.2248584,54.0333097 48.3072478,54.3699292 C48.3790442,54.6700619 48.3425575,54.5641327 48.416708,54.5900265 C48.8663186,54.4840973 49.3747788,54.3051947 49.8302743,54.1769027 C50.3257876,54.0380177 50.809531,53.9144336 51.3121062,53.7990885 C52.2996018,53.5707522 53.3942035,53.334177 54.4170088,53.2094159 L54.2522301,51.0837699 C53.1176106,51.2673805 52.0406637,51.4615841 50.9319381,51.7193451 C50.405823,51.8405752 49.8855929,51.9723982 49.3783097,52.1171681 C48.8945664,52.2536991 48.2943009,52.4702655 47.8293894,52.5691327" id="Fill-45" fill="#1A5193"></path>
            <path d="M46.2639912,46.3769823 L46.2592832,46.4016991 C46.8089381,46.2745841 47.4515752,46.0380088 48.0200619,45.881469 C48.6132655,45.7190442 49.2217699,45.5589735 49.8314513,45.4177345 C51.067292,45.1329027 52.4326018,44.8410088 53.7061062,44.6797611 L49.477177,42.5199823 C49.3641858,42.6059027 49.1911681,42.8483628 49.072292,42.9837168 L47.0737611,45.4000796 C46.9395841,45.5754513 46.817177,45.7049204 46.6700531,45.886177 C46.5405841,46.0427168 46.415823,46.2216195 46.2639912,46.3769823" id="Fill-46" fill="#1A5193"></path>
            <path d="M62.2204602,46.6535752 C62.1604336,46.7912832 62.1427788,46.7371416 62.0709823,46.8536637 C62.0756903,46.8607257 62.0862832,46.8583717 62.0898142,46.8677876 L62.2098673,46.9643009 C62.2687168,47.0290354 62.239292,47.0196195 62.3275664,47.080823 C62.4287876,47.0431593 62.381708,47.0973009 62.4217257,46.953708 C62.5017611,47.078469 62.5205929,47.0443363 62.7171504,46.9113363 L62.5441327,47.1985221 C62.4487965,47.3868407 62.5288319,47.1949912 62.5288319,47.3939027 L62.5288319,47.4162655 L62.5429558,47.486885 C62.6606549,47.4139115 62.7124425,47.3232832 62.7913009,47.2350088 C62.7018496,47.4692301 62.6630088,47.2820885 62.6300531,47.5398496 C62.6171062,47.6351858 62.5865044,47.612823 62.6241681,47.7010973 C62.6253451,47.7034513 62.6300531,47.7105133 62.6312301,47.7128673 C62.6889027,47.8729381 62.5335398,47.8082035 62.4735133,48.0271239 C62.4076018,48.2660531 62.3664071,48.1801327 62.2981416,48.3496195 C62.4240796,48.4449558 62.3899469,48.2931239 62.4393805,48.5049823 L62.508823,48.4579027 C62.5523717,48.4237699 62.5182389,48.4520177 62.5594336,48.408469 C62.4217257,48.4779115 62.4735133,48.6662301 62.4946991,48.7815752 L62.5923894,49.0087345 C62.6300531,49.0593451 62.5900354,49.1664513 62.5935664,49.213531 C62.5982743,49.2817965 62.6276991,49.2358938 62.6253451,49.3759558 C62.6218142,49.5642743 62.4499735,49.7490619 62.3970088,49.9350265 C62.3346283,50.1574779 62.2028053,50.2022035 61.9968319,50.3151947 C62.2181062,50.4305398 61.9850619,50.3669823 62.1427788,50.4517257 C62.245177,50.4882124 62.3840619,50.4740885 62.4817522,50.4317168 C62.5570796,50.270469 62.4393805,50.3199027 62.5794425,50.1256991 C62.6512389,50.0280088 62.6135752,50.1586549 62.6347611,49.9915221 C62.6571239,49.8338053 62.6559469,49.8408673 62.7465752,49.6937434 C62.8124867,49.5866372 62.8383805,49.4430442 62.9384248,49.3524159 L62.9960973,49.3053363 C62.9996283,49.3018053 63.0102212,49.2959204 63.0161062,49.2888584 C62.9996283,49.1758673 62.9819735,49.1087788 63.036115,49.0169735 C63.0161062,49.344177 63.0867257,49.2853274 63.1208584,49.5383805 C63.1467522,49.738469 63.0502389,49.8596991 63.0278761,50.0527257 C62.9807965,50.4599646 62.7100885,50.6506372 62.5476637,50.8295398 C62.6641858,50.8966283 62.6041593,50.8366018 62.7242124,50.7895221 C62.644177,50.9907876 62.8324956,50.9896106 62.9584336,50.8801504 C63.0302301,50.8189469 63.0078673,50.8377788 63.0278761,50.7365575 C63.0690708,50.538823 63.0820177,50.6023805 63.1467522,50.4646726 C63.1903009,50.3705133 63.1903009,50.279885 63.2432655,50.1574779 C63.2773982,50.0786195 63.3409558,49.9644513 63.3633186,49.8985398 C63.3986283,49.7937876 63.3927434,49.6843274 63.4892566,49.6172389 C63.6210796,49.5242566 63.8294071,49.5548584 63.9082655,49.5525044 C63.9906549,49.5489735 63.976531,49.5313186 64.0271416,49.473646 C64.109531,49.6596106 64.100115,49.5901681 64.3060885,49.4983628 C64.3049115,49.8891239 64.377885,49.8985398 64.1248319,50.2445752 L63.7223009,50.6094425 C63.6681593,50.6518142 63.6163717,50.6647611 63.5634071,50.6977168 L63.7740885,50.6624071 C63.6658053,50.8201239 63.6846372,50.6353363 63.6293186,50.7906991 C63.7434867,50.8636726 63.9223894,50.8589646 64.0424425,50.7848142 C64.0436195,50.6494602 63.9553451,50.675354 63.9435752,50.6376903 L64.2083982,50.6082655 C64.243708,50.3304956 64.3508142,50.2328053 64.5344248,50.0727345 C64.6521239,49.9703363 64.6097522,50.0915664 64.633292,49.8867699 C64.5485487,50.0621416 64.6568319,49.9797522 64.7192124,49.9938761 C64.8039558,49.7808407 64.8439735,49.8596991 65.039354,49.6278319 L65.2382655,49.7784867 C65.2806372,49.8043805 65.4242301,49.8997168 65.4195221,49.9503274 C65.3889204,50.1621858 65.1994248,50.412885 65.0617168,50.5023363 C64.8769292,50.6235664 64.9393097,50.5576549 64.8322035,50.7542124 C64.7356903,50.9319381 64.7145044,50.8542566 64.5603186,50.9460619 C64.6203451,51.0237434 64.6121062,50.9896106 64.7309823,50.936646 C64.7003805,51.0920088 64.6839027,50.9919646 64.6521239,51.1120177 C64.7827699,51.1649823 64.8910531,51.1567434 65.0240531,51.0814159 C65.0581858,51.0625841 65.1393982,51.0060885 65.1523451,50.9554779 C65.1864779,50.8260088 65.1535221,50.8930973 65.1040885,50.8483717 L65.0640708,50.8201239 C65.1841239,50.7648053 65.2700442,50.7247876 65.3371327,50.6059115 C65.3877434,50.5176372 65.6302035,50.1480619 65.7114159,50.0939204 L66.0586283,49.8314513 C66.0503894,49.5266106 66.0374425,49.745531 66.1115929,49.5383805 C66.1833894,49.338292 66.1174779,49.4348053 66.2493009,49.339469 C66.2504779,49.211177 66.2822566,49.1982301 66.1657345,49.1605664 C66.238708,49.1464425 66.2151681,49.1523274 66.2740177,49.077 C66.230469,48.9557699 66.1951593,49.0099115 66.1857434,48.9334071 L66.1857434,48.9157522 C66.1857434,48.9063363 66.1892743,48.8792655 66.1892743,48.8674956 C66.1880973,48.7874602 66.1892743,48.7886372 66.1716195,48.7062478 C66.2834336,48.6933009 66.2622478,48.7097788 66.3328673,48.6415133 L66.2469469,48.417885 C66.367,48.4696726 66.4176106,48.3649204 66.5105929,48.3131327 L66.6483009,48.2578142 C66.6471239,48.1189292 66.637708,48.009469 66.769531,47.9353186 C66.8884071,47.8694071 66.9931593,47.878823 66.9755044,47.6834425 C66.7989558,47.6704956 66.8695752,47.6822655 66.7483451,47.7375841 C66.5694425,47.8187965 66.4705752,47.750531 66.2751947,47.7799558 C66.1704425,47.7952566 66.1374867,47.8352743 66.0492124,47.8541062 C65.8220531,47.9047168 65.7526106,47.7105133 65.5536991,47.6975664 C65.5478142,47.6963894 65.5395752,47.6963894 65.5348673,47.6963894 L65.5007345,47.6952124 C65.2876991,47.6834425 64.9381327,47.8493982 64.8051327,47.7799558 C64.6638938,47.7058053 64.6238761,47.618708 64.4237876,47.617531 C64.3366903,47.617531 64.241354,47.6340088 64.1601416,47.6316549 C64.0542124,47.6281239 63.9565221,47.5775133 63.8976726,47.5092478 L63.7152389,47.2408938 C63.6293186,47.2667876 63.6234336,47.1761593 63.6410885,47.3197522 C63.6340265,47.1549735 63.5575221,47.1479115 63.444531,46.9725398 C63.3644956,46.8466018 63.3527257,46.6500442 63.4115752,46.4970354 C63.4586549,46.5052743 63.6599204,46.684177 64.0177257,46.3263717 C63.8882566,46.2569292 63.8152832,46.3204867 63.6610973,46.1980796 L63.4986726,46.2074956 C63.4939646,46.2157345 63.3644956,46.2745841 63.5398673,46.2439823 C63.312708,46.2969469 63.5339823,46.3322566 63.4115752,46.2604602 C63.2091327,46.1427611 62.9737345,46.1745398 62.777177,46.1086283 C62.6841947,46.0768496 62.6159292,46.1003894 62.512354,46.151 C62.4323186,46.2910619 62.515885,46.289885 62.3887699,46.4334779 L62.2204602,46.6535752" id="Fill-47" fill="#E1C733"></path>
            <path d="M56.4249558,50.3822832 C56.3684602,50.411708 56.395531,50.3799292 56.3602212,50.4411327 C56.3355044,50.4823274 56.3413894,50.5058673 56.3260885,50.5600088 C56.2848938,50.7083097 56.2848938,50.6365133 56.2378142,50.7318496 C56.3378584,50.7730442 56.4308407,50.7812832 56.5756106,50.7671593 L56.5073451,51.0849469 L56.7556903,51.074354 L56.7039027,51.3686018 L57.0687699,51.339177 C57.0699469,51.4498142 57.062885,51.5427965 57.1182035,51.6251858 C57.2147168,51.5157257 57.2029469,51.4839469 57.3335929,51.4109735 L57.4348142,51.4980708 C57.4854248,51.5710442 57.458354,51.5557434 57.4877788,51.6346018 C57.6125398,51.5769292 57.5772301,51.5580973 57.6961062,51.4427522 L57.7337699,51.4086195 C57.8691239,51.466292 57.8208673,51.4886549 57.9185575,51.5592743 C57.9726991,51.4533451 57.9621062,51.4097965 57.9644602,51.2697345 C58.4658584,51.3144602 58.2916637,51.2556106 58.2763628,50.9707788 L58.515292,50.9625398 L58.4540885,50.6447522 C58.6235752,50.6400442 58.6918407,50.6423982 58.7930619,50.5505929 C58.6200442,50.407 58.8083628,50.4776195 58.5835575,50.1633628 L58.6188673,50.1256991 C58.7071416,50.0444867 58.7742301,50.012708 58.8448496,49.8961858 C58.9390088,49.742 58.7495133,49.8008496 58.5847345,49.8055575 C58.6694779,49.5819292 58.8001239,49.5077788 58.8048319,49.1652743 C58.6635929,49.2429558 58.5411858,49.2547257 58.3669912,49.2947434 C58.3940619,48.9804867 58.6683009,48.6991858 58.7683451,48.4402478 C58.6824248,48.4555487 58.6412301,48.5073363 58.5129381,48.550885 C58.4070088,48.5873717 58.3305044,48.5979646 58.3199115,48.7380265 C58.1633717,48.7074248 58.115115,48.680354 58.0303717,48.8333628 L57.4877788,48.3037168 C57.4100973,48.3978761 57.3559558,48.4920354 57.2723894,48.5850177 C57.1405664,48.7333186 57.1758761,48.7333186 57.1123186,48.8039381 L57.0063894,48.8992743 C56.8839823,48.6991858 56.9816726,48.9298761 56.6497611,48.7239027 L56.264885,48.5991416 C56.3496283,48.8545487 56.6379912,49.0616991 56.6685929,49.4053805 C56.5144071,49.3912566 56.3460973,49.3924336 56.2248673,49.3359381 C56.2236903,49.7149292 56.3437434,49.7043363 56.4320177,49.9491504 C56.2731239,49.9620973 56.0942212,49.9291416 56.1883805,50.0739115 C56.2484071,50.1645398 56.3366814,50.2328053 56.4532035,50.2634071 C56.4320177,50.3234336 56.4331947,50.3469735 56.4249558,50.3822832" id="Fill-48" fill="#887B1D"></path>
            <path d="M56.0506726,44.8586637 L55.7352389,44.5632389 C55.6834513,44.6597522 55.6045929,44.7821593 55.5375044,44.8669027 L55.325646,45.1999912 C55.1220265,44.9904867 55.1443894,45.1870442 54.9678407,45.0587522 L54.535885,44.9198673 C54.6053274,45.1423186 54.9807876,45.4153805 54.9631327,45.7119823 C54.8442566,45.6931504 54.6312212,45.7002124 54.531177,45.6578407 C54.533531,46.0097611 54.6841858,46.0556637 54.7771681,46.2557522 L54.4829204,46.3051858 C54.5594248,46.4487788 54.6406372,46.5358761 54.8148319,46.5782478 C54.7606903,46.6983009 54.7347965,46.6688761 54.7006637,46.819531 C54.6500531,47.0419823 54.6888938,46.8866195 54.6088584,47.0443363 C54.7653982,47.1020088 54.7795221,47.080823 54.9631327,47.0631681 C54.934885,47.1667434 54.9019292,47.2620796 54.9148761,47.3939027 L55.1490973,47.3597699 L55.1067257,47.6551947 L55.4727699,47.615177 L55.5151416,47.8929469 C55.5633982,47.8646991 55.6881593,47.7022743 55.722292,47.6634336 C55.8894248,47.7269912 55.8388142,47.7328761 55.9153186,47.884708 C56.0247788,47.8140885 56.0518496,47.7611239 56.121292,47.6387168 C56.3449204,47.7010973 56.3696372,48.0200619 56.3684602,47.4951239 L56.7368584,47.481 C56.6944867,47.3397611 56.6827168,47.353885 56.6709469,47.1855752 L56.8875133,47.1773363 C56.9039912,47.0337434 56.8498496,46.9607699 56.8227788,46.8442478 C56.9804956,46.8371858 57.0652389,46.8383628 57.1617522,46.7418496 C56.9781416,46.5841327 57.1688142,46.6724071 56.927531,46.3569735 C57.0299292,46.2498673 57.2005929,46.1686549 57.1970619,45.9873982 L56.921646,46.0038761 C56.9899115,45.8061416 57.1499823,45.6366549 57.0970177,45.350646 C57.057,45.4283274 56.794531,45.4754071 56.6803628,45.5107168 C56.6650619,45.1964602 56.9804956,44.8892655 57.0216903,44.6350354 C56.9369469,44.6750531 56.8745664,44.7303717 56.792177,44.7645044 C56.6391681,44.8292389 56.6015044,44.7833363 56.5932655,44.9645929 L56.3802301,44.9422301 L56.2872478,45.081115 L56.123646,44.9033894 C56.0506726,44.8398319 56.1777876,44.8798496 56.0506726,44.8586637" id="Fill-49" fill="#887B1D"></path>
            <path d="M68.2136991,49.4136195 C68.2949115,49.6643186 68.4385044,49.607823 68.6538938,49.6596106 C68.765708,49.6866814 68.7763009,49.742 68.8375044,49.8290973 C68.9093009,49.9314956 68.9575575,49.9197257 68.9787434,50.0362478 C68.5256018,50.1857257 68.3714159,50.0727345 68.2219381,50.1563009 C68.3302212,50.4376018 68.7080354,50.3034248 68.7080354,50.3034248 C69.0128761,50.2669381 69.4460088,50.2869469 69.6496283,50.5058673 C69.6519823,50.5082212 69.6578673,50.5152832 69.6625752,50.5211681 C69.297708,50.7212566 69.2506283,50.4893894 69.024646,50.5976726 C69.0364159,50.7118407 69.0623097,50.7059558 69.16,50.7495044 C69.4730796,50.8919204 69.5060354,50.7801062 69.9733009,50.7671593 C70.4805841,50.7518584 70.1498496,50.541177 70.7089204,50.7648053 C70.7924867,50.7989381 70.8984159,50.806 70.9525575,50.8377788 C70.7830708,51.067292 70.6747876,50.8860354 70.4146726,50.9754867 C70.4170265,51.0896549 70.4770531,51.0884779 70.5923982,51.1355575 C70.8536903,51.2426637 70.6312389,51.1320265 71.1750088,51.0837699 C71.3856903,51.0649381 71.3668584,51.0155044 71.5139823,51.0037345 C71.6116726,50.9966726 71.9930177,51.1237876 72.0683451,51.1649823 C72.2519558,51.2638496 72.3202212,51.338 72.5273717,51.4133274 L72.5156018,51.5722212 L72.2884425,51.6381327 C72.3249292,51.9594513 72.7062743,51.6969823 72.8157345,51.5792832 C72.7863097,51.4451062 72.7627699,51.5133717 72.7027434,51.3839027 L72.5685664,51.0955398 C72.483823,51.0519912 72.3755398,51.0461062 72.3343451,50.9460619 C72.2684336,50.7883451 72.3720088,50.7436195 72.2366549,50.5800177 C72.4202655,50.5199912 72.6992124,50.7106637 72.9805133,50.8413097 C73.152354,50.9213451 73.1135133,50.9531239 73.3489115,50.9778407 C73.5595929,51.0013805 73.6631681,50.937823 73.7126018,50.7812832 C73.6031416,50.4517257 72.9557965,50.4952743 72.5862212,50.3987611 C72.4767611,50.3705133 72.4026106,50.3446195 72.2813805,50.3210796 C72.1248407,50.2904779 72.1377876,50.272823 72.0118496,50.2080885 C71.8305929,50.1174602 71.6234425,50.0703805 71.3903982,50.0786195 C71.0290619,50.0915664 71.0502478,50.1645398 70.7006814,50.0656726 C70.488823,50.006823 70.2628407,49.9950531 70.096885,49.9056018 C69.5213363,49.5972301 69.4530708,49.742 69.2506283,49.6019381 C69.0870265,49.4877699 69.2388584,49.5348496 69.2282655,49.3512389 C69.0787876,49.2947434 69.1046814,49.3253451 68.9740354,49.2511947 C68.9022389,49.211177 68.7810088,49.1440885 68.7080354,49.1287876 C68.5562035,49.3512389 68.7221593,49.2570796 68.3525841,49.3512389 C68.232531,49.3818407 68.2890265,49.3512389 68.2136991,49.4136195" id="Fill-50" fill="#1A1918"></path>
            <path d="M58.7518673,47.5410265 C58.7777611,47.5198407 58.8201327,47.486885 58.8542655,47.4468673 C58.9649027,47.5045398 58.8389646,47.3844867 58.9907965,47.5610354 C59.0284602,47.6045841 59.0590619,47.6375398 59.1084956,47.6728496 C59.1014336,47.5339646 59.2273717,47.4362743 59.3062301,47.4445133 C59.4133363,47.4951239 59.4215752,47.5339646 59.4910177,47.618708 L59.5486903,47.3385841 L59.8994336,47.349177 L59.8641239,47.0408053 L60.111292,47.0549292 C60.118354,46.9066283 60.0783363,46.8430708 60.0571504,46.7183097 C60.4643894,46.7112478 60.387885,46.683 60.3561062,46.5900177 L60.3396283,46.5394071 C60.3019646,46.4075841 60.3490442,46.4864425 60.2713628,46.3428496 L60.2078053,46.2145575 C60.3337434,46.1757168 60.519708,46.0285929 60.512646,45.9050088 L60.243115,45.9132478 L60.3007876,45.7649469 C60.3207965,45.5978142 60.3384513,45.6872655 60.3937699,45.5295487 C60.4184867,45.4565752 60.4031858,45.4553982 60.385531,45.3871327 C60.1724956,45.4130265 60.0806903,45.4106726 59.9535752,45.5283717 L59.9429823,45.4471593 C59.9441593,45.4436283 59.9512212,45.4483363 59.9535752,45.4506903 C59.845292,45.4589292 59.8158673,45.4965929 59.7440708,45.5248407 C59.7405398,45.5201327 59.7393628,45.5095398 59.7381858,45.5071858 C59.7370088,45.5048319 59.7334779,45.4942389 59.7323009,45.491885 C59.7311239,45.486 59.7252389,45.4683451 59.722885,45.4636372 C59.6852212,45.3671239 59.847646,45.4954159 59.7075841,45.4365664 C59.6981681,45.4412743 59.6746283,45.4436283 59.6675664,45.4448053 L59.5204425,45.4471593 C59.5157345,45.4459823 59.5063186,45.4436283 59.5016106,45.4436283 L58.4246637,45.5107168 C58.2987257,45.5436726 58.3410973,45.4036106 58.0115398,45.4224425 C58.115115,45.3247522 58.0033009,45.4648142 58.0009469,45.4671681 C57.9809381,45.5036549 57.8761858,45.5566195 57.9809381,45.487177 C58.119823,45.8979469 58.0951062,45.6978584 58.2292832,45.9309027 C58.3293274,46.1062743 58.3387434,45.9391416 58.3269735,46.1392301 C58.2092743,46.0862655 58.0809823,45.9273717 57.9185575,46.0462478 C58.0468496,46.0862655 57.9797611,46.2027876 58.2893097,46.2380973 L58.117469,46.3734513 C58.0374336,46.4311239 58.0692124,46.4958584 58.0645044,46.5170442 L57.9456283,46.7041858 L58.1727876,46.6700531 C58.1527788,46.7477345 58.1115841,46.6971239 58.1115841,46.6971239 C58.259885,46.6653451 58.3222655,46.6312124 58.4740973,46.5947257 L58.4293717,46.6571062 C58.3281504,46.7830442 58.3222655,46.7312566 58.3152035,46.813646 C58.3093186,46.8783805 58.3340354,46.951354 58.258708,46.8960354 C58.3034336,46.8407168 58.2951947,46.8289469 58.4835133,46.812469 C58.4764513,46.821885 58.4670354,46.8313009 58.4611504,46.8383628 L58.4152478,46.8830885 C58.4081858,46.8889735 58.3999469,46.8936814 58.392885,46.8995664 C58.384646,46.9066283 58.3587522,46.9207522 58.3505133,46.9266372 C58.2163363,47.0243274 58.3516903,47.0255044 58.2269292,47.0231504 C58.3363894,47.0125575 58.4128938,46.9643009 58.5046991,46.9325221 C58.4587965,47.0725841 58.384646,47.1479115 58.4117168,47.2491327 L58.4658584,47.2903274 C58.6023894,47.2373628 58.5282389,47.3691858 58.6106283,47.2750265 C58.7259735,47.1443805 58.6635929,47.0961239 58.8354336,47.1031858 C58.8354336,47.1043628 58.6070973,47.5127788 58.7518673,47.5410265" id="Fill-51" fill="#E1C733"></path>
            <path d="M41.8749912,48.4284779 C41.7302212,48.4367168 41.6384159,48.4967434 41.5077699,48.550885 C41.6419469,48.6073805 41.9444336,48.9345841 42.1245133,49.0275664 C42.1268673,49.3335841 42.0044602,49.6207699 41.9915133,49.9032478 L42.7789204,49.5854602 C42.9378142,49.6725575 43.2850265,49.9738673 43.4203805,50.0903894 C43.4321504,50.0233009 43.5639735,49.2888584 43.6157611,49.2464867 L44.3713894,48.9310531 L43.7640619,48.4249469 L43.9100088,47.5669204 C43.8405664,47.618708 43.2132301,47.8623451 43.0766991,47.8870619 L42.4787876,47.3903717 C42.2292655,48.5826637 42.3799204,48.1024513 41.9373717,48.3731593 L41.8749912,48.4284779" id="Fill-52" fill="#887B1D"></path>
            <path d="M71.3080088,45.9579735 C71.1632389,45.9662124 71.0714336,46.0262389 70.9407876,46.0803805 C71.0761416,46.1368761 71.3774513,46.4640796 71.558708,46.5570619 C71.559885,46.8630796 71.4386549,47.1502655 71.424531,47.4327434 L72.2119381,47.1149558 C72.3720088,47.2020531 72.7192212,47.5033628 72.8533982,47.619885 C72.8663451,47.5527965 72.9981681,46.818354 73.0499558,46.7759823 L73.8055841,46.4605487 L73.1970796,45.9544425 L73.3442035,45.0964159 C73.2735841,45.1482035 72.6462478,45.3918407 72.5097168,45.4153805 L71.9118053,44.9198673 C71.6634602,46.1121593 71.814115,45.6319469 71.3703894,45.9014779 L71.3080088,45.9579735" id="Fill-53" fill="#887B1D"></path>
            <path d="M56.4249558,50.3822832 L56.5014602,50.5117522 C56.2790088,50.5894336 56.4685044,50.6223894 56.3166726,50.7118407 L56.5744336,50.6270973 C56.5391239,50.7306726 56.6273982,50.6365133 56.529708,50.6988938 C56.4273097,50.7648053 56.4932212,50.7236106 56.4696814,50.7024248 L56.8263097,50.6435752 L56.7168496,50.7471504 C56.7321504,50.6388673 56.7439204,50.7059558 56.7980619,50.7365575 C56.7062566,50.8424867 56.6944867,50.8754425 56.6815398,50.9460619 C56.661531,51.0555221 56.6321062,51.075531 56.5932655,51.0331593 C56.7027257,51.0237434 56.7521593,50.9790177 56.8333717,50.935469 L56.8969292,50.9036903 C56.9086991,50.8978053 56.920469,50.8919204 56.9322389,50.8872124 C56.8580885,51.073177 56.8157168,51.0649381 56.7992389,51.2638496 C56.8616195,51.0519912 56.8592655,51.0225664 57.055823,50.9719558 L56.8898673,51.2426637 C56.8345487,51.343885 56.8651504,51.2968053 56.8404336,51.2944513 C56.9981504,51.210885 56.9404779,51.3238761 57.0499381,51.2191239 L57.1158496,51.1602743 C57.1264425,51.1520354 57.1370354,51.1461504 57.1464513,51.1390885 C57.1558673,51.1320265 57.1676372,51.1237876 57.1794071,51.1179027 C57.1393894,51.2791504 57.1087876,51.3568319 57.1488053,51.5204336 L57.1794071,51.210885 C57.2923982,51.3026903 57.2359027,51.1049558 57.2723894,51.3591858 C57.2158938,51.3203451 57.2406106,51.3250531 57.2406106,51.206177 L57.317115,51.2873894 C57.3606637,51.3886106 57.327708,51.336823 57.3029912,51.3568319 L57.3383009,51.1614513 C57.4807168,51.2520796 57.3524248,51.3591858 57.4948407,51.4451062 C57.4889558,51.4074425 57.4642389,51.334469 57.4642389,51.3285841 C57.456,51.1508584 57.4454071,51.2826814 57.4995487,51.2144159 C57.5548673,51.3168142 57.5478053,51.3968496 57.5748761,51.5239646 L57.6090088,51.4380442 C57.6125398,51.4309823 57.6584425,51.334469 57.6619735,51.332115 C57.7349469,51.2438407 57.6184248,51.3544779 57.6913982,51.3156372 L57.7690796,51.203823 C57.7773186,51.1932301 57.7843805,51.1802832 57.7961504,51.1708673 C57.7961504,51.2897434 57.8196903,51.2803274 57.7655487,51.3309381 C57.7679027,51.1379115 57.7726106,51.2203009 57.8467611,51.1638053 L57.8879558,51.472177 C57.9020796,51.3168142 57.9009027,51.1826372 57.8079204,51.0555221 C57.8043894,51.0519912 57.7973274,51.0437522 57.7926195,51.0366903 C58.0080088,51.0178584 57.8620619,51.0413982 57.9962389,51.1743982 C58.0915752,51.2697345 58.0291947,51.1543894 58.1963274,51.206177 C58.1374779,51.2803274 58.1504248,51.1755752 58.1351239,51.0861239 C58.1880885,51.1190796 58.2810708,51.2756195 58.2269292,51.0790619 C58.1892655,50.9460619 58.1751416,51.0237434 58.1398319,50.8471947 C58.3316814,50.8942743 58.2210442,50.9248761 58.4411416,50.9119292 C58.3199115,50.8566106 58.4281947,50.8413097 58.258708,50.8318938 C58.3410973,50.7447965 58.259885,50.7459735 58.3740531,50.7695133 L58.382292,50.7930531 C58.3493363,50.7824602 58.2787168,50.7177257 58.2622389,50.6800619 L58.1657257,50.4988053 C58.2610619,50.5117522 58.3787611,50.5517699 58.4411416,50.5623628 C58.6376991,50.5976726 58.5070531,50.4952743 58.6906637,50.5623628 L58.6059204,50.3952301 C58.5870885,50.3116637 58.6094513,50.2869469 58.515292,50.2304513 L58.4352566,50.1857257 C58.4305487,50.1833717 58.4199558,50.1786637 58.4140708,50.1739558 L58.8130708,49.9020708 C58.787177,49.9161947 58.7189115,49.9632743 58.6730088,49.9726903 C58.3552212,50.0409558 58.6118053,50.0244779 58.5046991,49.9303186 L58.7412743,49.8561681 C58.7012566,49.877354 58.7259735,49.8573451 58.6600619,49.879708 C58.5976814,49.8997168 58.6047434,49.8891239 58.5517788,49.9114867 C58.4682124,49.9503274 58.4505575,49.9844602 58.3399204,50.0409558 C58.4270177,49.8114425 58.6318142,49.6737345 58.7212655,49.4453982 C58.7259735,49.2523717 58.7353894,49.4512832 58.6824248,49.3677168 L58.6694779,49.347708 C58.6659469,49.2841504 58.651823,49.3076903 58.7224425,49.2912124 C58.4505575,49.3088673 58.385823,49.3724248 58.2269292,49.4948319 C58.2222212,49.4877699 58.2186903,49.4630531 58.2186903,49.4677611 C58.2186903,49.473646 58.2128053,49.4477522 58.2116283,49.4430442 C58.2116283,49.4383363 58.1998584,49.3112212 58.258708,49.3830177 C58.1327699,49.3889027 58.118646,49.3971416 58.0421416,49.4512832 L58.0433186,49.3736018 L57.2241327,49.4300973 C57.1158496,49.4418673 57.058177,49.478354 56.9946195,49.4218584 C56.9981504,49.4854159 57.0228673,49.4583451 56.9510708,49.5372035 C56.8922212,49.4948319 56.8745664,49.472469 56.7627522,49.480708 L56.8121858,49.5301416 C56.8133628,49.5336726 56.8133628,49.5454425 56.8145398,49.5501504 L56.8098319,49.5972301 C56.5791416,49.5219027 56.7227345,49.4218584 56.3154956,49.4477522 C56.3531593,49.4359823 56.3425664,49.472469 56.4390796,49.5018938 C56.397885,49.5854602 56.4284867,49.4983628 56.4802743,49.4877699 C56.5038142,49.5666283 56.5108761,49.5736903 56.5473628,49.6396018 C56.5862035,49.7102212 56.6097434,49.739646 56.654469,49.8161504 C56.4143628,49.7843717 56.4626195,49.6913894 56.3319735,49.5630973 L56.2966637,49.5360265 C56.3555133,49.6913894 56.4367257,49.7761327 56.527354,49.8961858 L56.6238673,50.0750885 L56.3096106,50.011531 C56.3049027,50.010354 56.2943097,50.009177 56.2872478,50.005646 C56.4331947,50.0633186 56.4567345,50.0315398 56.5320619,50.143354 C56.4637965,50.1339381 56.396708,50.1292301 56.3296195,50.1127522 C56.1507168,50.0692035 56.254292,50.0797965 56.254292,50.0680265 C56.3602212,50.1021593 56.4108319,50.2116195 56.6168053,50.2528142 L56.7839381,50.3257876 C56.654469,50.3552124 56.6897788,50.3304956 56.5932655,50.3387345 C56.4920442,50.3481504 56.519115,50.3552124 56.4249558,50.3822832" id="Fill-54" fill="#E1C733"></path>
            <path d="M56.5320619,45.7261062 C56.4979292,45.6601947 56.525,45.6095841 56.5626637,45.6095841 C56.4567345,45.615469 56.4473186,45.6390088 56.4073009,45.7037434 C56.397885,45.6966814 56.3849381,45.6696106 56.3814071,45.6778496 L55.4480531,45.7213982 C55.3385929,45.7414071 55.323292,45.7155133 55.2467876,45.747292 C55.196177,45.7673009 55.2091239,45.7637699 55.1655752,45.7696549 C55.1632212,45.7696549 55.0973097,45.7673009 55.0831858,45.7673009 C55.1161416,45.7625929 55.0313982,45.6825575 55.1090796,45.7790708 L55.1749912,45.885 C54.8807434,45.8320354 55.0372832,45.7202212 54.6335752,45.7661239 C54.7453894,45.8049646 54.7571593,45.8426283 54.7748142,45.9732743 C54.6853628,45.9285487 54.657115,45.9144248 54.6206283,45.8261504 C54.6429912,46.0733186 54.8830973,46.1851327 54.9902035,46.3899292 C54.8536726,46.3675664 54.7830531,46.3240177 54.6335752,46.3522655 L54.8089469,46.3581504 C54.933708,46.4005221 54.8772124,46.3499115 54.930177,46.4887965 L54.5900265,46.3852212 C54.6971327,46.419354 54.7359735,46.5135133 54.9454779,46.5394071 C55.0455221,46.552354 55.0808319,46.5629469 55.1396814,46.6276814 C54.6700619,46.6571062 54.8595575,46.7383186 54.7077257,47.0172655 C54.797177,46.950177 54.8383717,46.9313451 54.9537168,46.953708 C54.929,46.9878407 54.8901593,47.0408053 54.8042389,47.0196195 C54.9372389,47.0031416 55.0208053,46.947823 55.1137876,46.9066283 L55.1443894,46.9701858 C55.1538053,46.9890177 55.1514513,47.0019646 55.1738142,47.0372743 C55.1290885,47.078469 55.1055487,47.085531 55.0549381,47.1196637 C55.0490531,47.2538407 55.0514071,47.085531 55.0714159,47.1702743 C55.0820088,47.217354 55.0890708,47.2620796 55.0490531,47.2997434 C54.9454779,47.3974336 55.0184513,47.3256372 54.9902035,47.3150442 C55.063177,47.3150442 55.0949558,47.2962124 55.1420354,47.2667876 C55.1420354,47.2667876 55.2044159,47.2244159 55.2161858,47.216177 C55.2244248,47.210292 55.2503186,47.1926372 55.2597345,47.1867522 C55.2679735,47.1820442 55.2762124,47.1773363 55.2844513,47.1714513 L55.3397699,47.1384956 C55.2985752,47.4021416 55.2114779,47.219708 55.198531,47.5598584 C55.2185398,47.4468673 55.2256018,47.4233274 55.329177,47.3550619 C55.2573805,47.6728496 55.2620885,47.5822212 55.2373717,47.5763363 C55.3609558,47.4904159 55.2973982,47.612823 55.4821858,47.476292 L55.5457434,47.4339204 L55.5457434,47.7728938 C55.594,47.6563717 55.5763451,47.619885 55.5763451,47.4621681 C55.6752124,47.5363186 55.6681504,47.3315221 55.6681504,47.6410708 C55.6128319,47.6034071 55.6387257,47.5645664 55.6387257,47.4586372 C55.7576018,47.5469115 55.6693274,47.4445133 55.722292,47.5586814 C55.7693717,47.6610796 55.7093451,47.5833982 55.7011062,47.5775133 C55.7552478,47.5316106 55.7164071,47.5363186 55.7611327,47.4656991 C55.7658407,47.4586372 55.7740796,47.4468673 55.7776106,47.4421593 C55.7811416,47.4350973 55.7870265,47.4245044 55.7940885,47.4174425 C55.8282212,47.5174867 55.8129204,47.5657434 55.8435221,47.6293009 C55.8788319,47.7034513 55.9470973,47.6622566 55.8847168,47.7187522 L55.8847168,47.6634336 C55.8835398,47.6575487 55.8823628,47.6457788 55.8811858,47.6375398 C55.8694159,47.5210177 55.8329292,47.5398496 55.9082566,47.4668761 C55.9647522,47.5575044 55.9765221,47.6434248 55.9765221,47.7752478 C55.9588673,47.7375841 56.0141858,47.6457788 56.0647965,47.5763363 C56.0671504,47.5739823 56.0742124,47.5680973 56.0753894,47.5657434 C56.1530708,47.478646 56.1001062,47.5516195 56.1036372,47.5469115 C56.1059912,47.5422035 56.1106991,47.4562832 56.1165841,47.4092035 C56.2166283,47.486885 56.1707257,47.2856195 56.1930885,47.5386726 C56.0918673,47.3562389 56.2036814,47.4280354 56.2413451,47.4221504 C56.2448761,47.5174867 56.2472301,47.619885 56.3154956,47.6610796 C56.256646,47.7163982 56.3449204,47.6693186 56.3072566,47.5021858 C56.2754779,47.3668319 56.2083894,47.4080265 56.1836726,47.2573717 C56.3213805,47.2997434 56.3343274,47.4139115 56.4508496,47.4292124 L56.529708,47.4139115 C56.5320619,47.4127345 56.5379469,47.4068496 56.5403009,47.4044956 L56.5838496,47.3609469 C56.5850265,47.3597699 56.5932655,47.3550619 56.5944425,47.353885 L56.6250442,47.3633009 C56.6215133,47.2738496 56.6297522,47.3232832 56.5932655,47.2397168 C56.5355929,47.1020088 56.5650177,47.2891504 56.5320619,47.0631681 C56.5438319,47.0666991 56.5603097,47.0584602 56.5673717,47.0737611 L56.6862478,47.1067168 C56.7662832,47.1231947 56.7439204,47.1231947 56.8098319,47.1043628 C56.7486283,47.1326106 56.8321947,47.1267257 56.7674602,47.0890619 C56.5720796,46.9760708 56.8639735,47.1020088 56.7062566,47.0490442 L56.7121416,47.0043186 C56.7192035,46.8795575 56.7450973,47.0455133 56.7144956,46.954885 C56.6944867,46.8960354 56.6897788,46.9348761 56.654469,46.9030973 C56.5979735,46.8536637 56.6156283,46.8736726 56.6226903,46.8454248 L56.6862478,46.7430265 L56.9110531,46.7771593 C56.9098761,46.7771593 56.8745664,46.8042301 56.8474956,46.7547965 L56.8404336,46.7159558 C56.9381239,46.7100708 56.9793186,46.7265487 57.055823,46.7630354 C56.9746106,46.6006106 56.9451858,46.6041416 56.8086549,46.5241062 C56.7368584,46.4829115 56.8004159,46.5394071 56.7368584,46.4723186 C56.8875133,46.4629027 56.9628407,46.4993894 56.9675487,46.5088053 C56.9440088,46.4440708 56.8533805,46.4264159 56.8027699,46.3875752 L56.7474513,46.3381416 C56.9110531,46.2945929 57.0099204,46.2192655 57.0981947,46.1015664 L56.9357699,46.1816018 C56.9404779,46.1604159 56.9510708,46.1309912 56.9557788,46.1392301 C56.9604867,46.145115 56.9804956,46.1027434 57.0005044,46.0874425 C57.1299735,45.9873982 57.0263982,46.0603717 57.0675929,46.0697876 C56.9722566,46.0768496 56.9922655,46.0674336 56.9134071,46.1003894 C56.9075221,46.1027434 56.8992832,46.1074513 56.8933982,46.1098053 L56.7168496,46.1851327 L56.9063451,45.8720531 C56.9699027,45.7884867 57.0228673,45.6790265 57.0252212,45.5566195 L56.9416549,45.7378761 C56.8933982,45.8708761 56.8722124,45.8673451 56.7168496,45.9085398 C56.7639292,45.756708 56.8227788,45.7166903 56.8404336,45.5377876 C57.0193363,45.621354 56.8286637,45.621354 56.925177,45.5648584 C56.9381239,45.5577965 56.9440088,45.5107168 57.0252212,45.487177 C56.9075221,45.4954159 56.8627965,45.5024779 56.7545133,45.5554425 C56.5897345,45.6366549 56.6674159,45.6401858 56.5320619,45.7261062" id="Fill-55" fill="#E1C733"></path>
            <path d="M41.8867611,52.4514336 C41.891469,52.6585841 42.1421681,53.0411062 42.2410354,53.1588053 C43.2179381,54.3075487 44.950469,54.0474336 45.7225752,52.9528319 C46.1192212,52.3902301 46.3134248,51.7958496 46.1639469,51.1037788 L46.0544867,50.7824602 C45.9932832,50.5776637 46.0344779,50.7271416 46.0509558,50.7012478 C45.9850442,51.4321593 46.0062301,51.6287168 45.6343009,52.2219204 C45.4212655,52.5632478 45.0328584,52.9210531 44.552646,53.1270265 C43.7358142,53.4754159 42.9860708,53.3612478 42.3281327,52.9104602 C42.1774779,52.806885 41.9997522,52.6574071 41.899708,52.5008673 C41.8643982,52.4443717 41.8761681,52.4761504 41.8867611,52.4514336" id="Fill-56" fill="#FFFFFF"></path>
            <path d="M58.7518673,47.5410265 C58.6070973,47.5127788 58.8354336,47.1043628 58.8354336,47.1031858 C58.6635929,47.0961239 58.7259735,47.1443805 58.6106283,47.2750265 C58.5282389,47.3691858 58.6023894,47.2373628 58.4658584,47.2903274 L58.4117168,47.2491327 C58.384646,47.1479115 58.4587965,47.0725841 58.5046991,46.9325221 C58.4128938,46.9643009 58.3363894,47.0125575 58.2269292,47.0231504 C58.3516903,47.0255044 58.2163363,47.0243274 58.3505133,46.9266372 C58.3587522,46.9207522 58.384646,46.9066283 58.392885,46.8995664 C58.3999469,46.8936814 58.4081858,46.8889735 58.4152478,46.8830885 L58.4611504,46.8383628 C58.4670354,46.8313009 58.4764513,46.821885 58.4835133,46.812469 C58.2951947,46.8289469 58.3034336,46.8407168 58.258708,46.8960354 C58.3340354,46.951354 58.3093186,46.8783805 58.3152035,46.813646 C58.3222655,46.7312566 58.3281504,46.7830442 58.4293717,46.6571062 L58.4740973,46.5947257 C58.3222655,46.6312124 58.259885,46.6653451 58.1115841,46.6971239 C58.1115841,46.6971239 58.1527788,46.7477345 58.1727876,46.6700531 L57.9456283,46.7041858 L58.0645044,46.5170442 C58.0692124,46.4958584 58.0374336,46.4311239 58.117469,46.3734513 L58.2893097,46.2380973 C57.9797611,46.2027876 58.0468496,46.0862655 57.9185575,46.0462478 C58.0809823,45.9273717 58.2092743,46.0862655 58.3269735,46.1392301 C58.3387434,45.9391416 58.3293274,46.1062743 58.2292832,45.9309027 C58.0951062,45.6978584 58.119823,45.8979469 57.9809381,45.487177 C57.8761858,45.5566195 57.9809381,45.5036549 58.0009469,45.4671681 C58.0033009,45.4648142 58.115115,45.3247522 58.0115398,45.4224425 C58.3410973,45.4036106 58.2987257,45.5436726 58.4246637,45.5107168 L59.5016106,45.4436283 C59.5063186,45.4436283 59.5157345,45.4459823 59.5204425,45.4471593 L59.6675664,45.4448053 C59.6746283,45.4436283 59.6981681,45.4412743 59.7075841,45.4365664 C59.847646,45.4954159 59.6852212,45.3671239 59.722885,45.4636372 C59.7252389,45.4683451 59.7311239,45.486 59.7323009,45.491885 C59.7334779,45.4942389 59.7370088,45.5048319 59.7381858,45.5071858 C59.7393628,45.5095398 59.7405398,45.5201327 59.7440708,45.5248407 C59.8158673,45.4965929 59.845292,45.4589292 59.9535752,45.4506903 C59.9512212,45.4483363 59.9441593,45.4436283 59.9429823,45.4471593 L59.9535752,45.5283717 C60.0806903,45.4106726 60.1724956,45.4130265 60.385531,45.3871327 C60.4031858,45.4553982 60.4184867,45.4565752 60.3937699,45.5295487 C60.3384513,45.6872655 60.3207965,45.5978142 60.3007876,45.7649469 C60.3090265,45.7590619 60.3184425,45.7414071 60.3219735,45.747292 C60.3255044,45.753177 60.3384513,45.7343451 60.3431593,45.7308142 L60.4514425,45.5495575 C60.4855752,45.4530442 60.4961681,45.3765398 60.4996991,45.2682566 L60.0453805,45.3741858 C60.1089381,45.0293274 60.386708,44.7939292 60.4938142,44.5373451 C60.3902389,44.553823 60.3678761,44.6067876 60.2266372,44.6456283 C60.0547965,44.692708 60.0489115,44.6621062 60.0147788,44.8304159 C59.9229735,44.7138938 59.7982124,44.8056991 59.7075841,44.8927965 C59.7016991,44.8869115 59.6934602,44.8680796 59.6911062,44.8739646 C59.6675664,44.9233982 59.6628584,44.8421858 59.6605044,44.8386549 C59.5263274,44.6703451 59.6063628,44.684469 59.5039646,44.6632832 L59.4015664,44.4961504 C59.3509558,44.426708 59.3274159,44.3866903 59.2756283,44.3360796 C58.9955044,44.5679469 58.915469,44.7397876 58.7389204,44.9257522 C58.5835575,44.7233097 58.6930177,44.9281062 58.3728761,44.7221327 L57.9950619,44.5750088 C58.0680354,44.8351239 58.3081416,45.0410973 58.3599292,45.3883097 C58.2033894,45.3847788 58.0350796,45.3671239 57.9232655,45.3070973 C57.9114956,45.6919735 58.0244867,45.6743186 58.0962832,45.9297257 L57.8173363,45.9485575 C57.8291062,46.0662566 57.9079646,46.1368761 57.982115,46.1933717 L58.0903982,46.281646 L57.8679469,46.7159558 C57.9679912,46.7559735 58.0633274,46.7665664 58.2069204,46.7547965 C58.1751416,46.8677876 58.119823,46.9584159 58.1280619,47.087885 L58.3552212,47.0725841 L58.2975487,47.3680088 L58.6600619,47.3585929 L58.6753628,47.6457788 L58.7518673,47.5410265" id="Fill-57" fill="#887B1D"></path>
            <path d="M62.2204602,46.6535752 L62.3887699,46.4334779 C62.515885,46.289885 62.4323186,46.2910619 62.512354,46.151 C62.6159292,46.1003894 62.6841947,46.0768496 62.777177,46.1086283 C62.9737345,46.1745398 63.2091327,46.1427611 63.4115752,46.2604602 C63.5339823,46.3322566 63.312708,46.2969469 63.5398673,46.2439823 C63.3644956,46.2745841 63.4939646,46.2157345 63.4986726,46.2074956 L63.6610973,46.1980796 C63.6658053,46.0756726 63.6893451,46.1145133 63.8329381,46.0956814 C64.6615398,45.9850442 64.8357345,46.7171327 65.7361327,46.8313009 C65.966823,46.8607257 66.4682212,46.8065841 66.495292,46.6217965 C65.5372212,46.7124248 65.4877876,46.551177 64.8922301,46.1121593 L64.7556991,46.0015221 C64.7015575,45.9320796 64.766292,46.0568407 64.7109735,45.9238407 C64.9369558,45.9473805 65.1311593,46.0909735 65.3806814,46.0945044 C65.6302035,46.0980354 65.9268053,46.013292 66.0374425,45.8755841 C64.9793274,45.9638584 65.2582743,45.7990796 64.3943628,45.5071858 C64.1542566,45.4259735 63.6634513,45.4989469 63.442177,45.5801593 C63.1090885,45.7025664 62.9819735,45.8708761 62.7277434,46.0026991 C62.5959204,45.9803363 62.5806195,45.9238407 62.4664513,45.8991239 C62.4134867,45.888531 62.3511062,45.887354 62.2957876,45.8944159 C62.0462655,45.9250177 62.1651416,46.0250619 62.1651416,46.0262389 L62.1980973,46.0815575 C62.2722478,46.1886637 62.2569469,46.1321681 62.3852389,46.2486903 C62.5559027,46.4016991 62.2957876,46.3887522 62.2204602,46.6535752" id="Fill-58" fill="#DC3D33"></path>
            <path d="M43.1379027,47.9635664 C43.0790531,48.1695398 43.0449204,48.412 43.0119646,48.6050265 C43.0343274,48.4767345 43.0272655,48.5320531 43.1532035,48.4861504 L43.0684602,48.680354 C43.0555133,48.5638319 43.1685044,48.6462212 43.2155841,48.6874159 C43.0649292,48.7191947 43.1002389,48.7380265 43.0613982,48.7086018 C43.3462301,48.7486195 44.0536018,48.8674956 44.2183805,48.8486637 C44.1112743,48.8274779 43.7687699,48.5320531 43.7393451,48.4790885 C43.6110531,48.4790885 43.494531,48.5685398 43.3391681,48.5979646 C43.4321504,48.4649646 43.488646,48.4720265 43.6863805,48.3908142 C43.7393451,48.2236814 43.7428761,47.8552832 43.8323274,47.7022743 C43.8794071,47.7399381 43.7440531,47.7211062 43.7381681,47.7211062 C43.6557788,47.7211062 43.2096991,47.9188407 43.1379027,47.9635664" id="Fill-59" fill="#E1C733"></path>
            <path d="M72.5709204,45.4930619 C72.5120708,45.6990354 72.479115,45.9414956 72.4461593,46.1345221 C72.4673451,46.0062301 72.4614602,46.0615487 72.5873982,46.015646 L72.5014779,46.2098496 C72.488531,46.0933274 72.6015221,46.1757168 72.6486018,46.2169115 C72.4979469,46.2486903 72.5332566,46.2675221 72.4944159,46.2380973 C72.7804248,46.278115 73.4866195,46.3969912 73.6525752,46.3781593 C73.544292,46.3569735 73.2017876,46.0615487 73.1723628,46.0085841 C73.0440708,46.0085841 72.9275487,46.0980354 72.7721858,46.1262832 C72.8651681,45.9944602 72.9228407,46.0015221 73.1205752,45.9191327 C73.1735398,45.753177 73.1758938,45.3847788 73.2653451,45.2317699 C73.3124248,45.2694336 73.1770708,45.2506018 73.1723628,45.2506018 C73.0899735,45.2506018 72.6438938,45.4483363 72.5709204,45.4930619" id="Fill-60" fill="#E1C733"></path>
            <path d="M41.8749912,48.4284779 L41.7784779,48.5108673 C41.7702389,48.5155752 41.7231593,48.5285221 41.7149204,48.5296991 C41.5701504,48.546177 41.7396372,48.5603009 41.6619558,48.5226372 C41.8220265,48.5555929 42.0609558,48.5626549 42.1445221,48.6062035 C42.156292,48.6132655 42.161,48.6179735 42.1715929,48.6250354 C42.1833628,48.6320973 42.1904248,48.6391593 42.1998407,48.6462212 C42.2104336,48.6532832 42.2198496,48.6603451 42.2280885,48.6697611 C42.0621327,48.672115 41.7855398,48.5991416 41.6678407,48.6132655 C41.6878496,48.6038496 41.6760796,48.5614779 41.8031947,48.6885929 L42.0939115,48.9357611 C42.1739469,49.0110885 42.2033717,48.9910796 42.290469,49.0052035 C42.3422566,48.9110442 42.3198938,48.949885 42.5423451,48.8580796 C42.6294425,48.8215929 42.7071239,48.7815752 42.7965752,48.7568584 C42.7200708,48.7521504 42.3399027,48.7109558 42.2551593,48.6568142 C42.2433894,48.6497522 42.2363274,48.6415133 42.2269115,48.6344513 C42.2163186,48.6273894 42.2069027,48.6203274 42.1986637,48.6109115 C42.4128761,48.6085575 42.5858938,48.6662301 42.8142301,48.6674071 C42.8095221,48.672115 42.7447876,48.7709823 42.7871593,48.6450442 C42.8424779,48.4837965 42.7306637,48.6568142 42.8377699,48.6026726 C42.8401239,48.6026726 42.8483628,48.6014956 42.8518938,48.5979646 L42.5011504,47.5563274 C42.5023274,47.5539735 42.5035044,47.5457345 42.5058584,47.5422035 C42.4564248,47.7222832 42.3822743,48.0577257 42.3822743,48.2895929 C42.1763009,48.3072478 42.0468319,48.4426018 41.8749912,48.4284779" id="Fill-61" fill="#E1C733"></path>
            <path d="M71.3080088,45.9579735 L71.2126726,46.0403628 C71.2032566,46.0450708 71.156177,46.0580177 71.149115,46.0591947 C71.0031681,46.0744956 71.1726549,46.0886195 71.0961504,46.0509558 C71.2562212,46.0850885 71.4951504,46.0909735 71.5775398,46.1356991 C71.5893097,46.1427611 71.5951947,46.147469 71.6057876,46.153354 C71.6175575,46.1615929 71.6246195,46.1686549 71.6340354,46.1757168 C71.6434513,46.1827788 71.6540442,46.1898407 71.6622832,46.1992566 C71.4951504,46.2016106 71.2185575,46.1286372 71.1008584,46.1427611 C71.1208673,46.1333451 71.1102743,46.0909735 71.2373894,46.2180885 L71.5269292,46.4652566 C71.6069646,46.5405841 71.6375664,46.5205752 71.7234867,46.5346991 C71.7752743,46.4405398 71.7540885,46.4793805 71.9753628,46.3875752 C72.0636372,46.3510885 72.1413186,46.3110708 72.2295929,46.285177 C72.1542655,46.281646 71.7729204,46.2404513 71.688177,46.1863097 C71.6764071,46.1792478 71.6693451,46.1710088 71.6599292,46.1639469 C71.6505133,46.156885 71.6399204,46.148646 71.6316814,46.1404071 C71.8458938,46.1380531 72.0189115,46.1957257 72.2484248,46.1969027 C72.2437168,46.2016106 72.1778053,46.3004779 72.221354,46.1733628 C72.2754956,46.013292 72.1648584,46.1863097 72.2719646,46.1321681 C72.2731416,46.1321681 72.2813805,46.1309912 72.2849115,46.1274602 L71.9353451,45.085823 C71.9353451,45.083469 71.9365221,45.0752301 71.9400531,45.0716991 C71.8906195,45.2517788 71.816469,45.5872212 71.816469,45.8190885 C71.6093186,45.8367434 71.4810265,45.9720973 71.3080088,45.9579735" id="Fill-62" fill="#E1C733"></path>
            <path d="M43.2767876,49.6184159 C43.1214248,49.5136637 43.0684602,49.212354 43.0037257,49.0369823 C42.9413451,48.8698496 42.9519381,48.9051593 42.9684159,48.8545487 C42.9142743,49.075823 42.8401239,49.3677168 42.8448319,49.5548584 C43.0096106,49.6278319 42.9754779,49.6549027 43.097885,49.743177 C43.1708584,49.7961416 43.3050354,49.869115 43.3391681,49.9538584 C43.3132743,49.9479735 43.362708,50.0656726 43.2944425,49.876177 C43.2614867,49.7820177 43.2579558,49.7608319 43.2461858,49.6513717 L43.3226903,49.7219912 C43.3250442,49.7243451 43.362708,49.7890796 43.363885,49.7914336 C43.3685929,49.8020265 43.3968407,49.8985398 43.4003717,49.9103097 C43.4109646,49.6596106 43.5533805,49.4053805 43.492177,49.1735133 C43.7499381,49.1911681 43.9782743,48.9722478 44.2019027,48.941646 C44.0430088,48.939292 43.8711681,48.8922124 43.7275752,48.8745575 C42.9072124,48.7745133 42.9872478,48.7356726 43.1167168,49.0875929 C43.1826283,49.2664956 43.2532478,49.4253894 43.2767876,49.6184159" id="Fill-63" fill="#E1C733"></path>
            <path d="M72.7098053,47.1479115 C72.5544425,47.0431593 72.5014779,46.7418496 72.4367434,46.5664779 C72.3755398,46.3993451 72.3849558,46.4346549 72.4026106,46.3828673 C72.348469,46.6053186 72.2731416,46.8960354 72.2778496,47.084354 C72.4426283,47.1573274 72.4096726,47.1843982 72.5309027,47.2726726 C72.6050531,47.3256372 72.7392301,47.3986106 72.7721858,47.483354 C72.746292,47.477469 72.7957257,47.5951681 72.7286372,47.4056726 C72.6945044,47.3115133 72.6909735,47.2903274 72.6792035,47.1808673 L72.755708,47.2514867 C72.7580619,47.2538407 72.7957257,47.3185752 72.7969027,47.3209292 C72.8027876,47.3315221 72.8298584,47.4280354 72.8333894,47.4398053 C72.8439823,47.1879292 72.9875752,46.9348761 72.9263717,46.7030088 C73.1829558,46.7206637 73.411292,46.5017434 73.6349204,46.4711416 C73.4760265,46.4676106 73.3041858,46.421708 73.1617699,46.4040531 C72.3402301,46.3028319 72.4214425,46.2651681 72.5509115,46.6170885 C72.615646,46.7959912 72.6862655,46.953708 72.7098053,47.1479115" id="Fill-64" fill="#E1C733"></path>
            <path d="M42.290469,49.0052035 L42.2339735,49.077 C42.1998407,49.1229027 42.2163186,49.082885 42.1904248,49.1452655 L42.0739027,49.7584779 C42.0503628,49.6996283 42.0503628,49.7831947 42.0939115,49.7161062 C42.0962655,49.7125752 42.1033274,49.7055133 42.1056814,49.7019823 L42.1421681,49.6478407 C42.2480973,49.4830619 42.1351062,49.5642743 42.3210708,49.4960088 C42.2551593,49.6549027 42.2516283,49.7078673 42.1139204,49.7796637 C42.3481416,49.6960973 42.561177,49.5819292 42.7530265,49.5277876 C42.7789204,49.3324071 42.8895575,49.0593451 42.8766106,48.8580796 C42.8789646,48.8674956 42.9260442,48.8533717 42.8648407,48.9228142 C42.7683274,49.0334513 42.8671947,48.9557699 42.7224248,49.0075575 L42.8071681,48.8263009 C42.696531,48.9016283 42.432885,49.0263894 42.290469,49.0052035" id="Fill-65" fill="#E1C733"></path>
            <path d="M71.7234867,46.5346991 L71.6669912,46.6064956 C71.6340354,46.6523982 71.6493363,46.6123805 71.6234425,46.6747611 L71.5080973,47.2879735 C71.4833805,47.2279469 71.4833805,47.3126903 71.5281062,47.2456018 C71.5304602,47.2420708 71.5363451,47.2350088 71.5386991,47.2314779 L71.5751858,47.1773363 C71.682292,47.0125575 71.5681239,47.0925929 71.7540885,47.0255044 C71.689354,47.1843982 71.684646,47.2373628 71.548115,47.3091593 C71.7823363,47.2255929 71.9953717,47.1114248 72.1872212,47.0572832 C72.213115,46.8619027 72.3225752,46.5888407 72.3096283,46.3875752 C72.3119823,46.3969912 72.3602389,46.3828673 72.2978584,46.4523097 C72.2013451,46.5629469 72.3002124,46.4852655 72.1554425,46.5370531 L72.2413628,46.3557965 C72.1295487,46.4311239 71.8659027,46.555885 71.7234867,46.5346991" id="Fill-66" fill="#E1C733"></path>
            <path d="M59.5039646,44.6632832 C59.4227522,44.6597522 59.4733628,44.6703451 59.4203982,44.6303274 C59.4133363,44.6244425 59.3674336,44.5667699 59.3639027,44.5632389 C59.312115,44.4926195 59.2968142,44.4902655 59.2756283,44.416115 C59.2320796,44.5008584 59.1261504,44.5961947 59.0425841,44.6632832 C58.9013451,44.7750973 59.0366991,44.6750531 58.9496018,44.7986372 L58.9025221,44.8445398 C58.9001681,44.8468938 58.8530885,44.8704336 58.8436726,44.8763186 L58.8389646,45.0316814 C59.1390973,45.0128496 59.3391858,44.9987257 59.6263717,45.0340354 C59.6040088,44.7856903 59.588708,44.8504248 59.5404513,44.8092301 L59.4886637,44.7668584 C59.4804248,44.7597965 59.4686549,44.7527345 59.4604159,44.7433186 C59.5086726,44.7127168 59.4874867,44.7892212 59.5039646,44.6632832" id="Fill-67" fill="#E1C733"></path>
            <path d="M56.0506726,44.8586637 C55.9400354,44.8621947 55.8176283,44.7468496 55.7611327,44.6444513 C55.6269558,44.8880885 55.6481416,44.7656814 55.5139646,45.0316814 C55.4327522,45.1917522 55.4209823,45.0469823 55.4221593,45.2835575 C55.4374602,45.2847345 56.121292,45.2082301 56.1930885,45.1964602 C56.1930885,45.1340796 56.2036814,45.1128938 56.1789646,45.0599292 C56.130708,44.9622389 56.1942655,45.0481593 56.1342389,45.0234425 C56.129531,45.0210885 56.120115,45.0199115 56.1154071,45.0175575 C56.1083451,45.0152035 56.0989292,45.0128496 56.0918673,45.0116726 C56.0859823,45.0093186 56.0718584,45.0057876 56.0659735,45.0046106 C56.0600885,45.0022566 56.0483186,45.0010796 56.0389027,44.9963717 L56.0506726,44.8586637" id="Fill-68" fill="#E1C733"></path>
            <path d="M57.1182035,48.9957876 L57.9209115,48.942823 C57.8703009,48.8380708 57.9185575,48.8345398 57.859708,48.7815752 L57.7561327,48.6485752 C57.7031681,48.5626549 57.5466283,48.4920354 57.4877788,48.3849292 C57.4053894,48.5838407 57.324177,48.5661858 57.2429646,48.7474425 L57.1982389,48.808646 C57.0358142,48.9687168 57.2700354,48.678 57.1629292,48.8368938 C57.1099646,48.9133982 57.1488053,49.074646 57.1182035,48.9957876" id="Fill-69" fill="#E1C733"></path>
        </g>
    </g>
</svg>