<?xml version="1.0" encoding="UTF-8"?>
<svg width="146px" height="151px" viewBox="0 0 146 151" version="1.1" xmlns="http://www.w3.org/2000/svg" xmlns:xlink="http://www.w3.org/1999/xlink">
    <!-- Generator: Sketch 42 (36781) - http://www.bohemiancoding.com/sketch -->
    <title>Cyprus</title>
    <desc>Created with Sketch.</desc>
    <defs>
        <path d="M0.477222808,50.8910397 C0.477310631,84.8525512 38.8602928,100.494157 44.221,111.332 C50.271,93.351 96.235,64.875 97.457,29.197 C97.905,16.09 92.73,0.682 77.788,0.682 C61.474,0.682 48.198,19.743 46.825,25.994 C45.453,32.245 41.182,29.197 40.421,25.385 C39.659,21.571 34.999,12.957 23.715,12.957 C15.635,12.957 0.798,21.881 0.48,50.39 C0.478145818,50.5574083 0.477222893,50.7243745 0.477222808,50.8909002 L0.477222808,50.8910273 L0.477222808,50.8910397 Z" id="path-1"></path>
        <path d="M13.48,59.39 C13.798,30.88 28.635,21.957 36.715,21.957 C47.999,21.957 52.659,30.571 53.421,34.385 C54.182,38.197 58.453,41.245 59.825,34.994 C61.198,28.743 74.474,9.682 90.788,9.682 C105.73,9.682 110.905,25.09 110.457,38.197 C109.235,73.875 63.271,102.351 57.221,120.332 C51.834,109.441 13.1,93.699 13.48,59.39 Z M96.125,0.84 C82.707,0.84 66.838,10.75 57.233,27.219 C54.641,21.271 45.407,14.79 34.43,14.79 C25.585,14.79 0.757,25.845 0.757,61.525 C0.757,107.573 47.345,117.031 56.763,131.342 C57.41,132.327 59.495,133.07 60.29,130.718 C67.805,108.539 126.077,83.482 126.077,38.349 C126.077,13.038 109.543,0.84 96.125,0.84 L96.125,0.84 Z" id="path-3"></path>
        <filter x="-50%" y="-50%" width="200%" height="200%" filterUnits="objectBoundingBox" id="filter-4">
            <feOffset dx="0" dy="0" in="SourceAlpha" result="shadowOffsetOuter1"></feOffset>
            <feGaussianBlur stdDeviation="5" in="shadowOffsetOuter1" result="shadowBlurOuter1"></feGaussianBlur>
            <feColorMatrix values="0 0 0 0 0   0 0 0 0 0   0 0 0 0 0  0 0 0 0.266191123 0" type="matrix" in="shadowBlurOuter1"></feColorMatrix>
        </filter>
    </defs>
    <g id="Page-1" stroke="none" stroke-width="1" fill="none" fill-rule="evenodd">
        <g id="Cyprus" transform="translate(9.718750, 9.634766)">
            <g id="Group-70" transform="translate(13.000000, 9.000000)">
                <mask id="mask-2" fill="white">
                    <use xlink:href="#path-1"></use>
                </mask>
                <g id="Clip-2"></g>
                <path d="M44.221,111.332 C38.834,100.441 0.1,84.699 0.48,50.39 C0.798,21.881 15.635,12.957 23.715,12.957 C34.999,12.957 39.659,21.571 40.421,25.385 C40.866,27.614 42.511,29.582 44.075,29.582 C45.186,29.582 46.255,28.59 46.825,25.994 C48.198,19.743 61.474,0.682 77.788,0.682 C92.73,0.682 97.905,16.09 97.457,29.197 C96.235,64.875 50.271,93.351 44.221,111.332 M43.508,80.94 C42.221,81.557 41.677,82.229 41.642,82.274 L41.609,82.318 L41.641,82.357 C41.642,82.358 41.813,82.554 41.976,82.782 C42.156,83.151 42.061,83.563 42.026,83.717 L42.027,83.827 L42.048,83.851 L42.078,83.848 C42.12,83.843 42.127,83.83 42.201,83.7 L42.219,83.667 C42.318,83.489 43.003,82.331 44.396,81.317 C45.789,82.038 46.472,83.051 46.573,83.207 L46.592,83.236 C46.656,83.338 46.669,83.358 46.699,83.358 L46.712,83.358 L46.744,83.356 L46.765,83.326 L46.768,83.217 C46.73,83.07 46.636,82.678 46.815,82.271 C46.979,82.01 47.149,81.777 47.151,81.776 L47.185,81.73 L47.149,81.692 C47.115,81.655 46.571,81.098 45.285,80.753 C45.682,80.535 46.12,80.338 46.601,80.176 L46.583,80.05 C45.731,80.171 45.006,80.358 44.396,80.573 C43.995,80.516 43.543,80.481 43.039,80.481 C42.777,80.481 42.5,80.491 42.209,80.511 L42.193,80.64 C42.674,80.701 43.111,80.806 43.508,80.94 M36.738,81.736 C36.737,81.736 36.735,81.737 36.733,81.737 C37.431,82.056 38.026,82.173 38.524,82.195 C38.576,82.198 38.626,82.199 38.676,82.199 C39.113,82.199 39.497,82.116 39.905,81.953 C40.627,81.73 41.017,81.446 41.236,81.227 C41.455,81.006 41.499,80.846 41.499,80.846 C41.499,80.846 41.499,80.846 41.498,80.844 L41.497,80.844 C41.476,80.818 41.231,80.53 40.572,80.53 L40.552,80.53 C40.199,80.531 39.739,80.616 39.137,80.827 C38.835,80.931 38.498,81.065 38.106,81.223 C37.718,81.379 37.277,81.559 36.747,81.733 L36.733,81.735 C36.735,81.735 36.736,81.736 36.738,81.736 M35.255,80.364 C35.2,80.364 35.143,80.368 35.084,80.375 C34.851,80.403 34.647,80.478 34.496,80.577 C34.347,80.677 34.244,80.801 34.222,80.944 C34.2,81.086 34.288,81.221 34.454,81.305 C34.58,81.372 34.749,81.409 34.933,81.409 C34.986,81.409 35.041,81.406 35.096,81.399 C35.59,81.339 35.957,81.064 35.96,80.783 C35.963,80.532 35.648,80.364 35.255,80.364 M48.886,79.66 C48.638,79.66 48.424,79.681 48.239,79.719 C47.535,79.861 47.292,80.235 47.292,80.236 C47.293,80.236 47.338,80.386 47.556,80.561 C47.774,80.732 48.163,80.935 48.886,81.006 C49.083,81.043 49.274,81.062 49.468,81.062 C49.722,81.062 49.982,81.029 50.269,80.956 C50.767,80.829 51.36,80.586 52.06,80.121 C52.057,80.121 52.055,80.121 52.052,80.12 C52.054,80.12 52.056,80.119 52.059,80.119 L52.042,80.119 C51.512,80.056 51.072,79.97 50.686,79.896 C50.295,79.821 49.957,79.757 49.654,79.717 C49.367,79.677 49.112,79.66 48.886,79.66 M29.246,79.531 C29.244,79.531 29.243,79.532 29.241,79.532 C29.937,79.879 30.437,80.133 30.896,80.279 C31.252,80.395 31.579,80.45 31.936,80.45 C32.036,80.45 32.139,80.446 32.246,80.437 L32.284,80.437 C33.014,80.437 33.489,80.259 33.754,80.088 C34.026,79.912 34.092,79.754 34.092,79.754 C34.092,79.754 34.092,79.753 34.091,79.751 L34.092,79.751 L34.091,79.751 C34.083,79.736 34.032,79.654 33.918,79.557 C33.792,79.448 33.593,79.319 33.272,79.224 C32.998,79.144 32.633,79.087 32.129,79.087 C32.042,79.087 31.951,79.089 31.855,79.092 C31.211,79.122 30.352,79.222 29.246,79.531 L29.242,79.531 L29.246,79.531 M34.349,78.693 C34.613,79.025 34.921,79.262 35.203,79.447 C35.486,79.63 35.752,79.763 36.001,79.865 C36.502,80.066 36.942,80.142 37.447,80.158 C37.752,80.195 38.01,80.209 38.229,80.209 C38.561,80.209 38.805,80.176 38.992,80.135 C39.298,80.068 39.436,79.967 39.436,79.966 L39.436,79.964 L39.437,79.964 C39.437,79.964 39.437,79.964 39.436,79.964 C39.435,79.945 39.43,79.841 39.352,79.691 C39.267,79.529 39.084,79.31 38.725,79.126 C38.37,78.937 37.84,78.798 37.124,78.763 C36.96,78.754 36.785,78.751 36.601,78.751 C36.383,78.751 36.151,78.756 35.904,78.762 C35.72,78.764 35.529,78.77 35.327,78.77 C35.034,78.77 34.721,78.757 34.381,78.699 L34.351,78.691 C34.352,78.692 34.354,78.693 34.356,78.694 C34.354,78.694 34.351,78.693 34.349,78.693 M38.599,77.534 C38.992,78.189 39.336,78.633 39.66,78.961 C39.987,79.288 40.305,79.497 40.711,79.663 C41.298,79.979 41.725,80.058 42.014,80.058 L42.028,80.058 C42.317,80.055 42.462,79.97 42.463,79.968 C42.463,79.968 42.463,79.968 42.463,79.966 L42.465,79.967 C42.464,79.967 42.464,79.966 42.463,79.966 C42.47,79.931 42.546,79.52 42.122,79.02 C41.898,78.759 41.538,78.478 40.97,78.228 C40.686,78.102 40.352,77.984 39.96,77.872 C39.569,77.759 39.123,77.655 38.607,77.536 L38.6,77.531 C38.602,77.533 38.604,77.534 38.606,77.535 C38.603,77.535 38.601,77.534 38.599,77.534 M46.329,79.561 C46.329,79.562 46.39,79.585 46.512,79.585 C46.578,79.585 46.662,79.579 46.764,79.558 C47.056,79.501 47.485,79.333 48.08,78.886 C48.486,78.634 48.805,78.358 49.132,77.962 C49.455,77.565 49.8,77.049 50.193,76.31 C50.192,76.311 50.191,76.311 50.189,76.312 C50.19,76.311 50.191,76.31 50.192,76.309 L50.189,76.312 C49.671,76.543 49.222,76.741 48.832,76.936 C48.44,77.13 48.106,77.319 47.822,77.505 C47.255,77.876 46.893,78.232 46.671,78.539 C46.242,79.135 46.323,79.531 46.329,79.56 L46.328,79.56 L46.329,79.56 L46.329,79.561 M53.848,78.404 C53.802,78.404 53.755,78.406 53.707,78.411 C53.238,78.454 52.828,78.717 52.832,79.002 C52.835,79.257 53.138,79.443 53.562,79.443 C53.606,79.443 53.651,79.441 53.697,79.437 C53.943,79.414 54.174,79.328 54.339,79.209 C54.504,79.089 54.593,78.935 54.57,78.798 C54.548,78.66 54.443,78.558 54.295,78.489 C54.176,78.436 54.023,78.404 53.848,78.404 M29.497,77.985 C29.463,77.985 29.428,77.987 29.393,77.991 C29.001,78.032 28.684,78.295 28.684,78.576 C28.684,78.834 28.947,79.021 29.29,79.021 C29.324,79.021 29.358,79.019 29.393,79.016 C29.783,78.974 30.1,78.711 30.1,78.428 L30.358,78.401 C30.274,78.41 30.188,78.419 30.1,78.428 C30.1,78.428 30.1,78.428 30.1,78.427 C30.1,78.17 29.838,77.985 29.497,77.985 M49.355,78.916 L49.355,78.919 C49.355,78.922 49.493,78.994 49.801,78.996 L49.822,78.996 C50.131,78.996 50.594,78.941 51.347,78.693 C51.85,78.57 52.29,78.401 52.79,78.094 C53.04,77.94 53.306,77.751 53.59,77.507 C53.871,77.264 54.179,76.961 54.442,76.572 C54.441,76.573 54.439,76.574 54.438,76.574 C54.439,76.573 54.44,76.572 54.441,76.571 L54.422,76.581 C53.843,76.805 53.341,76.881 52.889,76.97 C52.431,77.056 52.027,77.134 51.67,77.229 C50.952,77.415 50.423,77.666 50.067,77.929 C49.708,78.189 49.525,78.447 49.44,78.628 C49.361,78.794 49.356,78.897 49.355,78.916 C49.355,78.916 49.355,78.916 49.354,78.917 L49.355,78.916 M28.818,76.691 L28.811,76.691 C29.84,77.725 30.34,78.153 31.204,78.326 C31.559,78.438 31.859,78.479 32.105,78.479 C32.305,78.479 32.469,78.452 32.6,78.414 C32.893,78.331 32.999,78.189 32.997,78.189 C32.997,78.189 32.997,78.188 32.996,78.185 C32.997,78.185 32.997,78.186 32.998,78.186 L32.996,78.185 C32.992,78.165 32.971,78.072 32.909,77.944 C32.838,77.8 32.712,77.611 32.459,77.42 C32.206,77.231 31.825,77.04 31.243,76.9 C30.733,76.779 30.069,76.685 29.201,76.685 C29.078,76.685 28.95,76.687 28.818,76.691 L28.813,76.689 C28.815,76.69 28.816,76.69 28.818,76.691 M36.668,77.282 L36.668,77.282 C36.567,77.392 36.549,77.554 36.588,77.709 C36.628,77.865 36.728,78.02 36.873,78.14 C37.035,78.27 37.213,78.334 37.377,78.334 C37.514,78.334 37.641,78.29 37.742,78.204 C37.853,78.106 37.894,77.944 37.859,77.777 C37.824,77.611 37.722,77.441 37.565,77.314 C37.41,77.185 37.231,77.122 37.07,77.119 L37.052,77.119 C36.897,77.119 36.765,77.178 36.668,77.282 M32.225,76.073 C32.571,76.671 32.845,77.093 33.147,77.396 C33.446,77.698 33.765,77.885 34.181,77.992 C34.494,78.108 34.765,78.149 34.991,78.149 C35.216,78.149 35.396,78.108 35.528,78.059 C35.796,77.956 35.893,77.819 35.894,77.819 C35.894,77.819 35.894,77.819 35.894,77.82 C35.895,77.819 35.895,77.818 35.895,77.816 L35.896,77.816 L35.895,77.815 C35.891,77.772 35.814,77.404 35.394,77.084 C35.171,76.91 34.856,76.745 34.362,76.579 C33.869,76.417 33.19,76.23 32.229,76.073 L32.225,76.072 C32.226,76.072 32.227,76.073 32.227,76.073 L32.225,76.073 M24.818,76.596 C24.978,76.891 25.178,77.117 25.362,77.302 C25.549,77.486 25.731,77.626 25.908,77.736 C26.263,77.955 26.605,78.051 27.018,78.06 C27.142,78.075 27.259,78.082 27.368,78.082 C27.804,78.082 28.113,77.97 28.308,77.852 C28.552,77.705 28.619,77.551 28.62,77.551 C28.62,77.551 28.62,77.551 28.619,77.549 L28.62,77.549 L28.619,77.549 C28.614,77.534 28.579,77.446 28.498,77.335 C28.407,77.214 28.262,77.064 28.018,76.939 C27.772,76.814 27.426,76.717 26.914,76.678 C26.66,76.656 26.363,76.649 26.019,76.648 C25.679,76.643 25.295,76.659 24.847,76.6 L24.82,76.593 C24.822,76.595 24.823,76.596 24.825,76.597 C24.823,76.597 24.82,76.597 24.818,76.596 M54.698,77.58 C54.7,77.58 54.765,77.726 55.036,77.843 C55.197,77.912 55.432,77.968 55.753,77.968 C55.975,77.968 56.238,77.941 56.545,77.874 C57.03,77.811 57.44,77.674 57.897,77.431 C58.355,77.187 58.854,76.829 59.55,76.336 C59.547,76.335 59.545,76.335 59.543,76.335 C59.545,76.334 59.547,76.334 59.55,76.333 L59.542,76.335 C59.241,76.315 58.958,76.306 58.693,76.306 C57.986,76.306 57.405,76.369 56.936,76.447 C56.287,76.559 55.84,76.715 55.52,76.878 C55.198,77.04 55.002,77.211 54.874,77.346 C54.76,77.468 54.709,77.56 54.7,77.577 L54.698,77.578 L54.699,77.578 C54.699,77.579 54.698,77.58 54.698,77.58 M51.857,75.557 C51.815,75.557 51.77,75.562 51.723,75.574 C51.56,75.611 51.382,75.712 51.226,75.873 C51.069,76.033 50.967,76.224 50.933,76.399 C50.899,76.572 50.938,76.726 51.05,76.8 C51.12,76.845 51.202,76.867 51.291,76.867 C51.486,76.867 51.714,76.76 51.918,76.553 C52.064,76.402 52.164,76.226 52.204,76.061 C52.242,75.899 52.225,75.741 52.123,75.652 C52.052,75.59 51.962,75.557 51.857,75.557 M30.487,75.414 L30.487,75.414 C30.306,75.652 30.411,76.015 30.701,76.194 C30.816,76.265 30.941,76.299 31.061,76.299 C31.241,76.299 31.41,76.223 31.518,76.081 C31.698,75.844 31.592,75.48 31.302,75.301 C31.187,75.231 31.062,75.197 30.942,75.197 C30.763,75.197 30.594,75.273 30.487,75.414 M52.897,76.025 C52.898,76.025 52.997,76.141 53.263,76.187 C53.319,76.196 53.384,76.202 53.457,76.202 C53.729,76.202 54.118,76.123 54.61,75.839 C55.028,75.643 55.347,75.388 55.646,75.022 C55.947,74.655 56.223,74.175 56.568,73.505 C56.566,73.506 56.565,73.507 56.563,73.508 C56.564,73.506 56.566,73.505 56.567,73.503 L56.56,73.509 C55.601,73.866 54.921,74.197 54.429,74.463 C53.936,74.733 53.621,74.964 53.397,75.185 C52.954,75.618 52.894,76.022 52.896,76.025 L52.897,76.025 M25.141,73.136 C25.294,73.875 25.525,74.393 25.774,74.779 C26.027,75.165 26.31,75.421 26.688,75.631 C27.235,76.011 27.654,76.1 27.935,76.107 L27.956,76.107 C28.222,76.107 28.359,76.028 28.359,76.028 C28.359,76.028 28.36,76.027 28.36,76.025 L28.361,76.025 L28.36,76.025 C28.371,75.987 28.461,75.586 28.106,75.085 C27.922,74.82 27.617,74.534 27.137,74.235 C26.897,74.085 26.615,73.93 26.284,73.758 C25.955,73.586 25.578,73.395 25.149,73.141 L25.143,73.135 C25.143,73.136 25.144,73.137 25.145,73.138 C25.143,73.137 25.142,73.137 25.141,73.136 M24.37,75.284 L24.37,75.284 C24.304,75.415 24.331,75.571 24.43,75.701 C24.528,75.831 24.689,75.931 24.866,75.98 C24.948,76.003 25.027,76.013 25.1,76.013 C25.183,76.013 25.259,75.999 25.325,75.975 L25.499,75.888 L25.679,75.771 L25.781,75.576 L25.709,75.322 C25.608,75.159 25.428,75.038 25.23,74.983 C25.144,74.96 25.061,74.949 24.982,74.949 C24.879,74.949 24.783,74.968 24.699,75 C24.553,75.057 24.435,75.151 24.37,75.284 M55.794,75.784 C55.793,75.784 55.901,75.904 56.193,75.926 C56.227,75.929 56.264,75.93 56.303,75.93 C56.594,75.93 57.021,75.841 57.589,75.543 C58.451,75.189 58.951,74.655 59.98,73.403 C59.979,73.404 59.977,73.404 59.975,73.404 L59.98,73.401 C59.979,73.402 59.977,73.403 59.975,73.404 C58.914,73.596 58.131,73.864 57.55,74.125 C56.967,74.388 56.585,74.659 56.332,74.902 C56.079,75.146 55.955,75.362 55.884,75.521 C55.82,75.664 55.798,75.764 55.795,75.781 L55.794,75.782 L55.794,75.784 M58.691,75.411 C58.692,75.67 58.955,75.856 59.298,75.856 C59.331,75.856 59.365,75.854 59.399,75.85 C59.791,75.809 60.108,75.545 60.108,75.262 C60.108,75.005 59.846,74.82 59.504,74.82 C59.47,74.82 59.435,74.821 59.399,74.825 C59.008,74.867 58.691,75.129 58.691,75.411 L58.434,75.439 C58.518,75.43 58.604,75.421 58.691,75.411 M27.972,72.643 C27.898,73.292 27.922,73.774 28.004,74.15 C28.089,74.529 28.242,74.807 28.501,75.06 C28.848,75.498 29.206,75.636 29.45,75.664 C29.485,75.667 29.519,75.669 29.55,75.669 C29.642,75.669 29.714,75.655 29.764,75.641 C29.813,75.627 29.839,75.613 29.84,75.613 C29.841,75.613 29.841,75.612 29.842,75.61 C29.842,75.611 29.843,75.611 29.843,75.611 L29.842,75.61 C29.862,75.573 30.015,75.212 29.88,74.751 C29.808,74.503 29.657,74.223 29.357,73.89 C29.208,73.724 29.021,73.543 28.793,73.341 C28.565,73.139 28.294,72.921 27.982,72.651 L27.976,72.642 C27.976,72.644 27.977,72.646 27.978,72.648 C27.976,72.646 27.974,72.645 27.972,72.643 M60.173,74.223 C60.173,74.223 60.241,74.362 60.485,74.459 C60.603,74.506 60.763,74.541 60.968,74.541 C61.185,74.541 61.453,74.502 61.775,74.393 C62.186,74.298 62.528,74.129 62.885,73.836 C63.06,73.689 63.242,73.51 63.43,73.286 C63.613,73.063 63.813,72.795 63.974,72.465 C63.971,72.467 63.967,72.468 63.964,72.469 C63.966,72.467 63.969,72.465 63.971,72.463 L63.94,72.477 C63.494,72.631 63.111,72.694 62.773,72.771 C62.428,72.845 62.132,72.914 61.877,72.99 C61.366,73.137 61.019,73.307 60.775,73.484 C60.529,73.659 60.384,73.84 60.294,73.982 C60.211,74.112 60.178,74.208 60.173,74.222 L60.173,74.223 M21.347,72.891 L21.342,72.891 C21.529,73.122 21.665,73.33 21.8,73.508 C21.931,73.688 22.054,73.837 22.181,73.963 C22.436,74.21 22.706,74.357 23.069,74.425 C23.28,74.493 23.472,74.52 23.642,74.52 C23.907,74.52 24.116,74.454 24.256,74.377 C24.489,74.25 24.56,74.103 24.562,74.103 L24.562,74.101 C24.56,74.086 24.538,73.993 24.479,73.875 C24.414,73.743 24.313,73.584 24.135,73.435 C23.957,73.288 23.702,73.153 23.27,73.043 C23.055,72.987 22.794,72.937 22.476,72.9 C22.285,72.88 22.071,72.862 21.836,72.862 C21.681,72.862 21.518,72.87 21.347,72.891 C21.345,72.89 21.344,72.89 21.343,72.889 L21.347,72.891 M57.978,72.345 C57.822,72.345 57.647,72.41 57.489,72.54 C57.198,72.779 57.094,73.165 57.275,73.363 C57.357,73.454 57.473,73.499 57.602,73.499 C57.758,73.499 57.933,73.434 58.09,73.304 C58.381,73.065 58.485,72.678 58.305,72.48 C58.223,72.39 58.107,72.345 57.978,72.345 M26.666,72.177 L26.666,72.177 L26.529,72.339 L26.423,72.5 C26.37,72.621 26.358,72.774 26.405,72.931 C26.478,73.179 26.689,73.356 26.907,73.356 C26.963,73.356 27.02,73.344 27.075,73.319 C27.338,73.196 27.482,72.874 27.386,72.538 C27.334,72.371 27.228,72.233 27.089,72.153 L26.861,72.086 L26.666,72.177 M60.43,72.643 C60.43,72.645 60.431,72.646 60.431,72.646 C60.431,72.646 60.487,72.666 60.598,72.666 C60.665,72.666 60.752,72.658 60.857,72.634 C61.137,72.567 61.558,72.39 62.104,71.895 C62.48,71.606 62.766,71.29 63.018,70.85 C63.267,70.413 63.497,69.844 63.651,69.074 C63.65,69.075 63.649,69.076 63.648,69.076 C63.649,69.075 63.65,69.074 63.65,69.073 L63.644,69.079 C63.217,69.424 62.838,69.694 62.508,69.936 C62.176,70.18 61.895,70.393 61.655,70.595 C61.175,70.994 60.87,71.345 60.686,71.649 C60.331,72.226 60.42,72.608 60.43,72.643 M24.56,69.383 C24.451,69.998 24.361,70.433 24.36,70.799 C24.356,71.163 24.427,71.451 24.601,71.745 C24.809,72.235 25.112,72.463 25.339,72.538 C25.43,72.568 25.508,72.577 25.57,72.577 C25.616,72.577 25.653,72.572 25.679,72.567 C25.704,72.562 25.719,72.557 25.72,72.557 C25.72,72.557 25.721,72.557 25.721,72.555 L25.722,72.556 L25.722,72.555 C25.731,72.541 25.787,72.457 25.842,72.328 C25.902,72.185 25.963,71.991 25.965,71.746 C25.963,71.501 25.901,71.201 25.698,70.81 C25.597,70.614 25.461,70.397 25.276,70.156 C25.093,69.918 24.862,69.651 24.563,69.386 L24.562,69.383 C24.562,69.384 24.563,69.385 24.563,69.386 C24.562,69.385 24.561,69.384 24.56,69.383 M58.95,72.539 C58.95,72.541 58.951,72.542 58.951,72.542 C58.951,72.542 58.993,72.556 59.072,72.556 C59.137,72.556 59.228,72.546 59.341,72.51 C59.585,72.432 59.942,72.217 60.292,71.706 C60.549,71.401 60.702,71.089 60.788,70.691 C60.869,70.297 60.894,69.812 60.818,69.178 C60.817,69.179 60.816,69.18 60.815,69.181 C60.816,69.18 60.816,69.179 60.816,69.178 L60.813,69.183 C60.5,69.521 60.227,69.8 60,70.049 C59.77,70.301 59.583,70.52 59.434,70.718 C59.135,71.113 58.983,71.425 58.912,71.687 C58.777,72.177 58.931,72.505 58.949,72.539 L58.948,72.541 C58.949,72.541 58.949,72.54 58.95,72.539 M20.761,68.944 C20.913,69.306 21.016,69.623 21.117,69.902 C21.217,70.18 21.314,70.421 21.42,70.635 C21.63,71.063 21.878,71.385 22.253,71.677 C22.788,72.187 23.289,72.329 23.597,72.329 C23.909,72.329 24.044,72.217 24.046,72.217 L24.046,72.215 L24.047,72.216 L24.046,72.215 C24.048,72.2 24.051,72.099 24.017,71.946 C23.978,71.78 23.904,71.559 23.736,71.294 C23.566,71.027 23.306,70.709 22.852,70.306 C22.625,70.106 22.351,69.881 22.01,69.644 C21.671,69.41 21.265,69.151 20.767,68.947 C20.766,68.946 20.765,68.944 20.763,68.943 L20.767,68.947 C20.765,68.946 20.763,68.945 20.761,68.944 M63.98,70.836 C63.855,70.836 63.713,70.867 63.562,70.941 C63.363,71.037 63.185,71.195 63.084,71.379 C63.033,71.471 63.006,71.568 63.01,71.649 L63.112,71.822 L63.293,71.901 L63.467,71.953 C63.492,71.957 63.519,71.959 63.547,71.959 C63.656,71.959 63.784,71.929 63.925,71.859 C64.103,71.774 64.264,71.639 64.362,71.488 C64.462,71.338 64.488,71.177 64.423,71.058 C64.357,70.94 64.238,70.87 64.092,70.845 C64.056,70.839 64.019,70.836 63.98,70.836 M64.23,69.919 C64.232,69.919 64.304,70.051 64.535,70.129 C64.616,70.157 64.719,70.175 64.844,70.175 C65.073,70.175 65.372,70.112 65.724,69.927 C66.085,69.78 66.354,69.576 66.61,69.275 C66.738,69.124 66.861,68.948 66.993,68.741 C67.125,68.535 67.262,68.298 67.45,68.027 L67.448,68.027 C67.014,68.065 66.633,68.176 66.316,68.276 C65.997,68.38 65.737,68.485 65.52,68.586 C65.091,68.788 64.835,68.977 64.656,69.162 C64.479,69.347 64.378,69.528 64.312,69.673 C64.256,69.799 64.235,69.894 64.231,69.915 L64.228,69.917 C64.229,69.916 64.23,69.916 64.231,69.916 C64.231,69.918 64.23,69.919 64.23,69.919 M61.93,68.388 L61.703,68.502 C61.563,68.612 61.456,68.771 61.407,68.95 C61.309,69.305 61.455,69.598 61.719,69.665 C61.747,69.672 61.776,69.675 61.805,69.675 C62.049,69.675 62.305,69.431 62.386,69.135 C62.432,68.968 62.421,68.819 62.369,68.709 L62.263,68.57 L62.125,68.437 L61.93,68.388 M63.072,68.617 C63.073,68.617 63.077,68.618 63.082,68.618 C63.088,68.618 63.097,68.619 63.107,68.619 C63.165,68.619 63.289,68.607 63.453,68.517 C63.682,68.395 63.981,68.104 64.19,67.569 C64.364,67.238 64.436,66.934 64.432,66.571 C64.43,66.207 64.341,65.79 64.232,65.199 C64.23,65.202 64.228,65.204 64.226,65.206 C64.227,65.204 64.228,65.202 64.228,65.199 L64.226,65.206 C63.927,65.533 63.698,65.846 63.516,66.122 C63.331,66.402 63.195,66.648 63.093,66.865 C62.891,67.299 62.827,67.612 62.827,67.857 C62.827,68.102 62.889,68.283 62.95,68.414 C63.006,68.535 63.064,68.608 63.071,68.616 L63.07,68.617 L63.071,68.617 L63.072,68.617 M32.534,64.49 C32.877,64.547 33.121,64.716 33.393,64.854 C33.651,65.008 33.945,65.12 34.119,65.369 C34.576,65.923 34.523,67.043 34.525,68.102 C35.062,68.009 35.425,67.758 35.884,67.595 C36.132,67.575 36.371,67.548 36.563,67.478 C36.695,67.511 36.889,67.556 37.079,67.556 C37.241,67.556 37.4,67.523 37.514,67.423 C37.604,67.289 37.384,67.113 37.377,66.938 C37.267,66.802 37.181,66.639 37.106,66.466 C37.039,66.009 36.892,65.64 36.924,65.074 L36.97,64.886 C37.249,64.4 37.537,63.94 37.967,63.597 C38.768,62.96 39.891,62.686 41.001,62.321 C42.059,62.178 42.915,62.258 43.898,62.198 C44.193,62.02 44.423,61.733 44.759,61.562 C45.227,61.323 45.769,61.243 46.298,61.035 C47.178,60.341 48.07,59.656 49.195,59.182 C49.601,59.076 50.001,58.965 50.372,58.83 C50.718,58.61 50.978,58.313 51.324,58.093 C51.625,57.819 51.804,57.433 52.229,57.269 C52.34,57.242 52.449,57.234 52.555,57.234 C52.634,57.234 52.711,57.238 52.786,57.243 C52.861,57.247 52.933,57.252 53.004,57.252 C53.114,57.252 53.219,57.241 53.315,57.2 C53.445,57.18 53.398,57.002 53.405,56.872 C53.414,56.742 53.489,56.674 53.496,56.544 C53.736,56.229 53.967,55.905 53.993,55.4 C54.114,55.038 53.693,55.087 53.813,54.872 C53.922,54.401 54.037,54.042 53.95,53.492 C54.196,52.895 54.4,52.259 54.9,51.89 C55.27,51.676 55.789,51.598 56.303,51.515 C56.731,51.354 57.129,51.164 57.662,51.099 C58.199,51.154 58.623,51.335 59.066,51.496 C59.271,51.602 59.473,51.711 59.699,51.793 C59.894,51.899 60.009,52.092 60.299,52.092 C60.31,52.092 60.322,52.092 60.334,52.091 C60.628,52.083 60.707,51.88 60.968,51.842 C61.611,51.283 62.082,50.569 63.05,50.302 C63.263,50.28 63.473,50.258 63.684,50.235 C64.11,50.292 64.433,50.465 64.815,50.571 C64.921,50.577 65.029,50.579 65.14,50.579 C65.603,50.579 66.106,50.536 66.627,50.471 C66.522,50.072 66.361,49.734 66.219,49.376 C66.01,49.214 65.923,48.918 65.677,48.797 C65.541,48.554 65.314,48.409 65.179,48.166 C64.985,47.986 64.807,47.791 64.635,47.587 C64.512,47.525 64.419,47.432 64.363,47.297 C64.259,47.215 64.121,47.171 64.092,47.007 C63.684,46.67 63.375,46.225 63.006,45.847 C62.697,45.416 62.268,45.093 62.008,44.587 C61.724,44.027 61.638,43.322 61.647,42.395 C61.791,41.887 61.958,41.401 62.19,40.971 C62.43,40.537 62.665,40.096 63.05,39.789 C63.451,39.513 64.074,39.436 64.544,39.222 C64.906,38.956 65.259,38.682 65.585,38.384 C65.779,38.24 66.041,38.157 66.219,37.999 C66.357,37.758 66.431,37.461 66.581,37.232 C66.739,36.98 67.016,36.834 67.215,36.619 C67.299,36.392 67.352,36.134 67.487,35.953 C67.869,35.463 68.325,35.039 68.801,34.632 C69.581,33.665 70.96,33.238 71.924,32.436 C72.413,32.04 72.796,31.552 73.283,31.154 C73.82,30.654 74.791,30.539 75.23,29.948 C75.347,29.675 75.313,29.266 75.41,28.973 C75.566,28.704 75.928,28.618 76.135,28.397 C76.337,28.152 76.62,27.983 76.905,27.815 C77.322,27.628 77.849,27.542 78.218,27.312 C78.461,27.015 78.644,26.664 78.806,26.295 C78.957,25.914 79.296,25.702 79.44,25.317 C79.514,24.882 79.634,24.247 79.576,23.847 C79.089,24.196 78.546,24.497 78.082,24.869 C77.557,25.184 77.12,25.581 76.453,25.769 C76.384,25.821 76.312,25.835 76.236,25.835 C76.191,25.835 76.145,25.83 76.098,25.825 C76.051,25.82 76.002,25.816 75.951,25.816 C75.894,25.816 75.835,25.822 75.773,25.84 C75.349,26.127 74.944,26.429 74.596,26.784 C74.208,27.103 73.915,27.507 73.464,27.768 C73.327,28.013 73.19,28.21 72.966,28.367 C72.765,28.507 72.52,28.54 72.332,28.706 C72.316,28.71 72.301,28.712 72.286,28.712 C72.227,28.712 72.181,28.683 72.138,28.655 C72.095,28.626 72.055,28.598 72.008,28.598 C71.971,28.598 71.929,28.615 71.879,28.663 C71.204,29.031 70.617,29.532 69.978,29.957 C69.336,30.38 68.645,30.736 67.986,31.168 C67.483,31.384 67.125,31.73 66.673,31.989 C66.43,32.073 66.108,32.088 65.856,32.166 C65.337,32.425 64.977,32.829 64.544,33.169 C64.159,33.428 63.719,33.64 63.412,33.971 C63.165,34.123 62.939,34.289 62.687,34.457 C62.303,34.716 61.932,34.931 61.557,35.122 C61.441,35.18 61.341,35.206 61.239,35.247 L61.147,35.348 C60.858,35.481 60.556,35.562 60.242,35.671 C59.02,36.096 57.727,36.426 56.665,37.049 C56.227,37.261 55.858,37.536 55.489,37.811 C55.198,38.171 54.837,38.467 54.402,38.698 C53.946,38.768 53.573,38.905 53.13,38.905 C53.073,38.905 53.014,38.903 52.954,38.898 C52.409,39.135 51.808,39.323 51.188,39.493 C50.402,39.594 49.681,39.765 48.969,39.955 C48.249,40.147 47.538,40.303 46.796,40.502 C46.447,40.371 46.091,40.344 45.691,40.344 C45.538,40.344 45.379,40.348 45.211,40.352 C45.035,40.355 44.864,40.357 44.696,40.357 C43.921,40.357 43.217,40.321 42.495,40.274 C41.924,40.236 41.308,40.248 40.728,40.188 C40.465,40.159 40.213,40.069 39.958,40.04 C39.761,40.018 39.56,40.008 39.355,40.008 C38.892,40.008 38.404,40.058 37.876,40.124 C36.467,39.944 35.37,39.418 34.345,38.813 L34.299,38.817 L34.39,38.989 C34.372,39.793 34.202,40.46 34.254,41.325 C34.39,41.72 34.737,41.881 34.843,42.309 C34.856,42.671 34.75,42.924 34.707,43.234 C34.667,43.521 34.777,43.641 34.843,43.812 C34.67,44.036 34.454,44.22 34.39,44.542 C34.402,44.855 34.417,44.921 34.39,45.225 C34.192,46.321 33.696,47.15 32.805,47.621 C32.69,47.732 32.446,47.723 32.308,47.811 C31.754,47.862 31.205,47.91 30.698,47.91 C30.535,47.91 30.377,47.905 30.225,47.894 C29.646,47.717 29.144,47.455 28.503,47.347 C28.225,47.264 27.897,47.235 27.544,47.235 C27.146,47.235 26.715,47.272 26.284,47.309 C25.847,47.536 25.514,47.858 24.972,47.993 C24.947,47.995 24.924,47.996 24.901,47.996 C24.799,47.996 24.713,47.977 24.628,47.958 C24.543,47.939 24.457,47.92 24.355,47.92 C24.296,47.92 24.231,47.926 24.157,47.943 C23.757,48.189 23.503,48.567 23.296,48.989 C23.048,49.387 22.831,49.814 22.618,50.244 C22.41,50.679 22.113,51.034 21.894,51.458 C21.563,51.783 21.386,52.246 20.987,52.509 C20.541,52.752 20.031,52.837 19.526,52.837 C18.945,52.837 18.37,52.724 17.909,52.607 C17.303,52.293 16.755,51.915 16.189,51.559 C16.162,51.375 15.98,51.366 15.962,51.173 C15.895,51.141 15.818,51.12 15.826,51.005 L15.735,50.924 L15.69,50.975 C15.716,51.461 15.755,51.934 15.735,52.471 C15.888,52.848 15.995,53.276 16.098,53.708 C16.41,54.195 16.722,54.682 16.913,55.305 C17.157,55.642 17.589,55.768 17.727,56.221 C17.758,56.536 17.686,56.76 17.681,57.044 C18.002,57.798 18.092,58.805 18.407,59.563 C18.881,59.658 19.517,59.574 19.674,60.02 C19.622,60.246 19.536,60.442 19.538,60.717 C19.583,60.925 19.65,61.109 19.629,61.391 C19.957,61.907 20.245,62.467 20.535,63.023 C21.131,63.439 21.629,63.964 22.3,64.295 C22.769,64.35 23.295,64.343 23.794,64.365 C24.309,64.629 25.018,64.674 25.606,64.856 C25.897,64.943 25.83,65.427 26.194,65.432 C26.24,65.446 26.286,65.451 26.333,65.451 C26.442,65.451 26.555,65.422 26.675,65.393 C26.795,65.364 26.922,65.335 27.059,65.335 C27.073,65.335 27.087,65.335 27.101,65.336 C27.562,65.445 27.762,65.844 28.277,65.894 C28.721,65.717 29.164,65.54 29.726,65.468 C29.977,65.299 30.179,65.087 30.496,64.978 C31.172,64.812 31.808,64.61 32.534,64.49 M64.746,67.924 C64.748,67.924 64.766,67.935 64.802,67.945 C64.839,67.956 64.895,67.966 64.971,67.966 C65.032,67.966 65.105,67.959 65.193,67.941 C65.504,67.876 66.004,67.628 66.539,67.005 C66.913,66.635 67.161,66.261 67.372,65.787 C67.479,65.553 67.573,65.292 67.674,64.991 C67.777,64.69 67.879,64.352 68.03,63.959 C68.028,63.961 68.025,63.962 68.022,63.964 L68.028,63.957 C68.026,63.959 68.024,63.962 68.022,63.964 C67.525,64.272 67.121,64.617 66.78,64.92 C66.441,65.231 66.166,65.512 65.94,65.761 C65.486,66.261 65.225,66.632 65.056,66.936 C64.889,67.236 64.814,67.472 64.775,67.647 C64.741,67.803 64.744,67.904 64.746,67.922 L64.744,67.923 C64.745,67.923 64.745,67.923 64.746,67.922 L64.746,67.924" id="Fill-1" fill="#FFFFFF" mask="url(#mask-2)"></path>
                <path d="M52.052,80.12 C52.049,80.12 52.045,80.12 52.042,80.119 L52.059,80.119 C52.056,80.119 52.054,80.12 52.052,80.12" id="Fill-3" fill="#116551" mask="url(#mask-2)"></path>
                <path d="M49.468,81.062 C49.274,81.062 49.083,81.043 48.886,81.006 C48.163,80.935 47.774,80.732 47.556,80.561 C47.338,80.386 47.293,80.236 47.292,80.236 C47.292,80.235 47.535,79.861 48.239,79.719 C48.424,79.681 48.638,79.66 48.886,79.66 C49.112,79.66 49.367,79.677 49.654,79.717 C49.957,79.757 50.295,79.821 50.686,79.896 C51.072,79.97 51.512,80.056 52.042,80.119 C52.045,80.12 52.049,80.12 52.052,80.12 C52.055,80.121 52.057,80.121 52.06,80.121 C51.36,80.586 50.767,80.829 50.269,80.956 C49.982,81.029 49.722,81.062 49.468,81.062" id="Fill-4" fill="#116551" mask="url(#mask-2)"></path>
                <path d="M46.328,79.56 L46.329,79.56 L46.328,79.56 M50.189,76.312 L50.192,76.309 C50.191,76.31 50.19,76.311 50.189,76.312" id="Fill-5" fill="#116551" mask="url(#mask-2)"></path>
                <path d="M46.512,79.585 C46.39,79.585 46.329,79.562 46.329,79.561 C46.329,79.561 46.329,79.561 46.329,79.56 C46.323,79.531 46.242,79.135 46.671,78.539 C46.893,78.232 47.255,77.876 47.822,77.505 C48.106,77.319 48.44,77.13 48.832,76.936 C49.222,76.741 49.671,76.543 50.189,76.312 C50.191,76.311 50.192,76.311 50.193,76.31 C49.8,77.049 49.455,77.565 49.132,77.962 C48.805,78.358 48.486,78.634 48.08,78.886 C47.485,79.333 47.056,79.501 46.764,79.558 C46.662,79.579 46.578,79.585 46.512,79.585" id="Fill-6" fill="#116551" mask="url(#mask-2)"></path>
                <path d="M49.354,78.917 L49.355,78.916 L49.354,78.917 M54.422,76.581 L54.441,76.571 C54.44,76.572 54.439,76.573 54.438,76.574 C54.433,76.576 54.427,76.578 54.422,76.581" id="Fill-7" fill="#116551" mask="url(#mask-2)"></path>
                <path d="M49.822,78.996 L49.801,78.996 C49.493,78.994 49.355,78.922 49.355,78.919 L49.355,78.916 C49.356,78.897 49.361,78.794 49.44,78.628 C49.525,78.447 49.708,78.189 50.067,77.929 C50.423,77.666 50.952,77.415 51.67,77.229 C52.027,77.134 52.431,77.056 52.889,76.97 C53.341,76.881 53.843,76.805 54.422,76.581 C54.427,76.578 54.433,76.576 54.438,76.574 C54.439,76.574 54.441,76.573 54.442,76.572 C54.179,76.961 53.871,77.264 53.59,77.507 C53.306,77.751 53.04,77.94 52.79,78.094 C52.29,78.401 51.85,78.57 51.347,78.693 C50.594,78.941 50.131,78.996 49.822,78.996" id="Fill-8" fill="#116551" mask="url(#mask-2)"></path>
                <path d="M56.56,73.509 L56.567,73.503 C56.566,73.505 56.564,73.506 56.563,73.508 C56.562,73.508 56.561,73.508 56.56,73.509" id="Fill-9" fill="#116551" mask="url(#mask-2)"></path>
                <path d="M53.457,76.202 C53.384,76.202 53.319,76.196 53.263,76.187 C52.997,76.141 52.898,76.025 52.897,76.025 L52.896,76.025 C52.894,76.022 52.954,75.618 53.397,75.185 C53.621,74.964 53.936,74.733 54.429,74.463 C54.921,74.197 55.601,73.866 56.56,73.509 C56.561,73.508 56.562,73.508 56.563,73.508 C56.565,73.507 56.566,73.506 56.568,73.505 C56.223,74.175 55.947,74.655 55.646,75.022 C55.347,75.388 55.028,75.643 54.61,75.839 C54.118,76.123 53.729,76.202 53.457,76.202" id="Fill-10" fill="#116551" mask="url(#mask-2)"></path>
                <path d="M55.794,75.782 L55.795,75.781 C55.795,75.782 55.794,75.782 55.794,75.782 M59.975,73.404 C59.977,73.403 59.979,73.402 59.98,73.401 L59.975,73.404" id="Fill-11" fill="#116551" mask="url(#mask-2)"></path>
                <path d="M56.303,75.93 C56.264,75.93 56.227,75.929 56.193,75.926 C55.901,75.904 55.793,75.784 55.794,75.784 L55.794,75.782 C55.794,75.782 55.795,75.782 55.795,75.781 C55.798,75.764 55.82,75.664 55.884,75.521 C55.955,75.362 56.079,75.146 56.332,74.902 C56.585,74.659 56.967,74.388 57.55,74.125 C58.131,73.864 58.914,73.596 59.975,73.404 C59.977,73.404 59.979,73.404 59.98,73.403 C58.951,74.655 58.451,75.189 57.589,75.543 C57.021,75.841 56.594,75.93 56.303,75.93" id="Fill-12" fill="#116551" mask="url(#mask-2)"></path>
                <path d="M54.698,77.578 L54.7,77.577 C54.7,77.577 54.7,77.578 54.699,77.578 C54.699,77.578 54.699,77.578 54.698,77.578 M59.543,76.335 L59.542,76.335 L59.55,76.333 C59.547,76.334 59.545,76.334 59.543,76.335" id="Fill-13" fill="#116551" mask="url(#mask-2)"></path>
                <path d="M55.753,77.968 C55.432,77.968 55.197,77.912 55.036,77.843 C54.765,77.726 54.7,77.58 54.698,77.58 C54.698,77.58 54.699,77.579 54.699,77.578 C54.7,77.578 54.7,77.577 54.7,77.577 C54.709,77.56 54.76,77.468 54.874,77.346 C55.002,77.211 55.198,77.04 55.52,76.878 C55.84,76.715 56.287,76.559 56.936,76.447 C57.405,76.369 57.986,76.306 58.693,76.306 C58.958,76.306 59.241,76.315 59.542,76.335 L59.543,76.335 C59.545,76.335 59.547,76.335 59.55,76.336 C58.854,76.829 58.355,77.187 57.897,77.431 C57.44,77.674 57.03,77.811 56.545,77.874 C56.238,77.941 55.975,77.968 55.753,77.968" id="Fill-14" fill="#116551" mask="url(#mask-2)"></path>
                <path d="M63.94,72.477 L63.971,72.463 C63.969,72.465 63.966,72.467 63.964,72.469 C63.956,72.471 63.948,72.474 63.94,72.477" id="Fill-15" fill="#116551" mask="url(#mask-2)"></path>
                <path d="M60.968,74.541 C60.763,74.541 60.603,74.506 60.485,74.459 C60.241,74.362 60.173,74.223 60.173,74.223 C60.173,74.223 60.173,74.223 60.173,74.222 C60.178,74.208 60.211,74.112 60.294,73.982 C60.384,73.84 60.529,73.659 60.775,73.484 C61.019,73.307 61.366,73.137 61.877,72.99 C62.132,72.914 62.428,72.845 62.773,72.771 C63.111,72.694 63.494,72.631 63.94,72.477 C63.948,72.474 63.956,72.471 63.964,72.469 C63.967,72.468 63.971,72.467 63.974,72.465 C63.813,72.795 63.613,73.063 63.43,73.286 C63.242,73.51 63.06,73.689 62.885,73.836 C62.528,74.129 62.186,74.298 61.775,74.393 C61.453,74.502 61.185,74.541 60.968,74.541" id="Fill-16" fill="#116551" mask="url(#mask-2)"></path>
                <path d="M63.644,69.079 L63.65,69.073 C63.65,69.074 63.649,69.075 63.648,69.076 C63.647,69.077 63.646,69.078 63.644,69.079" id="Fill-17" fill="#116551" mask="url(#mask-2)"></path>
                <path d="M60.598,72.666 C60.487,72.666 60.431,72.646 60.431,72.646 C60.431,72.646 60.43,72.645 60.43,72.643 C60.42,72.608 60.331,72.226 60.686,71.649 C60.87,71.345 61.175,70.994 61.655,70.595 C61.895,70.393 62.176,70.18 62.508,69.936 C62.838,69.694 63.217,69.424 63.644,69.079 C63.646,69.078 63.647,69.077 63.648,69.076 C63.649,69.076 63.65,69.075 63.651,69.074 C63.497,69.844 63.267,70.413 63.018,70.85 C62.766,71.29 62.48,71.606 62.104,71.895 C61.558,72.39 61.137,72.567 60.857,72.634 C60.752,72.658 60.665,72.666 60.598,72.666" id="Fill-18" fill="#116551" mask="url(#mask-2)"></path>
                <path d="M58.948,72.541 L58.949,72.539 L58.95,72.539 C58.949,72.54 58.949,72.541 58.948,72.541 M60.813,69.183 L60.816,69.178 C60.816,69.179 60.816,69.18 60.815,69.181 C60.815,69.182 60.814,69.183 60.813,69.183" id="Fill-19" fill="#116551" mask="url(#mask-2)"></path>
                <path d="M59.072,72.556 C58.993,72.556 58.951,72.542 58.951,72.542 C58.951,72.542 58.95,72.541 58.95,72.539 L58.949,72.539 C58.931,72.505 58.777,72.177 58.912,71.687 C58.983,71.425 59.135,71.113 59.434,70.718 C59.583,70.52 59.77,70.301 60,70.049 C60.227,69.8 60.5,69.521 60.813,69.183 C60.814,69.183 60.815,69.182 60.815,69.181 C60.816,69.18 60.817,69.179 60.818,69.178 C60.894,69.812 60.869,70.297 60.788,70.691 C60.702,71.089 60.549,71.401 60.292,71.706 C59.942,72.217 59.585,72.432 59.341,72.51 C59.228,72.546 59.137,72.556 59.072,72.556" id="Fill-20" fill="#116551" mask="url(#mask-2)"></path>
                <path d="M63.07,68.617 L63.071,68.616 L63.071,68.617 L63.07,68.617 M64.226,65.206 L64.228,65.199 C64.228,65.202 64.227,65.204 64.226,65.206" id="Fill-21" fill="#116551" mask="url(#mask-2)"></path>
                <path d="M63.107,68.619 C63.097,68.619 63.088,68.618 63.082,68.618 C63.077,68.618 63.073,68.617 63.072,68.617 L63.071,68.617 C63.071,68.617 63.071,68.617 63.071,68.616 C63.064,68.608 63.006,68.535 62.95,68.414 C62.889,68.283 62.827,68.102 62.827,67.857 C62.827,67.612 62.891,67.299 63.093,66.865 C63.195,66.648 63.331,66.402 63.516,66.122 C63.698,65.846 63.927,65.533 64.226,65.206 C64.228,65.204 64.23,65.202 64.232,65.199 C64.341,65.79 64.43,66.207 64.432,66.571 C64.436,66.934 64.364,67.238 64.19,67.569 C63.981,68.104 63.682,68.395 63.453,68.517 C63.289,68.607 63.165,68.619 63.107,68.619" id="Fill-22" fill="#116551" mask="url(#mask-2)"></path>
                <path d="M64.744,67.923 L64.746,67.922 C64.745,67.923 64.745,67.923 64.744,67.923 M68.022,63.964 C68.024,63.962 68.026,63.959 68.028,63.957 L68.022,63.964" id="Fill-23" fill="#116551" mask="url(#mask-2)"></path>
                <path d="M64.971,67.966 C64.895,67.966 64.839,67.956 64.802,67.945 C64.766,67.935 64.748,67.924 64.746,67.924 C64.746,67.924 64.746,67.924 64.746,67.922 C64.744,67.904 64.741,67.803 64.775,67.647 C64.814,67.472 64.889,67.236 65.056,66.936 C65.225,66.632 65.486,66.261 65.94,65.761 C66.166,65.512 66.441,65.231 66.78,64.92 C67.121,64.617 67.525,64.272 68.022,63.964 C68.025,63.962 68.028,63.961 68.03,63.959 C67.879,64.352 67.777,64.69 67.674,64.991 C67.573,65.292 67.479,65.553 67.372,65.787 C67.161,66.261 66.913,66.635 66.539,67.005 C66.004,67.628 65.504,67.876 65.193,67.941 C65.105,67.959 65.032,67.966 64.971,67.966" id="Fill-24" fill="#116551" mask="url(#mask-2)"></path>
                <path d="M64.228,69.917 L64.231,69.915 L64.231,69.916 C64.23,69.916 64.229,69.916 64.228,69.917" id="Fill-25" fill="#116551" mask="url(#mask-2)"></path>
                <path d="M64.844,70.175 C64.719,70.175 64.616,70.157 64.535,70.129 C64.304,70.051 64.232,69.919 64.23,69.919 C64.23,69.919 64.231,69.918 64.231,69.916 L64.231,69.915 C64.235,69.894 64.256,69.799 64.312,69.673 C64.378,69.528 64.479,69.347 64.656,69.162 C64.835,68.977 65.091,68.788 65.52,68.586 C65.737,68.485 65.997,68.38 66.316,68.276 C66.633,68.176 67.014,68.065 67.448,68.027 L67.45,68.027 C67.262,68.298 67.125,68.535 66.993,68.741 C66.861,68.948 66.738,69.124 66.61,69.275 C66.354,69.576 66.085,69.78 65.724,69.927 C65.372,70.112 65.073,70.175 64.844,70.175" id="Fill-26" fill="#116551" mask="url(#mask-2)"></path>
                <path d="M53.562,79.443 C53.138,79.443 52.835,79.257 52.832,79.002 C52.828,78.717 53.238,78.454 53.707,78.411 C53.755,78.406 53.802,78.404 53.848,78.404 C54.023,78.404 54.176,78.436 54.295,78.489 C54.443,78.558 54.548,78.66 54.57,78.798 C54.593,78.935 54.504,79.089 54.339,79.209 C54.174,79.328 53.943,79.414 53.697,79.437 C53.651,79.441 53.606,79.443 53.562,79.443" id="Fill-27" fill="#116551" mask="url(#mask-2)"></path>
                <path d="M51.291,76.867 C51.202,76.867 51.12,76.845 51.05,76.8 C50.938,76.726 50.899,76.572 50.933,76.399 C50.967,76.224 51.069,76.033 51.226,75.873 C51.382,75.712 51.56,75.611 51.723,75.574 C51.77,75.562 51.815,75.557 51.857,75.557 C51.962,75.557 52.052,75.59 52.123,75.652 C52.225,75.741 52.242,75.899 52.204,76.061 C52.164,76.226 52.064,76.402 51.918,76.553 C51.714,76.76 51.486,76.867 51.291,76.867" id="Fill-28" fill="#116551" mask="url(#mask-2)"></path>
                <path d="M57.602,73.499 C57.473,73.499 57.357,73.454 57.275,73.363 C57.094,73.165 57.198,72.779 57.489,72.54 C57.647,72.41 57.822,72.345 57.978,72.345 C58.107,72.345 58.223,72.39 58.305,72.48 C58.485,72.678 58.381,73.065 58.09,73.304 C57.933,73.434 57.758,73.499 57.602,73.499" id="Fill-29" fill="#116551" mask="url(#mask-2)"></path>
                <path d="M58.434,75.439 L58.691,75.411 C58.604,75.421 58.518,75.43 58.434,75.439" id="Fill-30" fill="#116551" mask="url(#mask-2)"></path>
                <path d="M59.298,75.856 C58.955,75.856 58.692,75.67 58.691,75.411 C58.691,75.129 59.008,74.867 59.399,74.825 C59.435,74.821 59.47,74.82 59.504,74.82 C59.846,74.82 60.108,75.005 60.108,75.262 C60.108,75.545 59.791,75.809 59.399,75.85 C59.365,75.854 59.331,75.856 59.298,75.856" id="Fill-31" fill="#116551" mask="url(#mask-2)"></path>
                <path d="M63.547,71.959 C63.519,71.959 63.492,71.957 63.467,71.953 L63.293,71.901 L63.112,71.822 L63.01,71.649 C63.006,71.568 63.033,71.471 63.084,71.379 C63.185,71.195 63.363,71.037 63.562,70.941 C63.713,70.867 63.855,70.836 63.98,70.836 C64.019,70.836 64.056,70.839 64.092,70.845 C64.238,70.87 64.357,70.94 64.423,71.058 C64.488,71.177 64.462,71.338 64.362,71.488 C64.264,71.639 64.103,71.774 63.925,71.859 C63.784,71.929 63.656,71.959 63.547,71.959" id="Fill-32" fill="#116551" mask="url(#mask-2)"></path>
                <path d="M61.805,69.675 C61.776,69.675 61.747,69.672 61.719,69.665 C61.455,69.598 61.309,69.305 61.407,68.95 C61.456,68.771 61.563,68.612 61.703,68.502 L61.93,68.388 L62.125,68.437 L62.263,68.57 L62.369,68.709 C62.421,68.819 62.432,68.968 62.386,69.135 C62.305,69.431 62.049,69.675 61.805,69.675" id="Fill-33" fill="#116551" mask="url(#mask-2)"></path>
                <path d="M42.199,83.461 C42.222,83.25 42.218,82.969 42.088,82.707 C41.962,82.53 41.834,82.377 41.776,82.306 C41.921,82.144 42.509,81.544 43.683,81.002 C43.892,81.079 44.088,81.164 44.273,81.255 C43.108,82.119 42.44,83.075 42.199,83.461 M45.11,80.708 C44.971,80.675 44.825,80.644 44.67,80.617 C45.058,80.49 45.49,80.375 45.968,80.282 C45.663,80.412 45.377,80.556 45.11,80.708" id="Fill-34" fill="#116551" mask="url(#mask-2)"></path>
                <path d="M42.048,83.851 L42.027,83.827 L42.026,83.717 C42.061,83.563 42.156,83.151 41.976,82.782 C41.813,82.554 41.642,82.358 41.641,82.357 L41.609,82.318 L41.642,82.274 C41.677,82.229 42.221,81.557 43.508,80.94 C43.567,80.96 43.626,80.981 43.683,81.002 C42.509,81.544 41.921,82.144 41.776,82.306 C41.834,82.377 41.962,82.53 42.088,82.707 C42.218,82.969 42.222,83.25 42.199,83.461 C42.44,83.075 43.108,82.119 44.273,81.255 C44.315,81.275 44.356,81.296 44.396,81.317 C43.003,82.331 42.318,83.489 42.219,83.667 L42.201,83.7 C42.127,83.83 42.12,83.843 42.078,83.848 L42.048,83.851 M45.285,80.753 C45.228,80.738 45.17,80.723 45.11,80.708 C45.377,80.556 45.663,80.412 45.968,80.282 C45.49,80.375 45.058,80.49 44.67,80.617 C44.581,80.601 44.49,80.586 44.396,80.573 C45.006,80.358 45.731,80.171 46.583,80.05 L46.601,80.176 C46.12,80.338 45.682,80.535 45.285,80.753" id="Fill-35" fill="#116551" mask="url(#mask-2)"></path>
                <path d="M36.738,81.736 C36.736,81.736 36.735,81.735 36.733,81.735 L36.747,81.733 C36.744,81.734 36.741,81.735 36.738,81.736 M41.498,80.844 L41.497,80.844 L41.498,80.844" id="Fill-36" fill="#116551" mask="url(#mask-2)"></path>
                <path d="M38.676,82.199 C38.626,82.199 38.576,82.198 38.524,82.195 C38.026,82.173 37.431,82.056 36.733,81.737 C36.735,81.737 36.737,81.736 36.738,81.736 C36.741,81.735 36.744,81.734 36.747,81.733 C37.277,81.559 37.718,81.379 38.106,81.223 C38.498,81.065 38.835,80.931 39.137,80.827 C39.739,80.616 40.199,80.531 40.552,80.53 L40.572,80.53 C41.231,80.53 41.476,80.818 41.497,80.844 L41.498,80.844 L41.499,80.846 C41.499,80.846 41.455,81.006 41.236,81.227 C41.017,81.446 40.627,81.73 39.905,81.953 C39.497,82.116 39.113,82.199 38.676,82.199" id="Fill-37" fill="#116551" mask="url(#mask-2)"></path>
                <path d="M42.465,79.967 L42.463,79.966 C42.464,79.966 42.464,79.967 42.465,79.967 M38.607,77.536 C38.606,77.536 38.606,77.535 38.606,77.535 C38.604,77.534 38.602,77.533 38.6,77.531 L38.607,77.536" id="Fill-38" fill="#116551" mask="url(#mask-2)"></path>
                <path d="M42.014,80.058 C41.725,80.058 41.298,79.979 40.711,79.663 C40.305,79.497 39.987,79.288 39.66,78.961 C39.336,78.633 38.992,78.189 38.599,77.534 C38.601,77.534 38.603,77.535 38.606,77.535 C38.606,77.535 38.606,77.536 38.607,77.536 C39.123,77.655 39.569,77.759 39.96,77.872 C40.352,77.984 40.686,78.102 40.97,78.228 C41.538,78.478 41.898,78.759 42.122,79.02 C42.546,79.52 42.47,79.931 42.463,79.966 L42.463,79.968 C42.462,79.97 42.317,80.055 42.028,80.058 L42.014,80.058" id="Fill-39" fill="#116551" mask="url(#mask-2)"></path>
                <path d="M39.437,79.964 L39.436,79.964 L39.437,79.964 M34.381,78.699 C34.373,78.697 34.364,78.696 34.356,78.694 C34.354,78.693 34.352,78.692 34.351,78.691 L34.381,78.699" id="Fill-40" fill="#116551" mask="url(#mask-2)"></path>
                <path d="M38.229,80.209 C38.01,80.209 37.752,80.195 37.447,80.158 C36.942,80.142 36.502,80.066 36.001,79.865 C35.752,79.763 35.486,79.63 35.203,79.447 C34.921,79.262 34.613,79.025 34.349,78.693 C34.351,78.693 34.354,78.694 34.356,78.694 C34.364,78.696 34.373,78.697 34.381,78.699 C34.721,78.757 35.034,78.77 35.327,78.77 C35.529,78.77 35.72,78.764 35.904,78.762 C36.151,78.756 36.383,78.751 36.601,78.751 C36.785,78.751 36.96,78.754 37.124,78.763 C37.84,78.798 38.37,78.937 38.725,79.126 C39.084,79.31 39.267,79.529 39.352,79.691 C39.43,79.841 39.435,79.945 39.436,79.964 L39.436,79.966 C39.436,79.967 39.298,80.068 38.992,80.135 C38.805,80.176 38.561,80.209 38.229,80.209" id="Fill-41" fill="#116551" mask="url(#mask-2)"></path>
                <path d="M35.896,77.816 L35.895,77.815 L35.896,77.816 M32.229,76.073 L32.227,76.073 C32.227,76.073 32.226,76.072 32.225,76.072 L32.229,76.073" id="Fill-42" fill="#116551" mask="url(#mask-2)"></path>
                <path d="M34.991,78.149 C34.765,78.149 34.494,78.108 34.181,77.992 C33.765,77.885 33.446,77.698 33.147,77.396 C32.845,77.093 32.571,76.671 32.225,76.073 L32.227,76.073 L32.229,76.073 C33.19,76.23 33.869,76.417 34.362,76.579 C34.856,76.745 35.171,76.91 35.394,77.084 C35.814,77.404 35.891,77.772 35.895,77.815 L35.895,77.816 C35.895,77.818 35.895,77.819 35.894,77.82 L35.894,77.819 C35.893,77.819 35.796,77.956 35.528,78.059 C35.396,78.108 35.216,78.149 34.991,78.149" id="Fill-43" fill="#116551" mask="url(#mask-2)"></path>
                <path d="M32.998,78.186 C32.997,78.186 32.997,78.185 32.996,78.185 L32.998,78.186 M28.818,76.691 C28.816,76.69 28.815,76.69 28.813,76.689 L28.818,76.691" id="Fill-44" fill="#116551" mask="url(#mask-2)"></path>
                <path d="M32.105,78.479 C31.859,78.479 31.559,78.438 31.204,78.326 C30.34,78.153 29.84,77.725 28.811,76.691 L28.818,76.691 C28.95,76.687 29.078,76.685 29.201,76.685 C30.069,76.685 30.733,76.779 31.243,76.9 C31.825,77.04 32.206,77.231 32.459,77.42 C32.712,77.611 32.838,77.8 32.909,77.944 C32.971,78.072 32.992,78.165 32.996,78.185 C32.997,78.188 32.997,78.189 32.997,78.189 C32.999,78.189 32.893,78.331 32.6,78.414 C32.469,78.452 32.305,78.479 32.105,78.479" id="Fill-45" fill="#116551" mask="url(#mask-2)"></path>
                <path d="M34.091,79.751 L34.092,79.751 C34.092,79.751 34.092,79.751 34.091,79.751 M29.246,79.531 L29.242,79.531 L29.246,79.531" id="Fill-46" fill="#116551" mask="url(#mask-2)"></path>
                <path d="M31.936,80.45 C31.579,80.45 31.252,80.395 30.896,80.279 C30.437,80.133 29.937,79.879 29.241,79.532 C29.243,79.532 29.244,79.531 29.246,79.531 C30.352,79.222 31.211,79.122 31.855,79.092 C31.951,79.089 32.042,79.087 32.129,79.087 C32.633,79.087 32.998,79.144 33.272,79.224 C33.593,79.319 33.792,79.448 33.918,79.557 C34.032,79.654 34.083,79.736 34.091,79.751 C34.092,79.753 34.092,79.754 34.092,79.754 C34.092,79.754 34.026,79.912 33.754,80.088 C33.489,80.259 33.014,80.437 32.284,80.437 L32.246,80.437 C32.139,80.446 32.036,80.45 31.936,80.45" id="Fill-47" fill="#116551" mask="url(#mask-2)"></path>
                <path d="M28.619,77.549 L28.62,77.549 C28.62,77.549 28.62,77.549 28.619,77.549 M24.847,76.6 C24.84,76.599 24.833,76.598 24.825,76.597 C24.823,76.596 24.822,76.595 24.82,76.593 L24.847,76.6" id="Fill-48" fill="#116551" mask="url(#mask-2)"></path>
                <path d="M27.368,78.082 C27.259,78.082 27.142,78.075 27.018,78.06 C26.605,78.051 26.263,77.955 25.908,77.736 C25.731,77.626 25.549,77.486 25.362,77.302 C25.178,77.117 24.978,76.891 24.818,76.596 C24.82,76.597 24.823,76.597 24.825,76.597 C24.833,76.598 24.84,76.599 24.847,76.6 C25.295,76.659 25.679,76.643 26.019,76.648 C26.363,76.649 26.66,76.656 26.914,76.678 C27.426,76.717 27.772,76.814 28.018,76.939 C28.262,77.064 28.407,77.214 28.498,77.335 C28.579,77.446 28.614,77.534 28.619,77.549 L28.62,77.551 C28.619,77.551 28.552,77.705 28.308,77.852 C28.113,77.97 27.804,78.082 27.368,78.082" id="Fill-49" fill="#116551" mask="url(#mask-2)"></path>
                <path d="M28.361,76.025 C28.361,76.025 28.361,76.025 28.36,76.025 L28.361,76.025 M25.149,73.141 C25.148,73.14 25.146,73.139 25.145,73.138 C25.144,73.137 25.143,73.136 25.143,73.135 L25.149,73.141" id="Fill-50" fill="#116551" mask="url(#mask-2)"></path>
                <path d="M27.956,76.107 L27.935,76.107 C27.654,76.1 27.235,76.011 26.688,75.631 C26.31,75.421 26.027,75.165 25.774,74.779 C25.525,74.393 25.294,73.875 25.141,73.136 C25.142,73.137 25.143,73.137 25.145,73.138 C25.146,73.139 25.148,73.14 25.149,73.141 C25.578,73.395 25.955,73.586 26.284,73.758 C26.615,73.93 26.897,74.085 27.137,74.235 C27.617,74.534 27.922,74.82 28.106,75.085 C28.461,75.586 28.371,75.987 28.36,76.025 C28.36,76.027 28.359,76.028 28.359,76.028 C28.359,76.028 28.222,76.107 27.956,76.107" id="Fill-51" fill="#116551" mask="url(#mask-2)"></path>
                <path d="M29.843,75.611 C29.843,75.611 29.842,75.611 29.842,75.61 L29.843,75.611 M27.982,72.651 C27.98,72.65 27.979,72.649 27.978,72.648 C27.977,72.646 27.976,72.644 27.976,72.642 L27.982,72.651" id="Fill-52" fill="#116551" mask="url(#mask-2)"></path>
                <path d="M29.55,75.669 C29.519,75.669 29.485,75.667 29.45,75.664 C29.206,75.636 28.848,75.498 28.501,75.06 C28.242,74.807 28.089,74.529 28.004,74.15 C27.922,73.774 27.898,73.292 27.972,72.643 C27.974,72.645 27.976,72.646 27.978,72.648 C27.979,72.649 27.98,72.65 27.982,72.651 C28.294,72.921 28.565,73.139 28.793,73.341 C29.021,73.543 29.208,73.724 29.357,73.89 C29.657,74.223 29.808,74.503 29.88,74.751 C30.015,75.212 29.862,75.573 29.842,75.61 C29.841,75.612 29.841,75.613 29.84,75.613 C29.839,75.613 29.813,75.627 29.764,75.641 C29.714,75.655 29.642,75.669 29.55,75.669" id="Fill-53" fill="#116551" mask="url(#mask-2)"></path>
                <path d="M25.722,72.556 C25.722,72.556 25.722,72.556 25.721,72.555 L25.722,72.555 L25.722,72.556 M24.563,69.386 L24.563,69.386 C24.563,69.385 24.562,69.384 24.562,69.383 L24.563,69.386" id="Fill-54" fill="#116551" mask="url(#mask-2)"></path>
                <path d="M25.57,72.577 C25.508,72.577 25.43,72.568 25.339,72.538 C25.112,72.463 24.809,72.235 24.601,71.745 C24.427,71.451 24.356,71.163 24.36,70.799 C24.361,70.433 24.451,69.998 24.56,69.383 C24.561,69.384 24.562,69.385 24.563,69.386 C24.862,69.651 25.093,69.918 25.276,70.156 C25.461,70.397 25.597,70.614 25.698,70.81 C25.901,71.201 25.963,71.501 25.965,71.746 C25.963,71.991 25.902,72.185 25.842,72.328 C25.787,72.457 25.731,72.541 25.722,72.555 C25.722,72.555 25.722,72.555 25.721,72.555 C25.721,72.557 25.72,72.557 25.72,72.557 C25.719,72.557 25.704,72.562 25.679,72.567 C25.653,72.572 25.616,72.577 25.57,72.577" id="Fill-55" fill="#116551" mask="url(#mask-2)"></path>
                <path d="M24.047,72.216 C24.047,72.216 24.047,72.216 24.046,72.215 L24.047,72.216 M20.767,68.947 L20.767,68.947 L20.763,68.943 C20.765,68.944 20.766,68.946 20.767,68.947" id="Fill-56" fill="#116551" mask="url(#mask-2)"></path>
                <path d="M23.597,72.329 C23.289,72.329 22.788,72.187 22.253,71.677 C21.878,71.385 21.63,71.063 21.42,70.635 C21.314,70.421 21.217,70.18 21.117,69.902 C21.016,69.623 20.913,69.306 20.761,68.944 C20.763,68.945 20.765,68.946 20.767,68.947 C21.265,69.151 21.671,69.41 22.01,69.644 C22.351,69.881 22.625,70.106 22.852,70.306 C23.306,70.709 23.566,71.027 23.736,71.294 C23.904,71.559 23.978,71.78 24.017,71.946 C24.051,72.099 24.048,72.2 24.046,72.215 L24.046,72.217 C24.044,72.217 23.909,72.329 23.597,72.329" id="Fill-57" fill="#116551" mask="url(#mask-2)"></path>
                <path d="M21.347,72.891 L21.343,72.889 C21.344,72.89 21.345,72.89 21.347,72.891" id="Fill-58" fill="#116551" mask="url(#mask-2)"></path>
                <path d="M23.642,74.52 C23.472,74.52 23.28,74.493 23.069,74.425 C22.706,74.357 22.436,74.21 22.181,73.963 C22.054,73.837 21.931,73.688 21.8,73.508 C21.665,73.33 21.529,73.122 21.342,72.891 L21.347,72.891 C21.518,72.87 21.681,72.862 21.836,72.862 C22.071,72.862 22.285,72.88 22.476,72.9 C22.794,72.937 23.055,72.987 23.27,73.043 C23.702,73.153 23.957,73.288 24.135,73.435 C24.313,73.584 24.414,73.743 24.479,73.875 C24.538,73.993 24.56,74.086 24.562,74.101 L24.562,74.103 C24.56,74.103 24.489,74.25 24.256,74.377 C24.116,74.454 23.907,74.52 23.642,74.52" id="Fill-59" fill="#116551" mask="url(#mask-2)"></path>
                <path d="M34.933,81.409 C34.749,81.409 34.58,81.372 34.454,81.305 C34.288,81.221 34.2,81.086 34.222,80.944 C34.244,80.801 34.347,80.677 34.496,80.577 C34.647,80.478 34.851,80.403 35.084,80.375 C35.143,80.368 35.2,80.364 35.255,80.364 C35.648,80.364 35.963,80.532 35.96,80.783 C35.957,81.064 35.59,81.339 35.096,81.399 C35.041,81.406 34.986,81.409 34.933,81.409" id="Fill-60" fill="#116551" mask="url(#mask-2)"></path>
                <path d="M37.377,78.334 C37.213,78.334 37.035,78.27 36.873,78.14 C36.728,78.02 36.628,77.865 36.588,77.709 C36.549,77.554 36.567,77.392 36.668,77.282 C36.765,77.178 36.897,77.119 37.052,77.119 L37.07,77.119 C37.231,77.122 37.41,77.185 37.565,77.314 C37.722,77.441 37.824,77.611 37.859,77.777 C37.894,77.944 37.853,78.106 37.742,78.204 C37.641,78.29 37.514,78.334 37.377,78.334" id="Fill-61" fill="#116551" mask="url(#mask-2)"></path>
                <path d="M31.061,76.299 C30.941,76.299 30.816,76.265 30.701,76.194 C30.411,76.015 30.306,75.652 30.487,75.414 C30.594,75.273 30.763,75.197 30.942,75.197 C31.062,75.197 31.187,75.231 31.302,75.301 C31.592,75.48 31.698,75.844 31.518,76.081 C31.41,76.223 31.241,76.299 31.061,76.299" id="Fill-62" fill="#116551" mask="url(#mask-2)"></path>
                <path d="M30.1,78.428 L30.1,78.428 C30.188,78.419 30.274,78.41 30.358,78.401 L30.1,78.428" id="Fill-63" fill="#116551" mask="url(#mask-2)"></path>
                <path d="M29.29,79.021 C28.947,79.021 28.684,78.834 28.684,78.576 C28.684,78.295 29.001,78.032 29.393,77.991 C29.428,77.987 29.463,77.985 29.497,77.985 C29.838,77.985 30.1,78.17 30.1,78.427 L30.1,78.428 C30.1,78.711 29.783,78.974 29.393,79.016 C29.358,79.019 29.324,79.021 29.29,79.021" id="Fill-64" fill="#116551" mask="url(#mask-2)"></path>
                <path d="M25.1,76.013 C25.027,76.013 24.948,76.003 24.866,75.98 C24.689,75.931 24.528,75.831 24.43,75.701 C24.331,75.571 24.304,75.415 24.37,75.284 C24.435,75.151 24.553,75.057 24.699,75 C24.783,74.968 24.879,74.949 24.982,74.949 C25.061,74.949 25.144,74.96 25.23,74.983 C25.428,75.038 25.608,75.159 25.709,75.322 L25.781,75.576 L25.679,75.771 L25.499,75.888 L25.325,75.975 C25.259,75.999 25.183,76.013 25.1,76.013" id="Fill-65" fill="#116551" mask="url(#mask-2)"></path>
                <path d="M26.907,73.356 C26.689,73.356 26.478,73.179 26.405,72.931 C26.358,72.774 26.37,72.621 26.423,72.5 L26.529,72.339 L26.666,72.177 L26.861,72.086 L27.089,72.153 C27.228,72.233 27.334,72.371 27.386,72.538 C27.482,72.874 27.338,73.196 27.075,73.319 C27.02,73.344 26.963,73.356 26.907,73.356" id="Fill-66" fill="#116551" mask="url(#mask-2)"></path>
                <path d="M46.593,82.996 C46.253,82.524 45.064,81.097 42.824,80.614 C42.886,80.613 42.947,80.612 43.008,80.612 C45.62,80.612 46.801,81.558 47.016,81.753 C46.956,81.837 46.829,82.018 46.704,82.221 C46.574,82.51 46.569,82.793 46.593,82.996" id="Fill-67" fill="#116551" mask="url(#mask-2)"></path>
                <path d="M46.699,83.358 C46.669,83.358 46.656,83.338 46.592,83.236 L46.573,83.207 C46.472,83.051 45.789,82.038 44.396,81.317 C44.356,81.296 44.315,81.275 44.273,81.255 C44.088,81.164 43.892,81.079 43.683,81.002 C43.626,80.981 43.567,80.96 43.508,80.94 C43.111,80.806 42.674,80.701 42.193,80.64 L42.209,80.511 C42.5,80.491 42.777,80.481 43.039,80.481 C43.543,80.481 43.995,80.516 44.396,80.573 C44.49,80.586 44.581,80.601 44.67,80.617 C44.825,80.644 44.971,80.675 45.11,80.708 C45.17,80.723 45.228,80.738 45.285,80.753 C46.571,81.098 47.115,81.655 47.149,81.692 L47.185,81.73 L47.151,81.776 C47.149,81.777 46.979,82.01 46.815,82.271 C46.636,82.678 46.73,83.07 46.768,83.217 L46.765,83.326 L46.744,83.356 L46.712,83.358 L46.699,83.358 M43.008,80.612 C42.947,80.612 42.886,80.613 42.824,80.614 C45.064,81.097 46.253,82.524 46.593,82.996 C46.569,82.793 46.574,82.51 46.704,82.221 C46.829,82.018 46.956,81.837 47.016,81.753 C46.801,81.558 45.62,80.612 43.008,80.612" id="Fill-68" fill="#116551" mask="url(#mask-2)"></path>
                <path d="M34.525,68.102 C34.523,67.043 34.576,65.923 34.119,65.369 C33.945,65.12 33.651,65.008 33.393,64.854 C33.121,64.716 32.877,64.547 32.534,64.49 C31.808,64.61 31.172,64.812 30.496,64.978 C30.179,65.087 29.977,65.299 29.726,65.468 C29.164,65.54 28.721,65.717 28.277,65.894 C27.762,65.844 27.562,65.445 27.101,65.336 C27.087,65.335 27.073,65.335 27.059,65.335 C26.922,65.335 26.795,65.364 26.675,65.393 C26.555,65.422 26.442,65.451 26.333,65.451 C26.286,65.451 26.24,65.446 26.194,65.432 C25.83,65.427 25.897,64.943 25.606,64.856 C25.018,64.674 24.309,64.629 23.794,64.365 C23.295,64.343 22.769,64.35 22.3,64.295 C21.629,63.964 21.131,63.439 20.535,63.023 C20.245,62.467 19.957,61.907 19.629,61.391 C19.65,61.109 19.583,60.925 19.538,60.717 C19.536,60.442 19.622,60.246 19.674,60.02 C19.517,59.574 18.881,59.658 18.407,59.563 C18.092,58.805 18.002,57.798 17.681,57.044 C17.686,56.76 17.758,56.536 17.727,56.221 C17.589,55.768 17.157,55.642 16.913,55.305 C16.722,54.682 16.41,54.195 16.098,53.708 C15.995,53.276 15.888,52.848 15.735,52.471 C15.755,51.934 15.716,51.461 15.69,50.975 L15.735,50.924 L15.826,51.005 C15.818,51.12 15.895,51.141 15.962,51.173 C15.98,51.366 16.162,51.375 16.189,51.559 C16.755,51.915 17.303,52.293 17.909,52.607 C18.37,52.724 18.945,52.837 19.526,52.837 C20.031,52.837 20.541,52.752 20.987,52.509 C21.386,52.246 21.563,51.783 21.894,51.458 C22.113,51.034 22.41,50.679 22.618,50.244 C22.831,49.814 23.048,49.387 23.296,48.989 C23.503,48.567 23.757,48.189 24.157,47.943 C24.231,47.926 24.296,47.92 24.355,47.92 C24.457,47.92 24.543,47.939 24.628,47.958 C24.713,47.977 24.799,47.996 24.901,47.996 C24.924,47.996 24.947,47.995 24.972,47.993 C25.514,47.858 25.847,47.536 26.284,47.309 C26.715,47.272 27.146,47.235 27.544,47.235 C27.897,47.235 28.225,47.264 28.503,47.347 C29.144,47.455 29.646,47.717 30.225,47.894 C30.377,47.905 30.535,47.91 30.698,47.91 C31.205,47.91 31.754,47.862 32.308,47.811 C32.446,47.723 32.69,47.732 32.805,47.621 C33.696,47.15 34.192,46.321 34.39,45.225 C34.417,44.921 34.402,44.855 34.39,44.542 C34.454,44.22 34.67,44.036 34.843,43.812 C34.777,43.641 34.667,43.521 34.707,43.234 C34.75,42.924 34.856,42.671 34.843,42.309 C34.737,41.881 34.39,41.72 34.254,41.325 C34.202,40.46 34.372,39.793 34.39,38.989 L34.299,38.817 L34.345,38.813 C35.37,39.418 36.467,39.944 37.876,40.124 C38.404,40.058 38.892,40.008 39.355,40.008 C39.56,40.008 39.761,40.018 39.958,40.04 C40.213,40.069 40.465,40.159 40.728,40.188 C41.308,40.248 41.924,40.236 42.495,40.274 C43.217,40.321 43.921,40.357 44.696,40.357 C44.864,40.357 45.035,40.355 45.211,40.352 C45.379,40.348 45.538,40.344 45.691,40.344 C46.091,40.344 46.447,40.371 46.796,40.502 C47.538,40.303 48.249,40.147 48.969,39.955 C49.681,39.765 50.402,39.594 51.188,39.493 C51.808,39.323 52.409,39.135 52.954,38.898 C53.014,38.903 53.073,38.905 53.13,38.905 C53.573,38.905 53.946,38.768 54.402,38.698 C54.837,38.467 55.198,38.171 55.489,37.811 C55.858,37.536 56.227,37.261 56.665,37.049 C57.727,36.426 59.02,36.096 60.242,35.671 C60.556,35.562 60.858,35.481 61.147,35.348 L61.239,35.247 C61.341,35.206 61.441,35.18 61.557,35.122 C61.932,34.931 62.303,34.716 62.687,34.457 C62.939,34.289 63.165,34.123 63.412,33.971 C63.719,33.64 64.159,33.428 64.544,33.169 C64.977,32.829 65.337,32.425 65.856,32.166 C66.108,32.088 66.43,32.073 66.673,31.989 C67.125,31.73 67.483,31.384 67.986,31.168 C68.645,30.736 69.336,30.38 69.978,29.957 C70.617,29.532 71.204,29.031 71.879,28.663 C71.929,28.615 71.971,28.598 72.008,28.598 C72.055,28.598 72.095,28.626 72.138,28.655 C72.181,28.683 72.227,28.712 72.286,28.712 C72.301,28.712 72.316,28.71 72.332,28.706 C72.52,28.54 72.765,28.507 72.966,28.367 C73.19,28.21 73.327,28.013 73.464,27.768 C73.915,27.507 74.208,27.103 74.596,26.784 C74.944,26.429 75.349,26.127 75.773,25.84 C75.835,25.822 75.894,25.816 75.951,25.816 C76.002,25.816 76.051,25.82 76.098,25.825 C76.145,25.83 76.191,25.835 76.236,25.835 C76.312,25.835 76.384,25.821 76.453,25.769 C77.12,25.581 77.557,25.184 78.082,24.869 C78.546,24.497 79.089,24.196 79.576,23.847 C79.634,24.247 79.514,24.882 79.44,25.317 C79.296,25.702 78.957,25.914 78.806,26.295 C78.644,26.664 78.461,27.015 78.218,27.312 C77.849,27.542 77.322,27.628 76.905,27.815 C76.62,27.983 76.337,28.152 76.135,28.397 C75.928,28.618 75.566,28.704 75.41,28.973 C75.313,29.266 75.347,29.675 75.23,29.948 C74.791,30.539 73.82,30.654 73.283,31.154 C72.796,31.552 72.413,32.04 71.924,32.436 C70.96,33.238 69.581,33.665 68.801,34.632 C68.325,35.039 67.869,35.463 67.487,35.953 C67.352,36.134 67.299,36.392 67.215,36.619 C67.016,36.834 66.739,36.98 66.581,37.232 C66.431,37.461 66.357,37.758 66.219,37.999 C66.041,38.157 65.779,38.24 65.585,38.384 C65.259,38.682 64.906,38.956 64.544,39.222 C64.074,39.436 63.451,39.513 63.05,39.789 C62.665,40.096 62.43,40.537 62.19,40.971 C61.958,41.401 61.791,41.887 61.647,42.395 C61.638,43.322 61.724,44.027 62.008,44.587 C62.268,45.093 62.697,45.416 63.006,45.847 C63.375,46.225 63.684,46.67 64.092,47.007 C64.121,47.171 64.259,47.215 64.363,47.297 C64.419,47.432 64.512,47.525 64.635,47.587 C64.807,47.791 64.985,47.986 65.179,48.166 C65.314,48.409 65.541,48.554 65.677,48.797 C65.923,48.918 66.01,49.214 66.219,49.376 C66.361,49.734 66.522,50.072 66.627,50.471 C66.106,50.536 65.603,50.579 65.14,50.579 C65.029,50.579 64.921,50.577 64.815,50.571 C64.433,50.465 64.11,50.292 63.684,50.235 C63.473,50.258 63.263,50.28 63.05,50.302 C62.082,50.569 61.611,51.283 60.968,51.842 C60.707,51.88 60.628,52.083 60.334,52.091 C60.322,52.092 60.31,52.092 60.299,52.092 C60.009,52.092 59.894,51.899 59.699,51.793 C59.473,51.711 59.271,51.602 59.066,51.496 C58.623,51.335 58.199,51.154 57.662,51.099 C57.129,51.164 56.731,51.354 56.303,51.515 C55.789,51.598 55.27,51.676 54.9,51.89 C54.4,52.259 54.196,52.895 53.95,53.492 C54.037,54.042 53.922,54.401 53.813,54.872 C53.693,55.087 54.114,55.038 53.993,55.4 C53.967,55.905 53.736,56.229 53.496,56.544 C53.489,56.674 53.414,56.742 53.405,56.872 C53.398,57.002 53.445,57.18 53.315,57.2 C53.219,57.241 53.114,57.252 53.004,57.252 C52.933,57.252 52.861,57.247 52.786,57.243 C52.711,57.238 52.634,57.234 52.555,57.234 C52.449,57.234 52.34,57.242 52.229,57.269 C51.804,57.433 51.625,57.819 51.324,58.093 C50.978,58.313 50.718,58.61 50.372,58.83 C50.001,58.965 49.601,59.076 49.195,59.182 C48.07,59.656 47.178,60.341 46.298,61.035 C45.769,61.243 45.227,61.323 44.759,61.562 C44.423,61.733 44.193,62.02 43.898,62.198 C42.915,62.258 42.059,62.178 41.001,62.321 C39.891,62.686 38.768,62.96 37.967,63.597 C37.537,63.94 37.249,64.4 36.97,64.886 L36.924,65.074 C36.892,65.64 37.039,66.009 37.106,66.466 C37.181,66.639 37.267,66.802 37.377,66.938 C37.384,67.113 37.604,67.289 37.514,67.423 C37.4,67.523 37.241,67.556 37.079,67.556 C36.889,67.556 36.695,67.511 36.563,67.478 C36.371,67.548 36.132,67.575 35.884,67.595 C35.425,67.758 35.062,68.009 34.525,68.102" id="Fill-69" fill="#E98A31" mask="url(#mask-2)"></path>
            </g>
            <g id="Fill-94">
                <use fill="black" fill-opacity="1" filter="url(#filter-4)" xlink:href="#path-3"></use>
                <use fill="#FFFFFF" fill-rule="evenodd" xlink:href="#path-3"></use>
            </g>
        </g>
    </g>
</svg>