<?xml version="1.0" encoding="UTF-8"?>
<svg width="145px" height="151px" viewBox="0 0 145 151" version="1.1" xmlns="http://www.w3.org/2000/svg" xmlns:xlink="http://www.w3.org/1999/xlink">
    <!-- Generator: Sketch 42 (36781) - http://www.bohemiancoding.com/sketch -->
    <title>Norway</title>
    <desc>Created with Sketch.</desc>
    <defs>
        <path d="M44.946254,109.52 C53.2522655,91.4660868 96.2752761,63.6990834 97.457,29.197 C97.905,16.09 92.73,0.682 77.788,0.682 C61.474,0.682 48.198,19.743 46.825,25.994 C45.453,32.245 41.182,29.197 40.421,25.385 C39.659,21.571 34.999,12.957 23.715,12.957 C15.635,12.957 0.798,21.881 0.48,50.39 C0.120553854,82.8432574 34.7582595,98.6837389 43.0656499,109.52 L44.946254,109.52 L44.946254,109.52 Z" id="path-1"></path>
        <path d="M13.48,59.39 C13.798,30.88 28.635,21.957 36.715,21.957 C47.999,21.957 52.659,30.571 53.421,34.385 C54.182,38.197 58.453,41.245 59.825,34.994 C61.198,28.743 74.474,9.682 90.788,9.682 C105.73,9.682 110.905,25.09 110.457,38.197 C109.235,73.875 63.271,102.351 57.221,120.332 C51.834,109.441 13.1,93.699 13.48,59.39 Z M96.125,0.84 C82.707,0.84 66.838,10.75 57.233,27.219 C54.641,21.271 45.407,14.79 34.43,14.79 C25.585,14.79 0.757,25.845 0.757,61.525 C0.757,107.573 47.345,117.031 56.763,131.342 C57.41,132.327 59.495,133.07 60.29,130.718 C67.805,108.539 126.077,83.482 126.077,38.349 C126.077,13.038 109.543,0.84 96.125,0.84 L96.125,0.84 Z" id="path-3"></path>
        <filter x="-50%" y="-50%" width="200%" height="200%" filterUnits="objectBoundingBox" id="filter-4">
            <feOffset dx="0" dy="0" in="SourceAlpha" result="shadowOffsetOuter1"></feOffset>
            <feGaussianBlur stdDeviation="5" in="shadowOffsetOuter1" result="shadowBlurOuter1"></feGaussianBlur>
            <feColorMatrix values="0 0 0 0 0   0 0 0 0 0   0 0 0 0 0  0 0 0 0.266191123 0" type="matrix" in="shadowBlurOuter1"></feColorMatrix>
        </filter>
    </defs>
    <g id="Page-1" stroke="none" stroke-width="1" fill="none" fill-rule="evenodd">
        <g id="Norway" transform="translate(8.968750, 9.062500)">
            <g id="Group-11" transform="translate(13.000000, 9.000000)">
                <mask id="mask-2" fill="white">
                    <use xlink:href="#path-1"></use>
                </mask>
                <g id="Clip-2"></g>
                <path d="M50.174,45.143 L50.174,19.05 C55.333,11.093 65.73,0.682 77.788,0.682 C92.73,0.682 97.905,16.09 97.457,29.197 C97.327,32.997 96.69,36.714 95.647,40.346 L50.174,45.143" id="Fill-1" fill="#DF503D" mask="url(#mask-2)"></path>
                <path d="M23.004,92.18 C17.959,87.767 12.89,82.695 8.841,76.771 L23.004,75.277 L23.004,92.18" id="Fill-3" fill="#DF503D" mask="url(#mask-2)"></path>
                <path d="M50.174,101.49 L50.174,72.41 L79.116,69.357 C69.113,81.672 57.345,92.468 50.174,101.49" id="Fill-4" fill="#DF503D" mask="url(#mask-2)"></path>
                <path d="M0.48,50.386 C0.791,22.696 14.798,13.484 23.004,12.979 L23.004,48.01 L0.48,50.386" id="Fill-5" fill="#DF503D" mask="url(#mask-2)"></path>
                <path d="M29.795,97.83 C27.602,96.071 25.306,94.194 23.004,92.18 L23.004,75.277 L8.841,76.771 C7.449,74.734 6.18,72.599 5.071,70.351 L29.795,67.743 L29.795,97.83" id="Fill-6" fill="#FFFFFF" mask="url(#mask-2)"></path>
                <path d="M43.382,52.677 L43.382,29.459 C43.612,29.539 43.845,29.582 44.075,29.582 C45.186,29.582 46.255,28.59 46.825,25.994 C47.183,24.363 48.352,21.859 50.174,19.05 L50.174,45.143 L95.647,40.346 C94.958,42.746 94.092,45.11 93.078,47.434 L43.382,52.677" id="Fill-7" fill="#FFFFFF" mask="url(#mask-2)"></path>
                <path d="M0.925,57.155 C0.61,54.984 0.454,52.729 0.48,50.39 L0.48,50.386 L23.004,48.01 L23.004,12.979 C23.246,12.964 23.484,12.957 23.715,12.957 C26.008,12.957 28.026,13.313 29.795,13.911 L29.795,54.109 L0.925,57.155" id="Fill-8" fill="#FFFFFF" mask="url(#mask-2)"></path>
                <path d="M43.382,109.487 L43.382,66.311 L84.743,61.947 C82.966,64.475 81.075,66.945 79.116,69.357 L50.174,72.41 L50.174,101.49 C47.966,104.268 46.195,106.876 45.043,109.311 L43.382,109.487" id="Fill-9" fill="#FFFFFF" mask="url(#mask-2)"></path>
                <path d="M43.065,109.52 C40.523,106.203 35.513,102.417 29.795,97.83 L29.795,67.743 L5.071,70.351 C3.083,66.319 1.618,61.936 0.925,57.155 L29.795,54.109 L29.795,13.911 C36.731,16.259 39.814,22.346 40.421,25.385 C40.8,27.285 42.052,28.996 43.382,29.459 L43.382,52.677 L93.078,47.434 C90.889,52.456 88.011,57.297 84.743,61.947 L43.382,66.311 L43.382,109.487 L43.065,109.52" id="Fill-10" fill="#174980" mask="url(#mask-2)"></path>
            </g>
            <g id="Fill-35">
                <use fill="black" fill-opacity="1" filter="url(#filter-4)" xlink:href="#path-3"></use>
                <use fill="#FFFFFF" fill-rule="evenodd" xlink:href="#path-3"></use>
            </g>
        </g>
    </g>
</svg>