<?xml version="1.0" encoding="UTF-8"?>
<svg width="146px" height="151px" viewBox="0 0 146 151" version="1.1" xmlns="http://www.w3.org/2000/svg" xmlns:xlink="http://www.w3.org/1999/xlink">
    <!-- Generator: Sketch 42 (36781) - http://www.bohemiancoding.com/sketch -->
    <title>Slovenia</title>
    <desc>Created with Sketch.</desc>
    <defs>
        <path d="M13.48,59.39 C13.798,30.88 28.635,21.957 36.715,21.957 C47.999,21.957 52.659,30.571 53.421,34.385 C54.182,38.197 58.453,41.245 59.825,34.994 C61.198,28.743 74.474,9.682 90.788,9.682 C105.73,9.682 110.905,25.09 110.457,38.197 C109.235,73.875 63.271,102.351 57.221,120.332 C51.834,109.441 13.1,93.699 13.48,59.39 Z M96.125,0.84 C82.707,0.84 66.838,10.75 57.233,27.219 C54.641,21.271 45.407,14.79 34.43,14.79 C25.585,14.79 0.757,25.845 0.757,61.525 C0.757,107.573 47.345,117.031 56.763,131.342 C57.41,132.327 59.495,133.07 60.29,130.718 C67.805,108.539 126.077,83.482 126.077,38.349 C126.077,13.038 109.543,0.84 96.125,0.84 L96.125,0.84 Z" id="path-1"></path>
        <filter x="-50%" y="-50%" width="200%" height="200%" filterUnits="objectBoundingBox" id="filter-2">
            <feOffset dx="0" dy="0" in="SourceAlpha" result="shadowOffsetOuter1"></feOffset>
            <feGaussianBlur stdDeviation="5" in="shadowOffsetOuter1" result="shadowBlurOuter1"></feGaussianBlur>
            <feColorMatrix values="0 0 0 0 0   0 0 0 0 0   0 0 0 0 0  0 0 0 0.266191123 0" type="matrix" in="shadowBlurOuter1"></feColorMatrix>
        </filter>
    </defs>
    <g id="Page-1" stroke="none" stroke-width="1" fill="none" fill-rule="evenodd">
        <g id="Slovenia" transform="translate(9.515625, 9.062500)">
            <path d="M57.221,120.332 C60.659,110.114 76.983,96.506 90.665,80.115 L22.53,86.753 C34.228,103.15 53.534,112.877 57.221,120.332" id="Fill-25" fill="#DE4540"></path>
            <path d="M90.788,9.682 C74.474,9.682 61.198,28.743 59.825,34.994 C58.453,41.245 54.182,38.197 53.421,34.385 C52.659,30.571 47.999,21.957 36.715,21.957 C29.619,21.957 17.315,28.844 14.207,49.831 L110.321,40.359 C110.383,39.641 110.433,38.921 110.457,38.197 C110.905,25.09 105.73,9.682 90.788,9.682" id="Fill-26" fill="#FFFFFF"></path>
            <path d="M14.213,49.831 C13.78,52.741 13.519,55.915 13.48,59.39 C13.36,70.217 17.137,79.193 22.53,86.753 L90.665,80.115 C100.571,68.247 109.074,54.918 110.311,40.359 L14.213,49.831" id="Fill-27" fill="#1A5F9B"></path>
            <path d="M38.038,37.101 C38.126,37.096 38.217,37.09 38.307,37.088 C38.217,37.09 38.126,37.096 38.038,37.101" id="Fill-28" fill="#D7232C"></path>
            <path d="M39.494,37.042 C39.594,37.039 39.694,37.036 39.794,37.036 C39.694,37.036 39.594,37.039 39.494,37.042" id="Fill-29" fill="#D7232C"></path>
            <path d="M38.758,37.064 C38.854,37.061 38.951,37.058 39.049,37.053 C38.951,37.058 38.854,37.061 38.758,37.064" id="Fill-30" fill="#D7232C"></path>
            <path d="M41.055,37.045 C41.138,37.047 41.222,37.047 41.305,37.053 C41.222,37.047 41.138,37.047 41.055,37.045" id="Fill-31" fill="#D7232C"></path>
            <path d="M40.256,37.034 C40.352,37.034 40.448,37.034 40.545,37.036 C40.448,37.034 40.352,37.034 40.256,37.034" id="Fill-32" fill="#D7232C"></path>
            <path d="M47.689,38.105 C47.844,38.189 47.992,38.277 48.139,38.367 C47.863,41.831 47.162,52.899 47.06,54.213 C46.067,62.871 38.674,67.911 36.654,68.122 C34.634,68.336 27.241,64.859 26.249,56.408 C26.146,55.113 25.446,44.197 25.171,40.79 C25.315,40.668 25.465,40.549 25.619,40.433 C25.099,40.717 24.589,41.02 24.094,41.35 C24.297,43.87 24.779,50.532 25.059,54.353 C25.157,55.697 25.229,56.692 25.257,57.027 C26.523,65.689 34.634,69.263 36.654,69.05 C38.674,68.839 46.787,63.55 48.052,54.624 C48.079,54.283 48.152,53.272 48.25,51.906 C48.53,48.026 49.012,41.263 49.215,38.699 C48.72,38.475 48.209,38.277 47.689,38.105" id="Fill-33" fill="#DE4540"></path>
            <path d="M34.258,37.558 C34.357,37.542 34.456,37.523 34.553,37.507 C34.456,37.523 34.357,37.542 34.258,37.558" id="Fill-34" fill="#D7232C"></path>
            <path d="M35.754,37.323 C35.827,37.312 35.901,37.301 35.974,37.294 C35.9,37.301 35.827,37.312 35.754,37.323" id="Fill-35" fill="#D7232C"></path>
            <path d="M37.336,37.15 C37.409,37.145 37.482,37.139 37.555,37.134 C37.482,37.139 37.409,37.145 37.336,37.15" id="Fill-36" fill="#D7232C"></path>
            <path d="M45.138,37.458 C45.242,37.477 45.348,37.496 45.452,37.518 C45.348,37.496 45.242,37.477 45.138,37.458" id="Fill-37" fill="#D7232C"></path>
            <path d="M45.915,37.618 C46.013,37.64 46.112,37.661 46.21,37.686 C46.112,37.661 46.013,37.64 45.915,37.618" id="Fill-38" fill="#D7232C"></path>
            <path d="M46.713,37.815 C46.794,37.837 46.878,37.859 46.959,37.88 C46.878,37.859 46.794,37.837 46.713,37.815" id="Fill-39" fill="#D7232C"></path>
            <path d="M42.831,37.145 C42.917,37.153 43.003,37.161 43.093,37.169 C43.003,37.161 42.917,37.153 42.831,37.145" id="Fill-40" fill="#D7232C"></path>
            <path d="M44.366,37.329 C44.472,37.345 44.577,37.359 44.683,37.377 C44.577,37.359 44.472,37.345 44.366,37.329" id="Fill-41" fill="#D7232C"></path>
            <path d="M42.065,37.088 C42.083,37.088 42.1,37.09 42.117,37.09 C42.1,37.09 42.083,37.088 42.065,37.088" id="Fill-42" fill="#D7232C"></path>
            <path d="M43.597,37.223 C43.698,37.236 43.798,37.25 43.9,37.264 C43.798,37.25 43.698,37.236 43.597,37.223" id="Fill-43" fill="#D7232C"></path>
            <path d="M35.002,37.434 C35.091,37.421 35.183,37.407 35.271,37.391 C35.183,37.407 35.091,37.421 35.002,37.434" id="Fill-44" fill="#D7232C"></path>
            <path d="M29.409,38.792 C29.51,38.757 29.61,38.721 29.713,38.689 C29.61,38.721 29.51,38.757 29.409,38.792" id="Fill-45" fill="#D7232C"></path>
            <path d="M30.216,38.529 C30.304,38.502 30.392,38.472 30.481,38.448 C30.392,38.472 30.304,38.502 30.216,38.529" id="Fill-46" fill="#D7232C"></path>
            <path d="M28.628,39.073 C28.733,39.029 28.837,38.991 28.942,38.954 C28.837,38.991 28.733,39.029 28.628,39.073" id="Fill-47" fill="#D7232C"></path>
            <path d="M31.184,38.245 C31.203,38.24 31.225,38.234 31.244,38.229 C31.225,38.234 31.203,38.24 31.184,38.245" id="Fill-48" fill="#D7232C"></path>
            <path d="M26.352,40.054 C26.429,40.014 26.506,39.979 26.584,39.943 C26.506,39.979 26.429,40.014 26.352,40.054" id="Fill-49" fill="#D7232C"></path>
            <path d="M32.003,38.034 C32.088,38.013 32.174,37.994 32.257,37.972 C32.174,37.994 32.088,38.013 32.003,38.034" id="Fill-50" fill="#D7232C"></path>
            <path d="M27.859,39.373 C27.962,39.332 28.066,39.289 28.169,39.249 C28.066,39.289 27.962,39.332 27.859,39.373" id="Fill-51" fill="#D7232C"></path>
            <path d="M27.101,39.7 C27.197,39.657 27.294,39.616 27.39,39.573 C27.294,39.616 27.197,39.657 27.101,39.7" id="Fill-52" fill="#D7232C"></path>
            <path d="M33.515,37.699 C33.615,37.68 33.716,37.661 33.816,37.64 C33.715,37.661 33.615,37.68 33.515,37.699" id="Fill-53" fill="#D7232C"></path>
            <path d="M32.763,37.856 C32.86,37.834 32.958,37.815 33.055,37.794 C32.958,37.815 32.86,37.834 32.763,37.856" id="Fill-54" fill="#D7232C"></path>
            <path d="M33.872,53.326 C33.894,53.44 36.716,47.399 36.716,47.399 C36.768,47.274 38.914,52.29 39.415,52.763 C39.918,52.231 41.219,50.035 41.31,50.092 C41.972,50.984 45.874,55.908 45.889,55.84 C45.66,56.974 45.291,58.05 44.827,59.056 C44.531,59.213 44.177,59.337 43.689,59.388 C41.903,59.578 41.903,58.48 40.115,58.666 C38.367,58.853 38.328,59.907 36.654,60.129 C34.98,60.262 34.942,59.213 33.193,59.397 C31.407,59.586 31.407,60.684 29.62,60.873 C29.102,60.927 28.734,60.867 28.427,60.759 C27.974,59.867 27.613,58.882 27.39,57.812 C27.39,57.812 31.315,52.06 32,51.141 C32.095,51.06 33.872,53.396 33.872,53.326 Z M32.217,39.733 L32.941,39.797 L33.18,39.073 L33.42,39.749 L34.144,39.529 L33.661,40.138 L34.144,40.647 L33.42,40.582 L33.18,41.306 L32.941,40.63 L32.217,40.849 L32.701,40.241 L32.217,39.733 Z M36.895,43.983 L37.618,43.764 L37.133,44.375 L37.618,44.881 L36.895,44.816 L36.654,45.541 L36.415,44.867 L35.691,45.087 L36.176,44.475 L35.691,43.97 L36.415,44.035 L36.654,43.307 L36.895,43.983 Z M41.092,38.745 L40.607,39.354 L41.092,39.862 L40.367,39.797 L40.129,40.522 L39.888,39.846 L39.165,40.065 L39.65,39.457 L39.165,38.951 L39.888,39.013 L40.129,38.289 L40.367,38.964 L41.092,38.745 Z M43.697,61.106 C43.694,61.106 43.691,61.106 43.689,61.108 C41.903,61.295 41.903,60.197 40.115,60.383 C38.367,60.57 38.328,61.625 36.654,61.846 C34.98,61.979 34.942,60.93 33.193,61.113 C31.407,61.303 31.407,62.403 29.62,62.59 C29.602,62.592 29.584,62.595 29.568,62.595 C29.367,62.325 29.171,62.041 28.985,61.749 C29.171,61.76 29.379,61.757 29.62,61.733 C31.407,61.544 31.407,60.445 33.193,60.256 C34.942,60.072 34.98,61.119 36.654,60.989 C38.328,60.767 38.367,59.71 40.115,59.526 C41.903,59.337 41.903,60.438 43.689,60.248 C43.909,60.224 44.101,60.189 44.273,60.143 C44.09,60.473 43.897,60.795 43.697,61.106 Z M36.654,67.206 C35.438,67.336 32.474,66.008 30.175,63.35 C31.432,63.017 31.614,62.141 33.193,61.973 C34.942,61.79 34.98,62.836 36.654,62.706 C38.328,62.484 38.367,61.427 40.115,61.243 C41.678,61.078 41.875,61.9 43.095,61.982 C40.806,65.118 37.867,67.079 36.654,67.206 Z M26.249,56.408 C27.241,64.859 34.634,68.336 36.654,68.122 C38.674,67.911 46.067,62.871 47.06,54.213 C47.162,52.899 47.863,41.831 48.139,38.367 C47.992,38.277 47.844,38.189 47.689,38.105 C47.446,38.024 47.206,37.95 46.959,37.88 C46.878,37.859 46.794,37.837 46.713,37.815 C46.546,37.769 46.378,37.726 46.21,37.686 C46.112,37.661 46.013,37.64 45.915,37.618 C45.76,37.583 45.606,37.547 45.452,37.518 C45.348,37.496 45.242,37.477 45.138,37.458 C44.985,37.429 44.834,37.401 44.683,37.377 C44.577,37.359 44.472,37.345 44.366,37.329 C44.212,37.304 44.055,37.282 43.9,37.264 C43.798,37.25 43.698,37.236 43.597,37.223 C43.428,37.204 43.26,37.188 43.093,37.169 C43.003,37.161 42.917,37.153 42.831,37.145 C42.592,37.123 42.354,37.107 42.117,37.09 C42.1,37.09 42.083,37.088 42.065,37.088 C41.811,37.071 41.558,37.061 41.305,37.053 C41.222,37.047 41.138,37.047 41.055,37.045 C40.885,37.042 40.714,37.036 40.545,37.036 C40.448,37.034 40.352,37.034 40.256,37.034 C40.102,37.034 39.948,37.036 39.794,37.036 C39.694,37.036 39.594,37.039 39.494,37.042 C39.345,37.045 39.196,37.047 39.049,37.053 C38.951,37.058 38.854,37.061 38.758,37.064 C38.605,37.069 38.455,37.077 38.307,37.088 C38.217,37.09 38.126,37.096 38.038,37.101 C37.875,37.109 37.714,37.123 37.555,37.134 C37.482,37.139 37.409,37.145 37.336,37.15 C37.106,37.166 36.879,37.188 36.654,37.207 C36.431,37.234 36.203,37.264 35.974,37.294 C35.901,37.301 35.827,37.312 35.754,37.323 C35.593,37.345 35.434,37.369 35.271,37.391 C35.183,37.407 35.091,37.421 35.002,37.434 C34.854,37.458 34.705,37.483 34.553,37.507 C34.456,37.523 34.357,37.542 34.258,37.558 C34.112,37.586 33.964,37.612 33.816,37.64 C33.716,37.661 33.615,37.68 33.515,37.699 C33.361,37.729 33.209,37.761 33.055,37.794 C32.958,37.815 32.86,37.834 32.763,37.856 C32.596,37.894 32.426,37.932 32.257,37.972 C32.174,37.994 32.088,38.013 32.003,38.034 C31.752,38.096 31.498,38.161 31.244,38.229 C31.225,38.234 31.203,38.24 31.184,38.245 C30.949,38.31 30.715,38.378 30.481,38.448 C30.392,38.472 30.304,38.502 30.216,38.529 C30.048,38.581 29.881,38.634 29.713,38.689 C29.61,38.721 29.51,38.757 29.409,38.792 C29.253,38.845 29.097,38.9 28.942,38.954 C28.837,38.991 28.733,39.029 28.628,39.073 C28.475,39.13 28.322,39.189 28.169,39.249 C28.066,39.289 27.962,39.332 27.859,39.373 C27.703,39.438 27.547,39.505 27.39,39.573 C27.294,39.616 27.197,39.657 27.101,39.7 C26.928,39.778 26.756,39.859 26.584,39.943 C26.506,39.979 26.429,40.014 26.352,40.054 C26.106,40.176 25.862,40.3 25.62,40.433 L25.619,40.433 C25.465,40.549 25.315,40.668 25.171,40.79 C25.446,44.197 26.146,55.113 26.249,56.408 L26.249,56.408 Z" id="Fill-55" fill="#1A5F9B"></path>
            <path d="M36.654,62.706 C34.98,62.836 34.942,61.79 33.193,61.973 C31.614,62.141 31.432,63.017 30.175,63.35 C32.474,66.008 35.438,67.336 36.654,67.206 C37.867,67.079 40.806,65.118 43.095,61.982 C41.875,61.9 41.678,61.078 40.115,61.243 C38.367,61.427 38.328,62.484 36.654,62.706" id="Fill-56" fill="#FFFFFF"></path>
            <path d="M40.115,59.526 C38.367,59.71 38.328,60.767 36.654,60.989 C34.98,61.119 34.942,60.072 33.193,60.256 C31.407,60.445 31.407,61.544 29.62,61.733 C29.379,61.757 29.171,61.76 28.985,61.749 C29.171,62.041 29.367,62.325 29.568,62.595 C29.584,62.595 29.602,62.592 29.62,62.59 C31.407,62.403 31.407,61.303 33.193,61.113 C34.942,60.93 34.98,61.979 36.654,61.846 C38.328,61.625 38.367,60.57 40.115,60.383 C41.903,60.197 41.903,61.295 43.689,61.108 C43.691,61.106 43.694,61.106 43.697,61.106 C43.897,60.795 44.09,60.473 44.273,60.143 C44.101,60.189 43.909,60.224 43.689,60.248 C41.903,60.438 41.903,59.337 40.115,59.526" id="Fill-57" fill="#FFFFFF"></path>
            <path d="M27.39,57.812 C27.613,58.882 27.974,59.867 28.427,60.759 C28.734,60.867 29.102,60.927 29.62,60.873 C31.407,60.684 31.407,59.586 33.193,59.397 C34.942,59.213 34.98,60.262 36.654,60.129 C38.328,59.907 38.367,58.853 40.115,58.666 C41.903,58.48 41.903,59.578 43.689,59.388 C44.177,59.337 44.531,59.213 44.827,59.056 C45.291,58.05 45.66,56.974 45.889,55.84 C45.874,55.908 41.972,50.984 41.31,50.092 C41.219,50.035 39.918,52.231 39.415,52.763 C38.914,52.29 36.768,47.274 36.716,47.399 C36.716,47.399 33.894,53.44 33.872,53.326 C33.872,53.396 32.095,51.06 32,51.141 C31.315,52.06 27.39,57.812 27.39,57.812" id="Fill-58" fill="#FFFFFF"></path>
            <polyline id="Fill-59" fill="#F9D839" points="36.415 44.035 35.691 43.97 36.176 44.475 35.691 45.087 36.415 44.867 36.654 45.541 36.895 44.816 37.618 44.881 37.133 44.375 37.618 43.764 36.895 43.983 36.654 43.307 36.415 44.035"></polyline>
            <polyline id="Fill-60" fill="#F9D839" points="32.941 40.63 33.18 41.306 33.42 40.582 34.144 40.647 33.661 40.138 34.144 39.529 33.42 39.749 33.18 39.073 32.941 39.797 32.217 39.733 32.701 40.241 32.217 40.849 32.941 40.63"></polyline>
            <polyline id="Fill-61" fill="#F9D839" points="39.888 39.013 39.165 38.951 39.65 39.457 39.165 40.065 39.888 39.846 40.129 40.522 40.367 39.797 41.092 39.862 40.607 39.354 41.092 38.745 40.367 38.964 40.129 38.289 39.888 39.013"></polyline>
            <g id="Fill-24">
                <use fill="black" fill-opacity="1" filter="url(#filter-2)" xlink:href="#path-1"></use>
                <use fill="#FFFFFF" fill-rule="evenodd" xlink:href="#path-1"></use>
            </g>
        </g>
    </g>
</svg>