<?xml version="1.0" encoding="UTF-8"?>
<svg width="145px" height="151px" viewBox="0 0 145 151" version="1.1" xmlns="http://www.w3.org/2000/svg" xmlns:xlink="http://www.w3.org/1999/xlink">
    <!-- Generator: Sketch 42 (36781) - http://www.bohemiancoding.com/sketch -->
    <title>spain</title>
    <desc>Created with Sketch.</desc>
    <defs>
        <path d="M13.563,58.7087616 C13.881,30.1987616 28.718,21.2757616 36.798,21.2757616 C48.082,21.2757616 52.742,29.8897616 53.504,33.7037616 C54.265,37.5157616 58.536,40.5637616 59.908,34.3127616 C61.281,28.0617616 74.557,9.00076164 90.871,9.00076164 C105.813,9.00076164 110.988,24.4087616 110.54,37.5157616 C109.318,73.1937616 63.354,101.669762 57.304,119.650762 C51.917,108.759762 13.183,93.0177616 13.563,58.7087616 Z M96.208,0.158761645 C82.79,0.158761645 66.921,10.0687616 57.316,26.5377616 C54.724,20.5897616 45.49,14.1087616 34.513,14.1087616 C25.668,14.1087616 0.84,25.1637616 0.84,60.8437616 C0.84,106.891762 47.428,116.349762 56.846,130.660762 C57.493,131.645762 59.578,132.388762 60.373,130.036762 C67.888,107.858762 126.16,82.8007616 126.16,37.6677616 C126.16,12.3567616 109.626,0.158761645 96.208,0.158761645 L96.208,0.158761645 Z" id="path-1"></path>
        <filter x="-50%" y="-50%" width="200%" height="200%" filterUnits="objectBoundingBox" id="filter-2">
            <feOffset dx="0" dy="0" in="SourceAlpha" result="shadowOffsetOuter1"></feOffset>
            <feGaussianBlur stdDeviation="5" in="shadowOffsetOuter1" result="shadowBlurOuter1"></feGaussianBlur>
            <feColorMatrix values="0 0 0 0 0   0 0 0 0 0   0 0 0 0 0  0 0 0 0.266191123 0" type="matrix" in="shadowBlurOuter1"></feColorMatrix>
        </filter>
    </defs>
    <g id="Page-1" stroke="none" stroke-width="1" fill="none" fill-rule="evenodd">
        <g id="spain" transform="translate(9.000977, 9.882812)" fill-rule="nonzero">
            <g id="Group-23">
                <g id="Graphics">
                    <g id="Group-23">
                        <path d="M13.563,58.7087616 C13.631,52.6077616 14.364,47.4057616 15.553,42.9937616 L110.469,32.9827616 C110.569,34.5057616 110.591,36.0257616 110.54,37.5157616 C109.823,58.4707616 93.672,76.9397616 79.238,92.2587616 L32.453,97.1927616 C22.46,87.7097616 13.378,75.4087616 13.563,58.7087616 Z" id="Fill-1" fill="#F1BF00"></path>
                        <path d="M15.553,42.9937616 C19.921,26.7897616 30.447,21.2757616 36.798,21.2757616 C48.082,21.2757616 52.742,29.8897616 53.504,33.7047616 C53.949,35.9327616 55.594,37.9007616 57.158,37.9007616 C58.269,37.9007616 59.338,36.9087616 59.908,34.3127616 C61.281,28.0617616 74.557,9.00076164 90.871,9.00076164 C104.115,9.00076164 109.686,21.1047616 110.469,32.9827616 L15.553,42.9937616" id="Fill-3" fill="#AA151B"></path>
                        <path d="M57.304,119.650762 C54.539,114.060762 42.989,107.192762 32.453,97.1927616 L79.238,92.2587616 C69.096,103.021762 59.801,112.230762 57.304,119.650762" id="Fill-4" fill="#AA151B"></path>
                        <g id="Fill-44">
                            <use fill="black" fill-opacity="1" filter="url(#filter-2)" xlink:href="#path-1"></use>
                            <use fill="#FFFFFF" fill-rule="evenodd" xlink:href="#path-1"></use>
                        </g>
                    </g>
                </g>
            </g>
        </g>
    </g>
</svg>