<?xml version="1.0" encoding="UTF-8"?>
<svg width="145px" height="149px" viewBox="0 0 145 149" version="1.1" xmlns="http://www.w3.org/2000/svg" xmlns:xlink="http://www.w3.org/1999/xlink">
    <!-- Generator: Sketch 42 (36781) - http://www.bohemiancoding.com/sketch -->
    <title>Czechrepublic</title>
    <desc>Created with Sketch.</desc>
    <defs>
        <path d="M13.4831463,58.1112683 C13.7978049,29.9509512 28.4537561,21.1372683 36.4337561,21.1372683 C47.5798049,21.1372683 52.1829024,29.6460244 52.9354878,33.415439 C53.6880732,37.1783659 57.9051463,40.1887073 59.2610976,34.015561 C60.6170488,27.8424146 73.7321463,9.01480488 89.8446098,9.01480488 C104.604366,9.01480488 109.716756,24.2319512 109.272341,37.1783659 C108.06561,72.420122 62.6671951,100.548 56.6886829,118.308366 C51.3686829,107.551585 13.1100976,92.003561 13.4831463,58.1112683 Z M95.1159512,0.27897561 C81.8646098,0.27897561 66.1900732,10.0690732 56.7016585,26.334 C54.1422195,20.4592927 45.0203659,14.0590732 34.1792439,14.0590732 C25.4401707,14.0590732 0.916268293,24.9780488 0.916268293,60.2230488 C0.916268293,105.705805 46.9342683,115.048244 56.2377805,129.185171 C56.8768293,130.158341 58.9367073,130.891463 59.7217317,128.568829 C67.1437805,106.662756 124.703585,81.9085366 124.703585,37.3308293 C124.703585,12.3268293 108.370537,0.27897561 95.1159512,0.27897561 L95.1159512,0.27897561 Z" id="path-1"></path>
        <filter x="-50%" y="-50%" width="200%" height="200%" filterUnits="objectBoundingBox" id="filter-2">
            <feOffset dx="0" dy="0" in="SourceAlpha" result="shadowOffsetOuter1"></feOffset>
            <feGaussianBlur stdDeviation="5" in="shadowOffsetOuter1" result="shadowBlurOuter1"></feGaussianBlur>
            <feColorMatrix values="0 0 0 0 0   0 0 0 0 0   0 0 0 0 0  0 0 0 0.266191123 0" type="matrix" in="shadowBlurOuter1"></feColorMatrix>
        </filter>
    </defs>
    <g id="Page-1" stroke="none" stroke-width="1" fill="none" fill-rule="evenodd">
        <g id="Czechrepublic" transform="translate(9.718750, 9.839844)">
            <path d="M18.6409512,90.7254634 C18.6409512,90.7254634 54.7358537,64.4563415 62.8099268,63.3566585 C70.884,62.2569756 100.886854,58.1631707 108.458122,57.2386585 C116.02939,56.3173902 57.4866829,118.506244 57.5677805,121.438732 C57.652122,124.374463 18.6409512,90.7254634 18.6409512,90.7254634" id="Fill-1" fill="#D8131A"></path>
            <path d="M62.8099268,63.3566585 L107.747707,57.2289268 C107.747707,57.2289268 124.778195,21.078878 110.485561,11.9570244 C96.1929268,2.83192683 78.2444146,5.37514634 79.162439,7.39609756 C80.0804634,9.41380488 56.487561,22.3829268 57.2660976,28.6825854 C58.0413902,34.9822439 44.0342195,13.1313171 40.2356098,16.2162683 C36.4337561,19.2979756 18.0732683,18.8762683 15.5981707,29.6006098 C7.65060976,43.3677317 62.8099268,63.3566585 62.8099268,63.3566585" id="Fill-2" fill="#FFFFFF"></path>
            <polyline id="Fill-3" fill="#124680" points="15.5981707 33.2791951 62.8099268 63.3566585 21.6804878 94.7187073 8.29939024 61.2286585 15.5981707 33.2791951"></polyline>
            <g id="Fill-25">
                <use fill="black" fill-opacity="1" filter="url(#filter-2)" xlink:href="#path-1"></use>
                <use fill="#FFFFFF" fill-rule="evenodd" xlink:href="#path-1"></use>
            </g>
        </g>
    </g>
</svg>