<?xml version="1.0" encoding="UTF-8"?>
<svg width="146px" height="153px" viewBox="0 0 146 153" version="1.1" xmlns="http://www.w3.org/2000/svg" xmlns:xlink="http://www.w3.org/1999/xlink">
    <!-- Generator: Sketch 42 (36781) - http://www.bohemiancoding.com/sketch -->
    <title>United Kingdom</title>
    <desc>Created with Sketch.</desc>
    <defs>
        <path d="M44.8867534,111.081077 C52.1856656,92.8707908 96.9612438,64.4656178 98.1714803,29.0272419 C98.6227646,15.7853544 93.4098255,0.218786794 78.3582822,0.218786794 C61.9246804,0.218786794 48.5513509,19.4759484 47.1682851,25.791279 C45.7862267,32.1066097 41.483915,29.0272419 40.7173359,25.1770219 C39.9497495,21.3227608 35.2555859,12.6201119 23.8888603,12.6201119 C15.7496239,12.6201119 0.803850326,21.6359511 0.483518993,50.4383445 C0.111342004,84.1397702 36.9862058,100.108467 44.0181574,111.081077 L44.8867534,111.081077 L44.8867534,111.081077 Z" id="path-1"></path>
        <path d="M13.0897646,59.2960143 C13.4100959,30.4926106 28.3558695,21.4777818 36.4951058,21.4777818 C47.8618315,21.4777818 52.5559951,30.1804306 53.3235815,34.0336815 C54.0901605,37.8849117 58.3924722,40.9642795 59.7745307,34.6489489 C61.1575965,28.3336182 74.530926,9.07645663 90.9645278,9.07645663 C106.016071,9.07645663 111.22901,24.6430243 110.777726,37.8849117 C109.546767,73.9300831 63.2457941,102.699137 57.1514402,120.865184 C51.7249468,109.862102 12.7069787,93.9580969 13.0897646,59.2960143 L13.0897646,59.2960143 Z M96.3406546,0.143461358 C82.824284,0.143461358 66.8389447,10.1554477 57.1635281,26.7939344 C54.5525256,20.784722 45.2508289,14.2370244 34.193354,14.2370244 C25.2835092,14.2370244 0.273489256,25.4057942 0.273489256,61.4529861 C0.273489256,107.974878 47.2030369,117.530212 56.6900825,131.988491 C57.3418258,132.983627 59.4421114,133.734274 60.2429397,131.358069 C67.813034,108.951829 126.51224,83.6359512 126.51224,38.038476 C126.51224,12.4669941 109.857025,0.143461358 96.3406546,0.143461358 L96.3406546,0.143461358 Z" id="path-3"></path>
        <filter x="-50%" y="-50%" width="200%" height="200%" filterUnits="objectBoundingBox" id="filter-4">
            <feOffset dx="0" dy="0" in="SourceAlpha" result="shadowOffsetOuter1"></feOffset>
            <feGaussianBlur stdDeviation="5" in="shadowOffsetOuter1" result="shadowBlurOuter1"></feGaussianBlur>
            <feColorMatrix values="0 0 0 0 0   0 0 0 0 0   0 0 0 0 0  0 0 0 0.266191123 0" type="matrix" in="shadowBlurOuter1"></feColorMatrix>
        </filter>
    </defs>
    <g id="Page-1" stroke="none" stroke-width="1" fill="none" fill-rule="evenodd">
        <g id="United-Kingdom" transform="translate(9.695312, 10.062500)">
            <g id="Group-17" transform="translate(12.606246, 8.857670)">
                <mask id="mask-2" fill="white">
                    <use xlink:href="#path-1"></use>
                </mask>
                <g id="Clip-2"></g>
                <path d="M57.6253907,93.9182492 L58.6377586,71.6665843 L71.8348051,78.7184172 C66.917014,84.1406504 61.9669883,89.2153434 57.6253907,93.9182492" id="Fill-1" fill="#223B62" mask="url(#mask-2)"></path>
                <path d="M33.1593296,100.884207 C28.8137027,97.4088054 23.7971931,93.4535152 19.0204284,88.8486077 L34.3127239,76.3290784 L33.1593296,100.884207" id="Fill-3" fill="#223B62" mask="url(#mask-2)"></path>
                <path d="M88.0044861,32.371306 L98.0767911,24.1232882 C98.1976709,25.7700629 98.2268835,27.4168376 98.1714803,29.0272419 C98.149319,29.6677666 98.1140624,30.3052603 98.0636958,30.9407335 L88.0044861,32.371306" id="Fill-4" fill="#223B62" mask="url(#mask-2)"></path>
                <path d="M58.6377586,34.3363224 L59.1112043,8.7436244 C64.4107739,3.99121434 71.0853507,0.218786794 78.3582822,0.218786794 C84.537252,0.218786794 89.0581546,2.84150289 92.210094,6.85134888 L58.6377586,34.3363224" id="Fill-5" fill="#223B62" mask="url(#mask-2)"></path>
                <path d="M34.3127239,36.5943234 L7.91963818,22.4916678 C12.9391697,15.3206205 19.4334342,12.6201119 23.8888603,12.6201119 C28.5538112,12.6201119 32.0955878,14.0860445 34.7025611,16.0813698 L34.3127239,36.5943234" id="Fill-6" fill="#223B62" mask="url(#mask-2)"></path>
                <path d="M0.749454439,44.7776826 C0.862275538,43.4602628 1.00833857,42.1913369 1.18462153,40.9698948 L6.72292867,43.9300482 L0.749454439,44.7776826" id="Fill-7" fill="#223B62" mask="url(#mask-2)"></path>
                <path d="M16.987634,86.831056 C15.6700447,85.4833275 14.3796534,84.0810432 13.140636,82.6231929 L23.03968,74.5176262 L28.4782614,73.746774 L33.9158354,72.9718806 L16.987634,86.831056" id="Fill-8" fill="#D74047" mask="url(#mask-2)"></path>
                <path d="M60.8085574,36.2366803 L93.8208166,9.21037896 C94.8019573,10.8662463 95.6027856,12.6787088 96.2394189,14.5881593 L71.6847127,34.6909347 L66.2461314,35.4648178 L60.8085574,36.2366803" id="Fill-9" fill="#D74047" mask="url(#mask-2)"></path>
                <path d="M12.1605027,43.1551548 L1.76988098,37.6036044 C2.24735599,35.274883 2.84369608,33.1391273 3.53371798,31.1842137 L23.03968,41.6083989 L17.6000914,42.382282 L12.1605027,43.1551548" id="Fill-10" fill="#D74047" mask="url(#mask-2)"></path>
                <path d="M78.3955534,71.1866959 L71.6847127,67.600162 L77.1253087,66.8262789 L82.4732303,66.0665399 C81.1536264,67.80121 79.7876852,69.5086022 78.3955534,71.1866959" id="Fill-11" fill="#D74047" mask="url(#mask-2)"></path>
                <path d="M37.7396648,104.620264 C36.3404817,103.436203 34.7972502,102.194555 33.1593296,100.884207 L34.3127239,76.3290784 L19.0204284,88.8486077 C18.3374578,88.1898978 17.6585166,87.5170438 16.987634,86.831056 L33.9158354,72.9718806 L28.4782614,73.746774 L23.03968,74.5176262 L13.140636,82.6231929 C10.0269751,78.9598769 7.22558695,74.9379074 5.05378081,70.4936361 L39.1761191,65.6422175 L37.7396648,104.620264" id="Fill-12" fill="#FFFFFF" mask="url(#mask-2)"></path>
                <path d="M53.7723487,43.8179059 L54.2347137,13.7940704 C55.6832561,12.0705135 57.3181547,10.3509978 59.1112043,8.7436244 L58.6377586,34.3363224 L92.210094,6.85134888 C92.7933388,7.59290266 93.329239,8.38194013 93.8208166,9.21037896 L60.8085574,36.2366803 L66.2461314,35.4648178 L71.6847127,34.6909347 L96.2394189,14.5881593 C97.2467502,17.6099404 97.8400683,20.8701503 98.0767911,24.1232882 L88.0044861,32.371306 L98.0636958,30.9407335 C97.8853982,33.2138889 97.5318249,35.4567354 97.02413,37.6702836 L53.7723487,43.8179059" id="Fill-13" fill="#FFFFFF" mask="url(#mask-2)"></path>
                <path d="M52.4386421,99.7506606 L53.7723487,63.5640484 L87.6277442,58.7520312 C86.0200436,61.2434094 84.2904558,63.6802319 82.4732303,66.0665399 L77.1253087,66.8262789 L71.6847127,67.600162 L78.3955534,71.1866959 C76.2549746,73.7649592 74.0479118,76.2785639 71.8348051,78.7184172 L58.6377586,71.6665843 L57.6253907,93.9182492 C55.7678719,95.9317596 54.0221668,97.87556 52.4386421,99.7506606" id="Fill-14" fill="#FFFFFF" mask="url(#mask-2)"></path>
                <path d="M0.482511662,51.3961006 C0.479489668,51.0778588 0.480497,50.7596171 0.483518993,50.4383445 C0.50568028,48.4591839 0.596340092,46.5739804 0.749454439,44.7776826 L6.72292867,43.9300482 L1.18462153,40.9698948 C1.35284585,39.805029 1.54826811,38.6836057 1.76988098,37.6036044 L12.1605027,43.1551548 L17.6000914,42.382282 L23.03968,41.6083989 L3.53371798,31.1842137 C4.74654478,27.7502338 6.25149765,24.8739346 7.91963818,22.4916678 L34.3127239,36.5943234 L34.7025611,16.0813698 C36.9972616,17.837256 38.5686984,20.0043307 39.5448023,21.9410591 L39.1761191,45.8950647 L0.482511662,51.3961006" id="Fill-15" fill="#FFFFFF" mask="url(#mask-2)"></path>
                <path d="M44.0183603,111.081077 C42.7561743,109.11303 40.5350089,106.984346 37.7396648,104.620264 L39.1761191,65.6422175 L5.05378081,70.4936361 C2.29570789,64.8491389 0.55403218,58.5237054 0.482511662,51.3961006 L39.1761191,45.8950647 L39.5448023,21.9410591 C40.1622964,23.1645218 40.5420603,24.2970583 40.7173359,25.1770219 C41.1655983,27.4279509 42.8226582,29.416204 44.3981242,29.416204 C45.5172692,29.416204 46.5941063,28.4139951 47.1682851,25.791279 C47.7323906,23.2160466 50.2900046,18.4899041 54.2347137,13.7940704 L53.7723487,43.8179059 L97.02413,37.6702836 C95.3318135,45.0443995 91.9290486,52.0851192 87.6277442,58.7520312 L53.7723487,63.5640484 L52.4386421,99.7506606 C48.9996133,103.821124 46.3271635,107.561222 44.9390611,110.950749 L44.0183603,111.081077" id="Fill-16" fill="#D74047" mask="url(#mask-2)"></path>
            </g>
            <g id="Fill-56">
                <use fill="black" fill-opacity="1" filter="url(#filter-4)" xlink:href="#path-3"></use>
                <use fill="#FFFFFF" fill-rule="evenodd" xlink:href="#path-3"></use>
            </g>
        </g>
    </g>
</svg>